G04 #@! TF.GenerationSoftware,KiCad,Pcbnew,5.99.0-unknown-4852a8afa1~142~ubuntu20.04.1*
G04 #@! TF.CreationDate,2021-10-18T20:21:53+02:00*
G04 #@! TF.ProjectId,chip2,63686970-322e-46b6-9963-61645f706362,1*
G04 #@! TF.SameCoordinates,Original*
G04 #@! TF.FileFunction,Paste,Top*
G04 #@! TF.FilePolarity,Positive*
%FSLAX46Y46*%
G04 Gerber Fmt 4.6, Leading zero omitted, Abs format (unit mm)*
G04 Created by KiCad (PCBNEW 5.99.0-unknown-4852a8afa1~142~ubuntu20.04.1) date 2021-10-18 20:21:53*
%MOMM*%
%LPD*%
G01*
G04 APERTURE LIST*
G04 Aperture macros list*
%AMRoundRect*
0 Rectangle with rounded corners*
0 $1 Rounding radius*
0 $2 $3 $4 $5 $6 $7 $8 $9 X,Y pos of 4 corners*
0 Add a 4 corners polygon primitive as box body*
4,1,4,$2,$3,$4,$5,$6,$7,$8,$9,$2,$3,0*
0 Add four circle primitives for the rounded corners*
1,1,$1+$1,$2,$3*
1,1,$1+$1,$4,$5*
1,1,$1+$1,$6,$7*
1,1,$1+$1,$8,$9*
0 Add four rect primitives between the rounded corners*
20,1,$1+$1,$2,$3,$4,$5,0*
20,1,$1+$1,$4,$5,$6,$7,0*
20,1,$1+$1,$6,$7,$8,$9,0*
20,1,$1+$1,$8,$9,$2,$3,0*%
G04 Aperture macros list end*
%ADD10RoundRect,0.062500X0.287500X0.062500X-0.287500X0.062500X-0.287500X-0.062500X0.287500X-0.062500X0*%
%ADD11R,1.250000X0.700000*%
%ADD12RoundRect,0.062500X-0.287500X-0.062500X0.287500X-0.062500X0.287500X0.062500X-0.287500X0.062500X0*%
%ADD13RoundRect,0.147500X-0.147500X-0.172500X0.147500X-0.172500X0.147500X0.172500X-0.147500X0.172500X0*%
%ADD14R,0.700000X0.700000*%
%ADD15RoundRect,0.218750X-0.256250X0.218750X-0.256250X-0.218750X0.256250X-0.218750X0.256250X0.218750X0*%
%ADD16RoundRect,0.147500X0.147500X0.172500X-0.147500X0.172500X-0.147500X-0.172500X0.147500X-0.172500X0*%
%ADD17RoundRect,0.218750X0.256250X-0.218750X0.256250X0.218750X-0.256250X0.218750X-0.256250X-0.218750X0*%
%ADD18RoundRect,0.243750X0.243750X0.456250X-0.243750X0.456250X-0.243750X-0.456250X0.243750X-0.456250X0*%
%ADD19RoundRect,0.218750X0.218750X0.256250X-0.218750X0.256250X-0.218750X-0.256250X0.218750X-0.256250X0*%
%ADD20R,1.160000X0.600000*%
%ADD21R,1.160000X0.300000*%
%ADD22R,0.650000X1.060000*%
%ADD23RoundRect,0.218750X-0.218750X-0.256250X0.218750X-0.256250X0.218750X0.256250X-0.218750X0.256250X0*%
%ADD24RoundRect,0.250000X-0.275000X-0.275000X0.275000X-0.275000X0.275000X0.275000X-0.275000X0.275000X0*%
%ADD25RoundRect,0.062500X-0.350000X-0.062500X0.350000X-0.062500X0.350000X0.062500X-0.350000X0.062500X0*%
%ADD26RoundRect,0.062500X-0.062500X-0.350000X0.062500X-0.350000X0.062500X0.350000X-0.062500X0.350000X0*%
%ADD27RoundRect,0.147500X0.172500X-0.147500X0.172500X0.147500X-0.172500X0.147500X-0.172500X-0.147500X0*%
%ADD28R,1.300000X3.400000*%
%ADD29RoundRect,0.147500X-0.172500X0.147500X-0.172500X-0.147500X0.172500X-0.147500X0.172500X0.147500X0*%
%ADD30RoundRect,0.243750X0.456250X-0.243750X0.456250X0.243750X-0.456250X0.243750X-0.456250X-0.243750X0*%
%ADD31R,0.900000X0.800000*%
%ADD32R,0.650000X0.400000*%
%ADD33RoundRect,0.250000X-0.285000X0.285000X-0.285000X-0.285000X0.285000X-0.285000X0.285000X0.285000X0*%
%ADD34RoundRect,0.062500X-0.062500X0.337500X-0.062500X-0.337500X0.062500X-0.337500X0.062500X0.337500X0*%
%ADD35RoundRect,0.062500X-0.337500X0.062500X-0.337500X-0.062500X0.337500X-0.062500X0.337500X0.062500X0*%
G04 APERTURE END LIST*
D10*
X120050000Y-117550000D03*
X120050000Y-114050000D03*
D11*
X121925000Y-116800000D03*
X118175000Y-116800000D03*
X121925000Y-114800000D03*
X118175000Y-114800000D03*
D12*
X145500000Y-112250000D03*
X145500000Y-115750000D03*
D11*
X143625000Y-113000000D03*
X147375000Y-113000000D03*
X143625000Y-115000000D03*
X147375000Y-115000000D03*
D13*
X126265000Y-78500000D03*
X127235000Y-78500000D03*
D14*
X149335000Y-72200000D03*
X149335000Y-73300000D03*
X151165000Y-73300000D03*
X151165000Y-72200000D03*
D15*
X188650000Y-77012500D03*
X188650000Y-78587500D03*
D14*
X154085000Y-89950000D03*
X154085000Y-91050000D03*
X155915000Y-91050000D03*
X155915000Y-89950000D03*
D13*
X105015000Y-68500000D03*
X105985000Y-68500000D03*
X135765000Y-83500000D03*
X136735000Y-83500000D03*
D16*
X131985000Y-91250000D03*
X131015000Y-91250000D03*
D14*
X163335000Y-79700000D03*
X163335000Y-80800000D03*
X165165000Y-80800000D03*
X165165000Y-79700000D03*
D16*
X145985000Y-63500000D03*
X145015000Y-63500000D03*
D17*
X105050000Y-83187500D03*
X105050000Y-81612500D03*
D14*
X125835000Y-79700000D03*
X125835000Y-80800000D03*
X127665000Y-80800000D03*
X127665000Y-79700000D03*
D16*
X164735000Y-83500000D03*
X163765000Y-83500000D03*
D13*
X173265000Y-83500000D03*
X174235000Y-83500000D03*
D14*
X158585000Y-82200000D03*
X158585000Y-83300000D03*
X160415000Y-83300000D03*
X160415000Y-82200000D03*
D16*
X127235000Y-88750000D03*
X126265000Y-88750000D03*
D13*
X135765000Y-68500000D03*
X136735000Y-68500000D03*
D16*
X127235000Y-73500000D03*
X126265000Y-73500000D03*
X150735000Y-81000000D03*
X149765000Y-81000000D03*
D14*
X149335000Y-77200000D03*
X149335000Y-78300000D03*
X151165000Y-78300000D03*
X151165000Y-77200000D03*
D13*
X131015000Y-76000000D03*
X131985000Y-76000000D03*
D14*
X140085000Y-72200000D03*
X140085000Y-73300000D03*
X141915000Y-73300000D03*
X141915000Y-72200000D03*
D13*
X140515000Y-81000000D03*
X141485000Y-81000000D03*
D15*
X182000000Y-77012500D03*
X182000000Y-78587500D03*
D13*
X140515000Y-71000000D03*
X141485000Y-71000000D03*
D14*
X149335000Y-82200000D03*
X149335000Y-83300000D03*
X151165000Y-83300000D03*
X151165000Y-82200000D03*
X116585000Y-84700000D03*
X116585000Y-85800000D03*
X118415000Y-85800000D03*
X118415000Y-84700000D03*
D18*
X108137500Y-118350000D03*
X106262500Y-118350000D03*
D13*
X111315000Y-118000000D03*
X112285000Y-118000000D03*
D17*
X172450000Y-116047500D03*
X172450000Y-114472500D03*
D15*
X187100000Y-77012500D03*
X187100000Y-78587500D03*
D14*
X172835000Y-79700000D03*
X172835000Y-80800000D03*
X174665000Y-80800000D03*
X174665000Y-79700000D03*
D13*
X154515000Y-68500000D03*
X155485000Y-68500000D03*
D19*
X102962500Y-81900000D03*
X101387500Y-81900000D03*
D13*
X140515000Y-86000000D03*
X141485000Y-86000000D03*
D16*
X150735000Y-76000000D03*
X149765000Y-76000000D03*
D14*
X149335000Y-87200000D03*
X149335000Y-88300000D03*
X151165000Y-88300000D03*
X151165000Y-87200000D03*
D20*
X103510000Y-111800000D03*
X103510000Y-112600000D03*
D21*
X103510000Y-113750000D03*
X103510000Y-114750000D03*
X103510000Y-115250000D03*
X103510000Y-116250000D03*
D20*
X103510000Y-117400000D03*
X103510000Y-118200000D03*
X103510000Y-118200000D03*
X103510000Y-117400000D03*
D21*
X103510000Y-116750000D03*
X103510000Y-115750000D03*
X103510000Y-114250000D03*
X103510000Y-113250000D03*
D20*
X103510000Y-112600000D03*
X103510000Y-111800000D03*
D16*
X127235000Y-83500000D03*
X126265000Y-83500000D03*
D17*
X176850000Y-115987500D03*
X176850000Y-114412500D03*
D16*
X136735000Y-93750000D03*
X135765000Y-93750000D03*
D14*
X163335000Y-74700000D03*
X163335000Y-75800000D03*
X165165000Y-75800000D03*
X165165000Y-74700000D03*
X144585000Y-89950000D03*
X144585000Y-91050000D03*
X146415000Y-91050000D03*
X146415000Y-89950000D03*
D16*
X155485000Y-78500000D03*
X154515000Y-78500000D03*
D15*
X113550000Y-71137500D03*
X113550000Y-72712500D03*
D14*
X154085000Y-79700000D03*
X154085000Y-80800000D03*
X155915000Y-80800000D03*
X155915000Y-79700000D03*
X158585000Y-77200000D03*
X158585000Y-78300000D03*
X160415000Y-78300000D03*
X160415000Y-77200000D03*
X130585000Y-72200000D03*
X130585000Y-73300000D03*
X132415000Y-73300000D03*
X132415000Y-72200000D03*
X140085000Y-87200000D03*
X140085000Y-88300000D03*
X141915000Y-88300000D03*
X141915000Y-87200000D03*
X140085000Y-77200000D03*
X140085000Y-78300000D03*
X141915000Y-78300000D03*
X141915000Y-77200000D03*
D13*
X112265000Y-81000000D03*
X113235000Y-81000000D03*
D14*
X125835000Y-84700000D03*
X125835000Y-85800000D03*
X127665000Y-85800000D03*
X127665000Y-84700000D03*
D16*
X150735000Y-91250000D03*
X149765000Y-91250000D03*
X145985000Y-98750000D03*
X145015000Y-98750000D03*
D14*
X168085000Y-82200000D03*
X168085000Y-83300000D03*
X169915000Y-83300000D03*
X169915000Y-82200000D03*
D13*
X117015000Y-78500000D03*
X117985000Y-78500000D03*
D14*
X135335000Y-89950000D03*
X135335000Y-91050000D03*
X137165000Y-91050000D03*
X137165000Y-89950000D03*
D16*
X169485000Y-76000000D03*
X168515000Y-76000000D03*
D13*
X131015000Y-71000000D03*
X131985000Y-71000000D03*
D14*
X163335000Y-89950000D03*
X163335000Y-91050000D03*
X165165000Y-91050000D03*
X165165000Y-89950000D03*
D13*
X154515000Y-73500000D03*
X155485000Y-73500000D03*
D17*
X185200000Y-114187500D03*
X185200000Y-112612500D03*
D14*
X149335000Y-67200000D03*
X149335000Y-68300000D03*
X151165000Y-68300000D03*
X151165000Y-67200000D03*
D13*
X149765000Y-86000000D03*
X150735000Y-86000000D03*
X145015000Y-88750000D03*
X145985000Y-88750000D03*
D14*
X168085000Y-87200000D03*
X168085000Y-88300000D03*
X169915000Y-88300000D03*
X169915000Y-87200000D03*
D17*
X187100000Y-81687500D03*
X187100000Y-80112500D03*
D14*
X130585000Y-77200000D03*
X130585000Y-78300000D03*
X132415000Y-78300000D03*
X132415000Y-77200000D03*
D22*
X178500000Y-116300000D03*
X179450000Y-116300000D03*
X180400000Y-116300000D03*
X180400000Y-114100000D03*
X179450000Y-114100000D03*
X178500000Y-114100000D03*
D14*
X144585000Y-69700000D03*
X144585000Y-70800000D03*
X146415000Y-70800000D03*
X146415000Y-69700000D03*
X144585000Y-74700000D03*
X144585000Y-75800000D03*
X146415000Y-75800000D03*
X146415000Y-74700000D03*
X172835000Y-84700000D03*
X172835000Y-85800000D03*
X174665000Y-85800000D03*
X174665000Y-84700000D03*
D16*
X131985000Y-81000000D03*
X131015000Y-81000000D03*
D14*
X140085000Y-97450000D03*
X140085000Y-98550000D03*
X141915000Y-98550000D03*
X141915000Y-97450000D03*
X154085000Y-94950000D03*
X154085000Y-96050000D03*
X155915000Y-96050000D03*
X155915000Y-94950000D03*
D23*
X186562500Y-84525000D03*
X188137500Y-84525000D03*
D13*
X145015000Y-73500000D03*
X145985000Y-73500000D03*
X149765000Y-96250000D03*
X150735000Y-96250000D03*
D14*
X135335000Y-74700000D03*
X135335000Y-75800000D03*
X137165000Y-75800000D03*
X137165000Y-74700000D03*
X135335000Y-79700000D03*
X135335000Y-80800000D03*
X137165000Y-80800000D03*
X137165000Y-79700000D03*
X163335000Y-84700000D03*
X163335000Y-85800000D03*
X165165000Y-85800000D03*
X165165000Y-84700000D03*
D16*
X122485000Y-81000000D03*
X121515000Y-81000000D03*
D23*
X180712500Y-111350000D03*
X182287500Y-111350000D03*
D14*
X154085000Y-84700000D03*
X154085000Y-85800000D03*
X155915000Y-85800000D03*
X155915000Y-84700000D03*
X144585000Y-79700000D03*
X144585000Y-80800000D03*
X146415000Y-80800000D03*
X146415000Y-79700000D03*
X144585000Y-99950000D03*
X144585000Y-101050000D03*
X146415000Y-101050000D03*
X146415000Y-99950000D03*
D13*
X177765000Y-81000000D03*
X178735000Y-81000000D03*
D14*
X140085000Y-67200000D03*
X140085000Y-68300000D03*
X141915000Y-68300000D03*
X141915000Y-67200000D03*
D24*
X111600000Y-115462500D03*
X112900000Y-115462500D03*
X112900000Y-114162500D03*
X111600000Y-114162500D03*
D25*
X110312500Y-113562500D03*
X110312500Y-114062500D03*
X110312500Y-114562500D03*
X110312500Y-115062500D03*
X110312500Y-115562500D03*
X110312500Y-116062500D03*
D26*
X111000000Y-116750000D03*
X111500000Y-116750000D03*
X112000000Y-116750000D03*
X112500000Y-116750000D03*
X113000000Y-116750000D03*
X113500000Y-116750000D03*
D25*
X114187500Y-116062500D03*
X114187500Y-115562500D03*
X114187500Y-115062500D03*
X114187500Y-114562500D03*
X114187500Y-114062500D03*
X114187500Y-113562500D03*
D26*
X113500000Y-112875000D03*
X113000000Y-112875000D03*
X112500000Y-112875000D03*
X112000000Y-112875000D03*
X111500000Y-112875000D03*
X111000000Y-112875000D03*
D23*
X101387500Y-86500000D03*
X102962500Y-86500000D03*
D14*
X154085000Y-69700000D03*
X154085000Y-70800000D03*
X155915000Y-70800000D03*
X155915000Y-69700000D03*
D16*
X122485000Y-76000000D03*
X121515000Y-76000000D03*
D14*
X154085000Y-74700000D03*
X154085000Y-75800000D03*
X155915000Y-75800000D03*
X155915000Y-74700000D03*
X135335000Y-94950000D03*
X135335000Y-96050000D03*
X137165000Y-96050000D03*
X137165000Y-94950000D03*
D16*
X164735000Y-73500000D03*
X163765000Y-73500000D03*
X164735000Y-78500000D03*
X163765000Y-78500000D03*
D13*
X140515000Y-76000000D03*
X141485000Y-76000000D03*
D16*
X150735000Y-71000000D03*
X149765000Y-71000000D03*
D14*
X140085000Y-82200000D03*
X140085000Y-83300000D03*
X141915000Y-83300000D03*
X141915000Y-82200000D03*
D16*
X159985000Y-71000000D03*
X159015000Y-71000000D03*
D13*
X121515000Y-86000000D03*
X122485000Y-86000000D03*
X103115000Y-68500000D03*
X104085000Y-68500000D03*
D27*
X108300000Y-68585000D03*
X108300000Y-67615000D03*
D13*
X140515000Y-91250000D03*
X141485000Y-91250000D03*
D14*
X125835000Y-89950000D03*
X125835000Y-91050000D03*
X127665000Y-91050000D03*
X127665000Y-89950000D03*
X140085000Y-92450000D03*
X140085000Y-93550000D03*
X141915000Y-93550000D03*
X141915000Y-92450000D03*
D15*
X101300000Y-77962500D03*
X101300000Y-79537500D03*
D28*
X174750000Y-69700000D03*
X183450000Y-69700000D03*
D13*
X154515000Y-93750000D03*
X155485000Y-93750000D03*
D29*
X116000000Y-114990000D03*
X116000000Y-115960000D03*
D16*
X159985000Y-91250000D03*
X159015000Y-91250000D03*
D14*
X121085000Y-82200000D03*
X121085000Y-83300000D03*
X122915000Y-83300000D03*
X122915000Y-82200000D03*
X130585000Y-82200000D03*
X130585000Y-83300000D03*
X132415000Y-83300000D03*
X132415000Y-82200000D03*
D13*
X168515000Y-86000000D03*
X169485000Y-86000000D03*
D14*
X111835000Y-82200000D03*
X111835000Y-83300000D03*
X113665000Y-83300000D03*
X113665000Y-82200000D03*
D23*
X176812500Y-110899999D03*
X178387500Y-110899999D03*
D13*
X180465000Y-112700000D03*
X181435000Y-112700000D03*
D27*
X183900001Y-114035000D03*
X183900001Y-113065000D03*
D13*
X145015000Y-83500000D03*
X145985000Y-83500000D03*
D14*
X158585000Y-92450000D03*
X158585000Y-93550000D03*
X160415000Y-93550000D03*
X160415000Y-92450000D03*
D13*
X173265000Y-78500000D03*
X174235000Y-78500000D03*
X168515000Y-81000000D03*
X169485000Y-81000000D03*
D16*
X150735000Y-66000000D03*
X149765000Y-66000000D03*
D13*
X140515000Y-96250000D03*
X141485000Y-96250000D03*
D30*
X182300000Y-116137500D03*
X182300000Y-114262500D03*
D14*
X121085000Y-77200000D03*
X121085000Y-78300000D03*
X122915000Y-78300000D03*
X122915000Y-77200000D03*
D23*
X106412500Y-116450000D03*
X107987500Y-116450000D03*
D14*
X177335000Y-82200000D03*
X177335000Y-83300000D03*
X179165000Y-83300000D03*
X179165000Y-82200000D03*
D13*
X140515000Y-66000000D03*
X141485000Y-66000000D03*
D14*
X144585000Y-84700000D03*
X144585000Y-85800000D03*
X146415000Y-85800000D03*
X146415000Y-84700000D03*
X130585000Y-92450000D03*
X130585000Y-93550000D03*
X132415000Y-93550000D03*
X132415000Y-92450000D03*
D23*
X106412500Y-113200000D03*
X107987500Y-113200000D03*
D14*
X149335000Y-92450000D03*
X149335000Y-93550000D03*
X151165000Y-93550000D03*
X151165000Y-92450000D03*
D13*
X154515000Y-83500000D03*
X155485000Y-83500000D03*
D14*
X158585000Y-72200000D03*
X158585000Y-73300000D03*
X160415000Y-73300000D03*
X160415000Y-72200000D03*
D13*
X163765000Y-88750000D03*
X164735000Y-88750000D03*
D31*
X183550000Y-76850000D03*
X183550000Y-78750000D03*
X185550000Y-77800000D03*
D14*
X135335000Y-84700000D03*
X135335000Y-85800000D03*
X137165000Y-85800000D03*
X137165000Y-84700000D03*
D16*
X159985000Y-76000000D03*
X159015000Y-76000000D03*
D14*
X168085000Y-77200000D03*
X168085000Y-78300000D03*
X169915000Y-78300000D03*
X169915000Y-77200000D03*
D16*
X117985000Y-83500000D03*
X117015000Y-83500000D03*
D14*
X149335000Y-97450000D03*
X149335000Y-98550000D03*
X151165000Y-98550000D03*
X151165000Y-97450000D03*
X121085000Y-87200000D03*
X121085000Y-88300000D03*
X122915000Y-88300000D03*
X122915000Y-87200000D03*
D19*
X178387500Y-112450000D03*
X176812500Y-112450000D03*
D14*
X144585000Y-94950000D03*
X144585000Y-96050000D03*
X146415000Y-96050000D03*
X146415000Y-94950000D03*
D16*
X145985000Y-93750000D03*
X145015000Y-93750000D03*
D14*
X116585000Y-79700000D03*
X116585000Y-80800000D03*
X118415000Y-80800000D03*
X118415000Y-79700000D03*
X125835000Y-74700000D03*
X125835000Y-75800000D03*
X127665000Y-75800000D03*
X127665000Y-74700000D03*
D32*
X101225000Y-83550000D03*
X101225000Y-84200000D03*
X101225000Y-84850000D03*
X103125000Y-84850000D03*
X103125000Y-84200000D03*
X103125000Y-83550000D03*
D16*
X136735000Y-73500000D03*
X135765000Y-73500000D03*
D13*
X159015000Y-81000000D03*
X159985000Y-81000000D03*
D14*
X144585000Y-64700000D03*
X144585000Y-65800000D03*
X146415000Y-65800000D03*
X146415000Y-64700000D03*
D16*
X132000000Y-86000000D03*
X131030000Y-86000000D03*
X136735000Y-88750000D03*
X135765000Y-88750000D03*
D15*
X174950000Y-114450000D03*
X174950000Y-116025000D03*
D16*
X159985000Y-86000000D03*
X159015000Y-86000000D03*
D14*
X158585000Y-87200000D03*
X158585000Y-88300000D03*
X160415000Y-88300000D03*
X160415000Y-87200000D03*
D33*
X106490000Y-75160000D03*
X105170000Y-76480000D03*
X105170000Y-72520000D03*
X105170000Y-75160000D03*
X107810000Y-73840000D03*
X109130000Y-75160000D03*
X107810000Y-75160000D03*
X109130000Y-76480000D03*
X106490000Y-72520000D03*
X107810000Y-76480000D03*
X107810000Y-72520000D03*
X106490000Y-76480000D03*
X109130000Y-73840000D03*
X105170000Y-73840000D03*
X109130000Y-72520000D03*
X106490000Y-73840000D03*
D34*
X109900000Y-71050000D03*
X109400000Y-71050000D03*
X108900000Y-71050000D03*
X108400000Y-71050000D03*
X107900000Y-71050000D03*
X107400000Y-71050000D03*
X106900000Y-71050000D03*
X106400000Y-71050000D03*
X105900000Y-71050000D03*
X105400000Y-71050000D03*
X104900000Y-71050000D03*
X104400000Y-71050000D03*
D35*
X103700000Y-71750000D03*
X103700000Y-72250000D03*
X103700000Y-72750000D03*
X103700000Y-73250000D03*
X103700000Y-73750000D03*
X103700000Y-74250000D03*
X103700000Y-74750000D03*
X103700000Y-75250000D03*
X103700000Y-75750000D03*
X103700000Y-76250000D03*
X103700000Y-76750000D03*
X103700000Y-77250000D03*
D34*
X104400000Y-77950000D03*
X104900000Y-77950000D03*
X105400000Y-77950000D03*
X105900000Y-77950000D03*
X106400000Y-77950000D03*
X106900000Y-77950000D03*
X107400000Y-77950000D03*
X107900000Y-77950000D03*
X108400000Y-77950000D03*
X108900000Y-77950000D03*
X109400000Y-77950000D03*
X109900000Y-77950000D03*
D35*
X110600000Y-77250000D03*
X110600000Y-76750000D03*
X110600000Y-76250000D03*
X110600000Y-75750000D03*
X110600000Y-75250000D03*
X110600000Y-74750000D03*
X110600000Y-74250000D03*
X110600000Y-73750000D03*
X110600000Y-73250000D03*
X110600000Y-72750000D03*
X110600000Y-72250000D03*
X110600000Y-71750000D03*
D16*
X136735000Y-78500000D03*
X135765000Y-78500000D03*
D23*
X172642500Y-112130000D03*
X174217500Y-112130000D03*
D27*
X107300000Y-68585000D03*
X107300000Y-67615000D03*
D14*
X130585000Y-87200000D03*
X130585000Y-88300000D03*
X132415000Y-88300000D03*
X132415000Y-87200000D03*
D16*
X155485000Y-88750000D03*
X154515000Y-88750000D03*
D14*
X135335000Y-69700000D03*
X135335000Y-70800000D03*
X137165000Y-70800000D03*
X137165000Y-69700000D03*
D13*
X145015000Y-68500000D03*
X145985000Y-68500000D03*
D16*
X145985000Y-78500000D03*
X145015000Y-78500000D03*
M02*
