M48
; DRILL file {KiCad 5.99.0-unknown-4852a8afa1~142~ubuntu20.04.1} date Mon 18 Oct 2021 20:21:56 CEST
; FORMAT={-:-/ absolute / metric / decimal}
; #@! TF.CreationDate,2021-10-18T20:21:56+02:00
; #@! TF.GenerationSoftware,Kicad,Pcbnew,5.99.0-unknown-4852a8afa1~142~ubuntu20.04.1
; #@! TF.FileFunction,Plated,1,2,PTH
FMAT,2
METRIC
; #@! TA.AperFunction,Plated,PTH,ComponentDrill
T1C0.300
; #@! TA.AperFunction,Plated,PTH,ViaDrill
T2C0.400
; #@! TA.AperFunction,Plated,PTH,ComponentDrill
T3C0.600
; #@! TA.AperFunction,Plated,PTH,ComponentDrill
T4C1.000
%
G90
G05
T1
X111.5Y-66.6
T2
X99.4Y-67.5
X100.0Y-80.85
X100.4Y-67.5
X101.5Y-67.5
X101.942Y-69.825
X102.05Y-80.7
X102.385Y-114.972
X102.399Y-77.201
X102.425Y-74.675
X102.5Y-109.05
X102.6Y-67.5
X102.6Y-72.7
X102.6Y-73.7
X102.6Y-90.45
X102.809Y-75.575
X102.909Y-70.634
X103.7Y-67.5
X104.8Y-67.5
X105.0Y-84.425
X105.305Y-115.237
X105.35Y-72.9
X105.6Y-79.325
X105.9Y-67.5
X106.05Y-105.9
X106.075Y-111.75
X106.375Y-81.625
X107.55Y-81.4
X107.89Y-79.05
X107.975Y-111.199
X108.4Y-69.6
X108.975Y-111.95
X109.15Y-79.32
X109.3Y-72.9
X109.35Y-117.9
X109.35Y-118.75
X110.075Y-110.9
X110.2Y-117.9
X110.2Y-118.75
X110.5Y-67.5
X110.5Y-68.5
X110.5Y-69.5
X110.66Y-78.0
X111.05Y-118.75
X111.5Y-69.5
X111.694Y-110.637
X112.133Y-77.963
X112.211Y-111.433
X112.425Y-73.075
X112.5Y-67.5
X112.5Y-68.5
X112.6Y-70.6
X112.86Y-76.89
X113.2Y-74.5
X113.5Y-62.0
X113.5Y-63.0
X113.5Y-64.0
X113.5Y-65.0
X114.25Y-81.0
X114.5Y-70.0
X114.5Y-112.5
X114.925Y-110.25
X115.475Y-69.85
X116.05Y-117.125
X118.95Y-78.5
X118.95Y-83.5
X119.6Y-112.55
X119.825Y-116.075
X123.45Y-76.0
X123.45Y-81.0
X123.5Y-86.0
X127.95Y-116.5
X128.2Y-73.5
X128.2Y-78.5
X128.2Y-88.75
X128.25Y-83.5
X132.95Y-71.0
X132.95Y-76.0
X132.95Y-86.0
X132.95Y-91.25
X133.0Y-81.0
X137.7Y-68.5
X137.7Y-83.5
X137.7Y-88.75
X137.7Y-93.75
X137.75Y-73.5
X137.75Y-78.5
X142.45Y-70.95
X142.45Y-81.0
X142.45Y-86.0
X142.45Y-91.25
X142.45Y-96.25
X142.5Y-76.0
X142.55Y-66.0
X146.65Y-104.3
X146.95Y-63.5
X146.95Y-78.5
X146.95Y-83.5
X146.95Y-88.75
X146.95Y-93.75
X146.95Y-98.75
X147.0Y-68.5
X147.0Y-73.5
X148.85Y-113.7
X151.7Y-76.0
X151.7Y-81.0
X151.7Y-86.0
X151.7Y-91.25
X151.7Y-96.25
X151.75Y-66.0
X151.75Y-71.0
X156.45Y-78.5
X156.45Y-83.5
X156.45Y-88.75
X156.45Y-93.75
X156.5Y-68.5
X156.5Y-73.5
X160.95Y-76.0
X160.95Y-81.0
X160.95Y-86.0
X160.95Y-91.25
X161.0Y-71.0
X164.725Y-116.05
X165.7Y-73.5
X165.7Y-78.5
X165.7Y-83.5
X165.7Y-88.75
X169.59Y-117.29
X169.6Y-113.89
X170.45Y-76.0
X170.45Y-81.0
X170.45Y-86.0
X173.469Y-112.948
X175.2Y-78.5
X175.2Y-83.5
X175.616Y-113.022
X176.26Y-118.26
X177.592Y-118.078
X179.556Y-73.831
X179.6Y-111.15
X179.6Y-112.0
X179.7Y-81.0
X180.425Y-73.45
X181.1Y-77.76
X185.5Y-115.2
X186.161Y-119.085
X186.85Y-117.65
X186.98Y-70.89
X187.1Y-75.85
X187.302Y-72.098
X188.15Y-83.35
X190.75Y-113.35
T4
X99.75Y-70.225
X99.75Y-72.765
X99.75Y-75.305
X191.25Y-70.25
X191.25Y-72.79
X191.25Y-75.33
T3
G00X98.36Y-110.68
M15
G01X99.16Y-110.68
M16
G05
G00X98.36Y-119.32
M15
G01X99.16Y-119.32
M16
G05
G00X102.38Y-110.68
M15
G01X103.48Y-110.68
M16
G05
G00X102.38Y-119.32
M15
G01X103.48Y-119.32
M16
G05
T0
M30
