G04 #@! TF.GenerationSoftware,KiCad,Pcbnew,5.99.0-unknown-4852a8afa1~142~ubuntu20.04.1*
G04 #@! TF.CreationDate,2021-10-18T20:21:53+02:00*
G04 #@! TF.ProjectId,chip2,63686970-322e-46b6-9963-61645f706362,1*
G04 #@! TF.SameCoordinates,Original*
G04 #@! TF.FileFunction,Copper,L2,Bot*
G04 #@! TF.FilePolarity,Positive*
%FSLAX46Y46*%
G04 Gerber Fmt 4.6, Leading zero omitted, Abs format (unit mm)*
G04 Created by KiCad (PCBNEW 5.99.0-unknown-4852a8afa1~142~ubuntu20.04.1) date 2021-10-18 20:21:53*
%MOMM*%
%LPD*%
G01*
G04 APERTURE LIST*
G04 #@! TA.AperFunction,ComponentPad*
%ADD10R,0.900000X0.500000*%
G04 #@! TD*
G04 #@! TA.AperFunction,ComponentPad*
%ADD11O,1.700000X0.900000*%
G04 #@! TD*
G04 #@! TA.AperFunction,ComponentPad*
%ADD12O,2.000000X0.900000*%
G04 #@! TD*
G04 #@! TA.AperFunction,ComponentPad*
%ADD13R,1.700000X1.700000*%
G04 #@! TD*
G04 #@! TA.AperFunction,ComponentPad*
%ADD14O,1.700000X1.700000*%
G04 #@! TD*
G04 #@! TA.AperFunction,SMDPad,CuDef*
%ADD15R,1.270000X3.180000*%
G04 #@! TD*
G04 #@! TA.AperFunction,ViaPad*
%ADD16C,0.800000*%
G04 #@! TD*
G04 #@! TA.AperFunction,Conductor*
%ADD17C,0.250000*%
G04 #@! TD*
G04 #@! TA.AperFunction,Conductor*
%ADD18C,0.500000*%
G04 #@! TD*
G04 APERTURE END LIST*
D10*
X111500000Y-66600000D03*
D11*
X98760000Y-110680000D03*
D12*
X102930000Y-119320000D03*
D11*
X98760000Y-119320000D03*
D12*
X102930000Y-110680000D03*
D13*
X191250000Y-70250000D03*
D14*
X191250000Y-72790000D03*
X191250000Y-75330000D03*
D13*
X99750000Y-70225000D03*
D14*
X99750000Y-72765000D03*
X99750000Y-75305000D03*
D15*
X169630000Y-115090000D03*
X172170000Y-115090000D03*
X174710000Y-115090000D03*
X177250000Y-115090000D03*
X98510000Y-115090000D03*
X101050000Y-115090000D03*
D16*
X127950000Y-116500000D03*
X100000000Y-80850000D03*
X102600000Y-90450000D03*
X106050000Y-105900000D03*
X102500000Y-109050000D03*
X113500000Y-64000000D03*
X105350000Y-72900000D03*
X111500000Y-69500000D03*
X114925000Y-110250000D03*
X102600000Y-67500000D03*
X110500000Y-69500000D03*
X109300000Y-72900000D03*
X109150000Y-79320000D03*
X113500000Y-65000000D03*
X104800000Y-67500000D03*
X101942067Y-69824500D03*
X119600000Y-112550000D03*
X169590000Y-117290000D03*
X112425000Y-73075000D03*
X103700000Y-67500000D03*
X113500000Y-63000000D03*
X169600000Y-113890000D03*
X101500000Y-67500000D03*
X106075000Y-111750000D03*
X112500000Y-68500000D03*
X110500000Y-67500000D03*
X146650000Y-104300000D03*
X107550000Y-81400000D03*
X112500000Y-67500000D03*
X110500000Y-68500000D03*
X105900000Y-67500000D03*
X114500000Y-70000000D03*
X113500000Y-62000000D03*
X119825000Y-116075000D03*
X99400000Y-67500000D03*
X114500000Y-112500000D03*
X100400000Y-67500000D03*
X175615911Y-113021922D03*
X102425000Y-74675000D03*
X185500000Y-115200000D03*
X110660000Y-78000000D03*
X108400000Y-69600000D03*
X190750000Y-113350000D03*
X112600000Y-70600000D03*
X102600000Y-72700000D03*
X113200000Y-74500000D03*
X105000000Y-84425000D03*
X107890000Y-79050500D03*
X151750000Y-71000000D03*
X128200000Y-78500000D03*
X109350000Y-118750000D03*
X151700000Y-96250000D03*
X151700000Y-76000000D03*
X156450000Y-93750000D03*
X132950000Y-76000000D03*
X132950000Y-91250000D03*
X156500000Y-73500000D03*
X114250000Y-81000000D03*
X147000000Y-68500000D03*
X156450000Y-83500000D03*
X170450000Y-86000000D03*
X146950000Y-98750000D03*
X156450000Y-88750000D03*
X165700000Y-83500000D03*
X160950000Y-91250000D03*
X179700000Y-81000000D03*
X147000000Y-73500000D03*
X137700000Y-83500000D03*
X165700000Y-78500000D03*
X151750000Y-66000000D03*
X118950000Y-83500000D03*
X128200000Y-88750000D03*
X151700000Y-86000000D03*
X160950000Y-81000000D03*
X179600000Y-112000000D03*
X146950000Y-78500000D03*
X137750000Y-78500000D03*
X151700000Y-81000000D03*
X132950000Y-86000000D03*
X123450000Y-81000000D03*
X156450000Y-78500000D03*
X165700000Y-73500000D03*
X161000000Y-71000000D03*
X175200000Y-78500000D03*
X160950000Y-76000000D03*
X133000000Y-81000000D03*
X142550000Y-66000000D03*
X151700000Y-91250000D03*
X109350000Y-117900000D03*
X165700000Y-88750000D03*
X179600000Y-111150000D03*
X142450000Y-96250000D03*
X132950000Y-71000000D03*
X142450000Y-81000000D03*
X128250000Y-83500000D03*
X146950000Y-83500000D03*
X110200000Y-118750000D03*
X118950000Y-78500000D03*
X128200000Y-73500000D03*
X137700000Y-88750000D03*
X175200000Y-83500000D03*
X187100000Y-75850000D03*
X146950000Y-88750000D03*
X137700000Y-93750000D03*
X137700000Y-68500000D03*
X137750000Y-73500000D03*
X111050000Y-118750000D03*
X110200000Y-117900000D03*
X160950000Y-86000000D03*
X142450000Y-86000000D03*
X142500000Y-76000000D03*
X142450000Y-70950000D03*
X146950000Y-63500000D03*
X146950000Y-93750000D03*
X170450000Y-76000000D03*
X156500000Y-68500000D03*
X123450000Y-76000000D03*
X142450000Y-91250000D03*
X170450000Y-81000000D03*
X123500000Y-86000000D03*
X180425500Y-73450000D03*
X102600000Y-73700000D03*
X177591944Y-118078056D03*
X186160806Y-119085306D03*
X186980000Y-70890000D03*
X179555650Y-73830678D03*
X102808638Y-75575500D03*
X187301944Y-72098056D03*
X176260000Y-118260000D03*
X186850000Y-117650000D03*
X173469140Y-112948486D03*
X105304710Y-115237000D03*
X102385229Y-114971951D03*
X102909116Y-70634116D03*
X181100000Y-77760000D03*
X116050000Y-117125000D03*
X107975000Y-111199019D03*
X102399185Y-77201109D03*
X102050000Y-80700000D03*
X110075000Y-110900000D03*
X108975000Y-111950000D03*
X164725000Y-116050000D03*
X148850000Y-113700000D03*
X106375000Y-81625000D03*
X105600000Y-79325000D03*
X112860000Y-76890000D03*
X111694151Y-110636857D03*
X112210953Y-111433393D03*
X112133056Y-77963056D03*
X188150000Y-83350000D03*
X115475000Y-69850000D03*
D17*
X181100000Y-77760000D02*
X181100000Y-72900000D01*
X181100000Y-72900000D02*
X169809520Y-61609520D01*
X169809520Y-61609520D02*
X126235040Y-61609520D01*
X110500000Y-74575000D02*
X105775000Y-74575000D01*
X105775000Y-74575000D02*
X102909116Y-71709116D01*
X102909116Y-71709116D02*
X102909116Y-70634116D01*
X126235040Y-61609520D02*
X122244560Y-65600000D01*
X122244560Y-65600000D02*
X121053904Y-65600000D01*
X111325489Y-73749511D02*
X110500000Y-74575000D01*
X121053904Y-65600000D02*
X112904393Y-73749511D01*
X112904393Y-73749511D02*
X111325489Y-73749511D01*
X186850000Y-117650000D02*
X188550000Y-117650000D01*
X192950000Y-75439700D02*
X191660300Y-74150000D01*
X188550000Y-117650000D02*
X190000000Y-119100000D01*
X190000000Y-119100000D02*
X192050000Y-119100000D01*
X192050000Y-119100000D02*
X192950000Y-118200000D01*
X192950000Y-118200000D02*
X192950000Y-75439700D01*
X191660300Y-74150000D02*
X190670000Y-74150000D01*
X190670000Y-74150000D02*
X188618056Y-72098056D01*
X188618056Y-72098056D02*
X187301944Y-72098056D01*
X186160806Y-119085306D02*
X186896112Y-118350000D01*
X188550000Y-118350000D02*
X189780000Y-119580000D01*
X186896112Y-118350000D02*
X188550000Y-118350000D01*
X189780000Y-119580000D02*
X192270000Y-119580000D01*
X192270000Y-119580000D02*
X193450000Y-118400000D01*
X193450000Y-118400000D02*
X193450000Y-71600000D01*
X193450000Y-71600000D02*
X193224511Y-71374511D01*
X193224511Y-71374511D02*
X187464511Y-71374511D01*
X187464511Y-71374511D02*
X186980000Y-70890000D01*
X164725000Y-116050000D02*
X162850000Y-116050000D01*
X162850000Y-116050000D02*
X161700000Y-117200000D01*
X161700000Y-117200000D02*
X152350000Y-117200000D01*
X152350000Y-117200000D02*
X148850000Y-113700000D01*
X112133056Y-77963056D02*
X111826112Y-78270000D01*
X106074030Y-84869880D02*
X100074520Y-90869390D01*
X111826112Y-78270000D02*
X111826112Y-78807792D01*
X112368662Y-111275684D02*
X112210953Y-111433393D01*
X111826112Y-78807792D02*
X106074030Y-84559874D01*
X106074030Y-84559874D02*
X106074030Y-84869880D01*
X106325969Y-109825969D02*
X111837167Y-109825969D01*
X111837167Y-109825969D02*
X112368662Y-110357464D01*
X112368662Y-110357464D02*
X112368662Y-111275684D01*
X100074520Y-90869390D02*
X100074520Y-103574520D01*
X100074520Y-103574520D02*
X106325969Y-109825969D01*
X112860000Y-76890000D02*
X112436952Y-77313048D01*
X112436952Y-77313048D02*
X112412449Y-77288545D01*
X112412449Y-77288545D02*
X111853663Y-77288545D01*
X111282783Y-110225489D02*
X111694151Y-110636857D01*
X111853663Y-77288545D02*
X111380000Y-77762208D01*
X111380000Y-77762208D02*
X111380000Y-78523904D01*
X111380000Y-78523904D02*
X105674511Y-84229393D01*
X105674511Y-84229393D02*
X105674511Y-84704393D01*
X106025489Y-110225489D02*
X111282783Y-110225489D01*
X105674511Y-84704393D02*
X99675000Y-90703904D01*
X99675000Y-90703904D02*
X99675000Y-103875000D01*
X99675000Y-103875000D02*
X106025489Y-110225489D01*
X169630000Y-117250000D02*
X169590000Y-117290000D01*
X169630000Y-115090000D02*
X169630000Y-117250000D01*
D18*
X190750000Y-113350000D02*
X188350000Y-113350000D01*
D17*
X112600000Y-70600000D02*
X109625489Y-73574511D01*
X102134127Y-74965873D02*
X102134127Y-75854893D01*
X185500000Y-115200000D02*
X183900000Y-115200000D01*
X101175489Y-73425489D02*
X101175489Y-69424511D01*
X101450000Y-69150000D02*
X107950000Y-69150000D01*
X183900000Y-115200000D02*
X181721922Y-113021922D01*
X108400000Y-73175000D02*
X108400000Y-69600000D01*
X109625489Y-73574511D02*
X108799511Y-73574511D01*
X108799511Y-73574511D02*
X108400000Y-73175000D01*
X102134127Y-75854893D02*
X102959234Y-76680000D01*
X109340000Y-76680000D02*
X110660000Y-78000000D01*
X107950000Y-69150000D02*
X108400000Y-69600000D01*
D18*
X188350000Y-113350000D02*
X186500000Y-115200000D01*
D17*
X102425000Y-74675000D02*
X102134127Y-74965873D01*
X181721922Y-113021922D02*
X175615911Y-113021922D01*
X101175489Y-69424511D02*
X101450000Y-69150000D01*
D18*
X186500000Y-115200000D02*
X185500000Y-115200000D01*
D17*
X102959234Y-76680000D02*
X109340000Y-76680000D01*
X102425000Y-74675000D02*
X101175489Y-73425489D01*
X111600000Y-74500000D02*
X113200000Y-74500000D01*
X102600000Y-72700000D02*
X103825000Y-73925000D01*
X107489989Y-78650489D02*
X105320607Y-78650489D01*
X104874519Y-74974519D02*
X111125481Y-74974519D01*
X105320607Y-78650489D02*
X104580000Y-79391096D01*
X104580000Y-79391096D02*
X104580000Y-84005000D01*
X107890000Y-79050500D02*
X107489989Y-78650489D01*
X104580000Y-84005000D02*
X105000000Y-84425000D01*
X111125481Y-74974519D02*
X111600000Y-74500000D01*
X103825000Y-73925000D02*
X104874519Y-74974519D01*
X114610000Y-74100000D02*
X114610000Y-72608910D01*
X175260000Y-67625006D02*
X179467497Y-71832503D01*
X126394783Y-62014783D02*
X169649777Y-62014783D01*
X169649777Y-62014783D02*
X175260000Y-67625006D01*
X102600000Y-73700000D02*
X104408545Y-75508545D01*
X177591944Y-118078056D02*
X177250000Y-117736112D01*
X180425500Y-72790506D02*
X180425500Y-73450000D01*
X122335036Y-66074530D02*
X126394783Y-62014783D01*
X121144379Y-66074531D02*
X122335036Y-66074530D01*
X114610000Y-72608910D02*
X121144379Y-66074531D01*
X177250000Y-117736112D02*
X177250000Y-115090000D01*
X179467497Y-71832503D02*
X180425500Y-72790506D01*
X113201455Y-75508545D02*
X114610000Y-74100000D01*
X104408545Y-75508545D02*
X113201455Y-75508545D01*
X169484291Y-62414303D02*
X172070000Y-65000012D01*
X176260000Y-116640000D02*
X174710000Y-115090000D01*
X179555650Y-72485662D02*
X179555650Y-73830678D01*
X172070000Y-65000012D02*
X179555650Y-72485662D01*
X115220000Y-72563916D02*
X121291958Y-66491958D01*
X103283138Y-76050000D02*
X113380000Y-76050000D01*
X176260000Y-118260000D02*
X176260000Y-116640000D01*
X121291958Y-66491958D02*
X122482614Y-66491958D01*
X122482614Y-66491958D02*
X126560269Y-62414303D01*
X113380000Y-76050000D02*
X115220000Y-74210000D01*
X126560269Y-62414303D02*
X169484291Y-62414303D01*
X102808638Y-75575500D02*
X103283138Y-76050000D01*
X115220000Y-74210000D02*
X115220000Y-72563916D01*
X173469140Y-112948486D02*
X172170000Y-114247626D01*
X172170000Y-114247626D02*
X172170000Y-115090000D01*
X102650278Y-115237000D02*
X102385229Y-114971951D01*
X105304710Y-115237000D02*
X102650278Y-115237000D01*
X107769499Y-114894499D02*
X107769499Y-111404520D01*
X102600000Y-77401924D02*
X102600000Y-80150000D01*
X107769499Y-111404520D02*
X107975000Y-111199019D01*
X116050000Y-117125000D02*
X110000000Y-117125000D01*
X110000000Y-117125000D02*
X107769499Y-114894499D01*
X102600000Y-80150000D02*
X102050000Y-80700000D01*
X102399185Y-77201109D02*
X102600000Y-77401924D01*
X110075000Y-110900000D02*
X110025000Y-110900000D01*
X110025000Y-110900000D02*
X108975000Y-111950000D01*
X105600000Y-80850000D02*
X106375000Y-81625000D01*
X105600000Y-79325000D02*
X105600000Y-80850000D01*
X115475000Y-69850000D02*
X114500000Y-68875000D01*
X119990000Y-61210000D02*
X169975006Y-61210000D01*
X186600000Y-72350000D02*
X188150000Y-73900000D01*
X114500000Y-68875000D02*
X114500000Y-66700000D01*
X181115006Y-72350000D02*
X186600000Y-72350000D01*
X169975006Y-61210000D02*
X181115006Y-72350000D01*
X188150000Y-73900000D02*
X188150000Y-83350000D01*
X114500000Y-66700000D02*
X119990000Y-61210000D01*
G04 #@! TA.AperFunction,Conductor*
G36*
X143946525Y-103976003D02*
G01*
X143948359Y-105149713D01*
X143949732Y-106028370D01*
X143929836Y-106096522D01*
X143895049Y-106132441D01*
X140742032Y-108297199D01*
X140711100Y-108323423D01*
X140675860Y-108360055D01*
X140627636Y-108443950D01*
X140608197Y-108512233D01*
X140600561Y-108568647D01*
X140600598Y-108573147D01*
X140600598Y-108573150D01*
X140621004Y-111042257D01*
X140627977Y-111886036D01*
X140648476Y-114366269D01*
X140648636Y-114385688D01*
X140629197Y-114453971D01*
X140597607Y-114488001D01*
X140329518Y-114686456D01*
X136967433Y-117175272D01*
X136900781Y-117199725D01*
X136892466Y-117200000D01*
X131260870Y-117200000D01*
X127658739Y-115295425D01*
X128998000Y-115295425D01*
X130313516Y-115990985D01*
X130500000Y-115990985D01*
X130998000Y-115990985D01*
X132500000Y-115990985D01*
X132998000Y-115990985D01*
X134500000Y-115990985D01*
X134998000Y-115990985D01*
X136500000Y-115990985D01*
X136998000Y-115990985D01*
X137624724Y-115990985D01*
X138500000Y-115348105D01*
X138500000Y-114488985D01*
X136998000Y-114488985D01*
X136998000Y-115990985D01*
X136500000Y-115990985D01*
X136500000Y-114488985D01*
X134998000Y-114488985D01*
X134998000Y-115990985D01*
X134500000Y-115990985D01*
X134500000Y-114488985D01*
X132998000Y-114488985D01*
X132998000Y-115990985D01*
X132500000Y-115990985D01*
X132500000Y-114488985D01*
X130998000Y-114488985D01*
X130998000Y-115990985D01*
X130500000Y-115990985D01*
X130500000Y-114488985D01*
X128998000Y-114488985D01*
X128998000Y-115295425D01*
X127658739Y-115295425D01*
X125191646Y-113990985D01*
X126998000Y-113990985D01*
X128500000Y-113990985D01*
X128998000Y-113990985D01*
X130500000Y-113990985D01*
X130998000Y-113990985D01*
X132500000Y-113990985D01*
X132998000Y-113990985D01*
X134500000Y-113990985D01*
X134998000Y-113990985D01*
X136500000Y-113990985D01*
X136998000Y-113990985D01*
X138500000Y-113990985D01*
X138998000Y-113990985D01*
X140098658Y-113990985D01*
X140098658Y-112488985D01*
X138998000Y-112488985D01*
X138998000Y-113990985D01*
X138500000Y-113990985D01*
X138500000Y-112488985D01*
X136998000Y-112488985D01*
X136998000Y-113990985D01*
X136500000Y-113990985D01*
X136500000Y-112488985D01*
X134998000Y-112488985D01*
X134998000Y-113990985D01*
X134500000Y-113990985D01*
X134500000Y-112488985D01*
X132998000Y-112488985D01*
X132998000Y-113990985D01*
X132500000Y-113990985D01*
X132500000Y-112488985D01*
X130998000Y-112488985D01*
X130998000Y-113990985D01*
X130500000Y-113990985D01*
X130500000Y-112488985D01*
X128998000Y-112488985D01*
X128998000Y-113990985D01*
X128500000Y-113990985D01*
X128500000Y-112488985D01*
X126998000Y-112488985D01*
X126998000Y-113990985D01*
X125191646Y-113990985D01*
X123658738Y-113180482D01*
X124998000Y-113180482D01*
X126500000Y-113974643D01*
X126500000Y-112488985D01*
X124998000Y-112488985D01*
X124998000Y-113180482D01*
X123658738Y-113180482D01*
X121409037Y-111990985D01*
X122998000Y-111990985D01*
X124500000Y-111990985D01*
X124998000Y-111990985D01*
X126500000Y-111990985D01*
X126998000Y-111990985D01*
X128500000Y-111990985D01*
X128998000Y-111990985D01*
X130500000Y-111990985D01*
X130998000Y-111990985D01*
X132500000Y-111990985D01*
X132998000Y-111990985D01*
X134500000Y-111990985D01*
X134998000Y-111990985D01*
X136500000Y-111990985D01*
X136998000Y-111990985D01*
X138500000Y-111990985D01*
X138998000Y-111990985D01*
X140098658Y-111990985D01*
X140098658Y-110488985D01*
X138998000Y-110488985D01*
X138998000Y-111990985D01*
X138500000Y-111990985D01*
X138500000Y-110488985D01*
X136998000Y-110488985D01*
X136998000Y-111990985D01*
X136500000Y-111990985D01*
X136500000Y-110488985D01*
X134998000Y-110488985D01*
X134998000Y-111990985D01*
X134500000Y-111990985D01*
X134500000Y-110488985D01*
X132998000Y-110488985D01*
X132998000Y-111990985D01*
X132500000Y-111990985D01*
X132500000Y-110488985D01*
X130998000Y-110488985D01*
X130998000Y-111990985D01*
X130500000Y-111990985D01*
X130500000Y-110488985D01*
X128998000Y-110488985D01*
X128998000Y-111990985D01*
X128500000Y-111990985D01*
X128500000Y-110488985D01*
X126998000Y-110488985D01*
X126998000Y-111990985D01*
X126500000Y-111990985D01*
X126500000Y-110488985D01*
X124998000Y-110488985D01*
X124998000Y-111990985D01*
X124500000Y-111990985D01*
X124500000Y-110488985D01*
X122998000Y-110488985D01*
X122998000Y-111990985D01*
X121409037Y-111990985D01*
X119658739Y-111065540D01*
X120998000Y-111065540D01*
X122500000Y-111859700D01*
X122500000Y-110488985D01*
X120998000Y-110488985D01*
X120998000Y-111065540D01*
X119658739Y-111065540D01*
X117626428Y-109990985D01*
X118998000Y-109990985D01*
X120500000Y-109990985D01*
X120998000Y-109990985D01*
X122500000Y-109990985D01*
X122998000Y-109990985D01*
X124500000Y-109990985D01*
X124998000Y-109990985D01*
X126500000Y-109990985D01*
X126998000Y-109990985D01*
X128500000Y-109990985D01*
X128998000Y-109990985D01*
X130500000Y-109990985D01*
X130998000Y-109990985D01*
X132500000Y-109990985D01*
X132998000Y-109990985D01*
X134500000Y-109990985D01*
X134998000Y-109990985D01*
X136500000Y-109990985D01*
X136998000Y-109990985D01*
X138500000Y-109990985D01*
X138998000Y-109990985D01*
X140098658Y-109990985D01*
X140098658Y-108490830D01*
X140098741Y-108488985D01*
X138998000Y-108488985D01*
X138998000Y-109990985D01*
X138500000Y-109990985D01*
X138500000Y-108488985D01*
X136998000Y-108488985D01*
X136998000Y-109990985D01*
X136500000Y-109990985D01*
X136500000Y-108488985D01*
X134998000Y-108488985D01*
X134998000Y-109990985D01*
X134500000Y-109990985D01*
X134500000Y-108488985D01*
X132998000Y-108488985D01*
X132998000Y-109990985D01*
X132500000Y-109990985D01*
X132500000Y-108488985D01*
X130998000Y-108488985D01*
X130998000Y-109990985D01*
X130500000Y-109990985D01*
X130500000Y-108488985D01*
X128998000Y-108488985D01*
X128998000Y-109990985D01*
X128500000Y-109990985D01*
X128500000Y-108488985D01*
X126998000Y-108488985D01*
X126998000Y-109990985D01*
X126500000Y-109990985D01*
X126500000Y-108488985D01*
X124998000Y-108488985D01*
X124998000Y-109990985D01*
X124500000Y-109990985D01*
X124500000Y-108488985D01*
X122998000Y-108488985D01*
X122998000Y-109990985D01*
X122500000Y-109990985D01*
X122500000Y-108488985D01*
X120998000Y-108488985D01*
X120998000Y-109990985D01*
X120500000Y-109990985D01*
X120500000Y-108488985D01*
X118998000Y-108488985D01*
X118998000Y-109990985D01*
X117626428Y-109990985D01*
X115658738Y-108950597D01*
X116998000Y-108950597D01*
X118500000Y-109744758D01*
X118500000Y-108488985D01*
X116998000Y-108488985D01*
X116998000Y-108950597D01*
X115658738Y-108950597D01*
X113658739Y-107893126D01*
X114998000Y-107893126D01*
X115183081Y-107990985D01*
X116500000Y-107990985D01*
X116998000Y-107990985D01*
X118500000Y-107990985D01*
X118998000Y-107990985D01*
X120500000Y-107990985D01*
X120998000Y-107990985D01*
X122500000Y-107990985D01*
X122998000Y-107990985D01*
X124500000Y-107990985D01*
X124998000Y-107990985D01*
X126500000Y-107990985D01*
X126998000Y-107990985D01*
X128500000Y-107990985D01*
X128998000Y-107990985D01*
X130500000Y-107990985D01*
X130998000Y-107990985D01*
X132500000Y-107990985D01*
X132998000Y-107990985D01*
X134500000Y-107990985D01*
X134998000Y-107990985D01*
X136500000Y-107990985D01*
X136998000Y-107990985D01*
X138500000Y-107990985D01*
X138998000Y-107990985D01*
X140339880Y-107990985D01*
X140352208Y-107978170D01*
X140354448Y-107975899D01*
X140363322Y-107967130D01*
X140365627Y-107964909D01*
X140374950Y-107956153D01*
X140377316Y-107953988D01*
X140386645Y-107945663D01*
X140389057Y-107943564D01*
X140419989Y-107917340D01*
X140422459Y-107915300D01*
X140432198Y-107907460D01*
X140434717Y-107905484D01*
X140444881Y-107897719D01*
X140447438Y-107895817D01*
X140457542Y-107888495D01*
X140460160Y-107886647D01*
X140500000Y-107859294D01*
X140500000Y-107517385D01*
X140998000Y-107517385D01*
X142495886Y-106488985D01*
X140998000Y-106488985D01*
X140998000Y-107517385D01*
X140500000Y-107517385D01*
X140500000Y-106488985D01*
X138998000Y-106488985D01*
X138998000Y-107990985D01*
X138500000Y-107990985D01*
X138500000Y-106488985D01*
X136998000Y-106488985D01*
X136998000Y-107990985D01*
X136500000Y-107990985D01*
X136500000Y-106488985D01*
X134998000Y-106488985D01*
X134998000Y-107990985D01*
X134500000Y-107990985D01*
X134500000Y-106488985D01*
X132998000Y-106488985D01*
X132998000Y-107990985D01*
X132500000Y-107990985D01*
X132500000Y-106488985D01*
X130998000Y-106488985D01*
X130998000Y-107990985D01*
X130500000Y-107990985D01*
X130500000Y-106488985D01*
X128998000Y-106488985D01*
X128998000Y-107990985D01*
X128500000Y-107990985D01*
X128500000Y-106488985D01*
X126998000Y-106488985D01*
X126998000Y-107990985D01*
X126500000Y-107990985D01*
X126500000Y-106488985D01*
X124998000Y-106488985D01*
X124998000Y-107990985D01*
X124500000Y-107990985D01*
X124500000Y-106488985D01*
X122998000Y-106488985D01*
X122998000Y-107990985D01*
X122500000Y-107990985D01*
X122500000Y-106488985D01*
X120998000Y-106488985D01*
X120998000Y-107990985D01*
X120500000Y-107990985D01*
X120500000Y-106488985D01*
X118998000Y-106488985D01*
X118998000Y-107990985D01*
X118500000Y-107990985D01*
X118500000Y-106488985D01*
X116998000Y-106488985D01*
X116998000Y-107990985D01*
X116500000Y-107990985D01*
X116500000Y-106488985D01*
X114998000Y-106488985D01*
X114998000Y-107893126D01*
X113658739Y-107893126D01*
X111658739Y-106835655D01*
X112998000Y-106835655D01*
X114500000Y-107629815D01*
X114500000Y-106488985D01*
X112998000Y-106488985D01*
X112998000Y-106835655D01*
X111658739Y-106835655D01*
X109658738Y-105778183D01*
X110998000Y-105778183D01*
X111400473Y-105990985D01*
X112500000Y-105990985D01*
X112998000Y-105990985D01*
X114500000Y-105990985D01*
X114998000Y-105990985D01*
X116500000Y-105990985D01*
X116998000Y-105990985D01*
X118500000Y-105990985D01*
X118998000Y-105990985D01*
X120500000Y-105990985D01*
X120998000Y-105990985D01*
X122500000Y-105990985D01*
X122998000Y-105990985D01*
X124500000Y-105990985D01*
X124998000Y-105990985D01*
X126500000Y-105990985D01*
X126998000Y-105990985D01*
X128500000Y-105990985D01*
X128998000Y-105990985D01*
X130500000Y-105990985D01*
X130998000Y-105990985D01*
X132500000Y-105990985D01*
X132998000Y-105990985D01*
X134500000Y-105990985D01*
X134998000Y-105990985D01*
X136500000Y-105990985D01*
X136998000Y-105990985D01*
X138500000Y-105990985D01*
X138998000Y-105990985D01*
X140500000Y-105990985D01*
X140998000Y-105990985D01*
X142500000Y-105990985D01*
X142998000Y-105990985D01*
X143221232Y-105990985D01*
X143348658Y-105903498D01*
X143348658Y-104488985D01*
X142998000Y-104488985D01*
X142998000Y-105990985D01*
X142500000Y-105990985D01*
X142500000Y-104488985D01*
X140998000Y-104488985D01*
X140998000Y-105990985D01*
X140500000Y-105990985D01*
X140500000Y-104488985D01*
X138998000Y-104488985D01*
X138998000Y-105990985D01*
X138500000Y-105990985D01*
X138500000Y-104488985D01*
X136998000Y-104488985D01*
X136998000Y-105990985D01*
X136500000Y-105990985D01*
X136500000Y-104488985D01*
X134998000Y-104488985D01*
X134998000Y-105990985D01*
X134500000Y-105990985D01*
X134500000Y-104488985D01*
X132998000Y-104488985D01*
X132998000Y-105990985D01*
X132500000Y-105990985D01*
X132500000Y-104488985D01*
X130998000Y-104488985D01*
X130998000Y-105990985D01*
X130500000Y-105990985D01*
X130500000Y-104488985D01*
X128998000Y-104488985D01*
X128998000Y-105990985D01*
X128500000Y-105990985D01*
X128500000Y-104488985D01*
X126998000Y-104488985D01*
X126998000Y-105990985D01*
X126500000Y-105990985D01*
X126500000Y-104488985D01*
X124998000Y-104488985D01*
X124998000Y-105990985D01*
X124500000Y-105990985D01*
X124500000Y-104488985D01*
X122998000Y-104488985D01*
X122998000Y-105990985D01*
X122500000Y-105990985D01*
X122500000Y-104488985D01*
X120998000Y-104488985D01*
X120998000Y-105990985D01*
X120500000Y-105990985D01*
X120500000Y-104488985D01*
X118998000Y-104488985D01*
X118998000Y-105990985D01*
X118500000Y-105990985D01*
X118500000Y-104488985D01*
X116998000Y-104488985D01*
X116998000Y-105990985D01*
X116500000Y-105990985D01*
X116500000Y-104488985D01*
X114998000Y-104488985D01*
X114998000Y-105990985D01*
X114500000Y-105990985D01*
X114500000Y-104488985D01*
X112998000Y-104488985D01*
X112998000Y-105990985D01*
X112500000Y-105990985D01*
X112500000Y-104488985D01*
X110998000Y-104488985D01*
X110998000Y-105778183D01*
X109658738Y-105778183D01*
X107658738Y-104720712D01*
X108998000Y-104720712D01*
X110500000Y-105514872D01*
X110500000Y-104488985D01*
X108998000Y-104488985D01*
X108998000Y-104720712D01*
X107658738Y-104720712D01*
X105658739Y-103663241D01*
X106998000Y-103663241D01*
X107617864Y-103990985D01*
X108500000Y-103990985D01*
X108998000Y-103990985D01*
X110500000Y-103990985D01*
X110998000Y-103990985D01*
X112500000Y-103990985D01*
X112998000Y-103990985D01*
X114500000Y-103990985D01*
X114998000Y-103990985D01*
X116500000Y-103990985D01*
X116998000Y-103990985D01*
X118500000Y-103990985D01*
X118998000Y-103990985D01*
X120500000Y-103990985D01*
X120998000Y-103990985D01*
X122500000Y-103990985D01*
X122998000Y-103990985D01*
X124500000Y-103990985D01*
X124998000Y-103990985D01*
X126500000Y-103990985D01*
X126998000Y-103990985D01*
X128500000Y-103990985D01*
X128998000Y-103990985D01*
X130500000Y-103990985D01*
X130998000Y-103990985D01*
X132500000Y-103990985D01*
X132998000Y-103990985D01*
X134500000Y-103990985D01*
X134998000Y-103990985D01*
X136500000Y-103990985D01*
X136998000Y-103990985D01*
X138500000Y-103990985D01*
X138998000Y-103990985D01*
X140500000Y-103990985D01*
X140500000Y-103129668D01*
X140998000Y-103129668D01*
X140998000Y-103990985D01*
X142500000Y-103990985D01*
X142500000Y-103921262D01*
X140998000Y-103129668D01*
X140500000Y-103129668D01*
X140500000Y-102867208D01*
X139782345Y-102488985D01*
X138998000Y-102488985D01*
X138998000Y-103990985D01*
X138500000Y-103990985D01*
X138500000Y-102488985D01*
X136998000Y-102488985D01*
X136998000Y-103990985D01*
X136500000Y-103990985D01*
X136500000Y-102488985D01*
X134998000Y-102488985D01*
X134998000Y-103990985D01*
X134500000Y-103990985D01*
X134500000Y-102488985D01*
X132998000Y-102488985D01*
X132998000Y-103990985D01*
X132500000Y-103990985D01*
X132500000Y-102488985D01*
X130998000Y-102488985D01*
X130998000Y-103990985D01*
X130500000Y-103990985D01*
X130500000Y-102488985D01*
X128998000Y-102488985D01*
X128998000Y-103990985D01*
X128500000Y-103990985D01*
X128500000Y-102488985D01*
X126998000Y-102488985D01*
X126998000Y-103990985D01*
X126500000Y-103990985D01*
X126500000Y-102488985D01*
X124998000Y-102488985D01*
X124998000Y-103990985D01*
X124500000Y-103990985D01*
X124500000Y-102488985D01*
X122998000Y-102488985D01*
X122998000Y-103990985D01*
X122500000Y-103990985D01*
X122500000Y-102488985D01*
X120998000Y-102488985D01*
X120998000Y-103990985D01*
X120500000Y-103990985D01*
X120500000Y-102488985D01*
X118998000Y-102488985D01*
X118998000Y-103990985D01*
X118500000Y-103990985D01*
X118500000Y-102488985D01*
X116998000Y-102488985D01*
X116998000Y-103990985D01*
X116500000Y-103990985D01*
X116500000Y-102488985D01*
X114998000Y-102488985D01*
X114998000Y-103990985D01*
X114500000Y-103990985D01*
X114500000Y-102488985D01*
X112998000Y-102488985D01*
X112998000Y-103990985D01*
X112500000Y-103990985D01*
X112500000Y-102488985D01*
X110998000Y-102488985D01*
X110998000Y-103990985D01*
X110500000Y-103990985D01*
X110500000Y-102488985D01*
X108998000Y-102488985D01*
X108998000Y-103990985D01*
X108500000Y-103990985D01*
X108500000Y-102488985D01*
X106998000Y-102488985D01*
X106998000Y-103663241D01*
X105658739Y-103663241D01*
X103658739Y-102605770D01*
X104998000Y-102605770D01*
X106500000Y-103399930D01*
X106500000Y-102488985D01*
X104998000Y-102488985D01*
X104998000Y-102605770D01*
X103658739Y-102605770D01*
X101658738Y-101548298D01*
X102998000Y-101548298D01*
X103835255Y-101990985D01*
X104500000Y-101990985D01*
X104998000Y-101990985D01*
X106500000Y-101990985D01*
X106998000Y-101990985D01*
X108500000Y-101990985D01*
X108998000Y-101990985D01*
X110500000Y-101990985D01*
X110998000Y-101990985D01*
X112500000Y-101990985D01*
X112998000Y-101990985D01*
X114500000Y-101990985D01*
X114998000Y-101990985D01*
X116500000Y-101990985D01*
X116998000Y-101990985D01*
X118500000Y-101990985D01*
X118998000Y-101990985D01*
X120500000Y-101990985D01*
X120998000Y-101990985D01*
X122500000Y-101990985D01*
X122998000Y-101990985D01*
X124500000Y-101990985D01*
X124998000Y-101990985D01*
X126500000Y-101990985D01*
X126998000Y-101990985D01*
X128500000Y-101990985D01*
X128998000Y-101990985D01*
X130500000Y-101990985D01*
X130998000Y-101990985D01*
X132500000Y-101990985D01*
X132998000Y-101990985D01*
X134500000Y-101990985D01*
X134998000Y-101990985D01*
X136500000Y-101990985D01*
X136500000Y-101021560D01*
X136998000Y-101021560D01*
X136998000Y-101990985D01*
X138500000Y-101990985D01*
X138500000Y-101813154D01*
X136998000Y-101021560D01*
X136500000Y-101021560D01*
X136500000Y-100759100D01*
X135987473Y-100488985D01*
X134998000Y-100488985D01*
X134998000Y-101990985D01*
X134500000Y-101990985D01*
X134500000Y-100488985D01*
X132998000Y-100488985D01*
X132998000Y-101990985D01*
X132500000Y-101990985D01*
X132500000Y-100488985D01*
X130998000Y-100488985D01*
X130998000Y-101990985D01*
X130500000Y-101990985D01*
X130500000Y-100488985D01*
X128998000Y-100488985D01*
X128998000Y-101990985D01*
X128500000Y-101990985D01*
X128500000Y-100488985D01*
X126998000Y-100488985D01*
X126998000Y-101990985D01*
X126500000Y-101990985D01*
X126500000Y-100488985D01*
X124998000Y-100488985D01*
X124998000Y-101990985D01*
X124500000Y-101990985D01*
X124500000Y-100488985D01*
X122998000Y-100488985D01*
X122998000Y-101990985D01*
X122500000Y-101990985D01*
X122500000Y-100488985D01*
X120998000Y-100488985D01*
X120998000Y-101990985D01*
X120500000Y-101990985D01*
X120500000Y-100488985D01*
X118998000Y-100488985D01*
X118998000Y-101990985D01*
X118500000Y-101990985D01*
X118500000Y-100488985D01*
X116998000Y-100488985D01*
X116998000Y-101990985D01*
X116500000Y-101990985D01*
X116500000Y-100488985D01*
X114998000Y-100488985D01*
X114998000Y-101990985D01*
X114500000Y-101990985D01*
X114500000Y-100488985D01*
X112998000Y-100488985D01*
X112998000Y-101990985D01*
X112500000Y-101990985D01*
X112500000Y-100488985D01*
X110998000Y-100488985D01*
X110998000Y-101990985D01*
X110500000Y-101990985D01*
X110500000Y-100488985D01*
X108998000Y-100488985D01*
X108998000Y-101990985D01*
X108500000Y-101990985D01*
X108500000Y-100488985D01*
X106998000Y-100488985D01*
X106998000Y-101990985D01*
X106500000Y-101990985D01*
X106500000Y-100488985D01*
X104998000Y-100488985D01*
X104998000Y-101990985D01*
X104500000Y-101990985D01*
X104500000Y-100488985D01*
X102998000Y-100488985D01*
X102998000Y-101548298D01*
X101658738Y-101548298D01*
X101000000Y-101200000D01*
X101000000Y-100822873D01*
X101626000Y-100822873D01*
X102500000Y-101284987D01*
X102500000Y-100488985D01*
X101626000Y-100488985D01*
X101626000Y-100822873D01*
X101000000Y-100822873D01*
X101000000Y-99990985D01*
X101626000Y-99990985D01*
X102500000Y-99990985D01*
X102998000Y-99990985D01*
X104500000Y-99990985D01*
X104998000Y-99990985D01*
X106500000Y-99990985D01*
X106998000Y-99990985D01*
X108500000Y-99990985D01*
X108998000Y-99990985D01*
X110500000Y-99990985D01*
X110998000Y-99990985D01*
X112500000Y-99990985D01*
X112998000Y-99990985D01*
X114500000Y-99990985D01*
X114998000Y-99990985D01*
X116500000Y-99990985D01*
X116998000Y-99990985D01*
X118500000Y-99990985D01*
X118998000Y-99990985D01*
X120500000Y-99990985D01*
X120998000Y-99990985D01*
X122500000Y-99990985D01*
X122998000Y-99990985D01*
X124500000Y-99990985D01*
X124998000Y-99990985D01*
X126500000Y-99990985D01*
X126998000Y-99990985D01*
X128500000Y-99990985D01*
X128998000Y-99990985D01*
X130500000Y-99990985D01*
X130998000Y-99990985D01*
X132500000Y-99990985D01*
X132500000Y-98913452D01*
X132998000Y-98913452D01*
X132998000Y-99990985D01*
X134500000Y-99990985D01*
X134500000Y-99705046D01*
X132998000Y-98913452D01*
X132500000Y-98913452D01*
X132500000Y-98650992D01*
X132192601Y-98488985D01*
X130998000Y-98488985D01*
X130998000Y-99990985D01*
X130500000Y-99990985D01*
X130500000Y-98488985D01*
X128998000Y-98488985D01*
X128998000Y-99990985D01*
X128500000Y-99990985D01*
X128500000Y-98488985D01*
X126998000Y-98488985D01*
X126998000Y-99990985D01*
X126500000Y-99990985D01*
X126500000Y-98488985D01*
X124998000Y-98488985D01*
X124998000Y-99990985D01*
X124500000Y-99990985D01*
X124500000Y-98488985D01*
X122998000Y-98488985D01*
X122998000Y-99990985D01*
X122500000Y-99990985D01*
X122500000Y-98488985D01*
X120998000Y-98488985D01*
X120998000Y-99990985D01*
X120500000Y-99990985D01*
X120500000Y-98488985D01*
X118998000Y-98488985D01*
X118998000Y-99990985D01*
X118500000Y-99990985D01*
X118500000Y-98488985D01*
X116998000Y-98488985D01*
X116998000Y-99990985D01*
X116500000Y-99990985D01*
X116500000Y-98488985D01*
X114998000Y-98488985D01*
X114998000Y-99990985D01*
X114500000Y-99990985D01*
X114500000Y-98488985D01*
X112998000Y-98488985D01*
X112998000Y-99990985D01*
X112500000Y-99990985D01*
X112500000Y-98488985D01*
X110998000Y-98488985D01*
X110998000Y-99990985D01*
X110500000Y-99990985D01*
X110500000Y-98488985D01*
X108998000Y-98488985D01*
X108998000Y-99990985D01*
X108500000Y-99990985D01*
X108500000Y-98488985D01*
X106998000Y-98488985D01*
X106998000Y-99990985D01*
X106500000Y-99990985D01*
X106500000Y-98488985D01*
X104998000Y-98488985D01*
X104998000Y-99990985D01*
X104500000Y-99990985D01*
X104500000Y-98488985D01*
X102998000Y-98488985D01*
X102998000Y-99990985D01*
X102500000Y-99990985D01*
X102500000Y-98488985D01*
X101626000Y-98488985D01*
X101626000Y-99990985D01*
X101000000Y-99990985D01*
X101000000Y-97990985D01*
X101626000Y-97990985D01*
X102500000Y-97990985D01*
X102998000Y-97990985D01*
X104500000Y-97990985D01*
X104998000Y-97990985D01*
X106500000Y-97990985D01*
X106998000Y-97990985D01*
X108500000Y-97990985D01*
X108998000Y-97990985D01*
X110500000Y-97990985D01*
X110998000Y-97990985D01*
X112500000Y-97990985D01*
X112998000Y-97990985D01*
X114500000Y-97990985D01*
X114998000Y-97990985D01*
X116500000Y-97990985D01*
X116998000Y-97990985D01*
X118500000Y-97990985D01*
X118998000Y-97990985D01*
X120500000Y-97990985D01*
X120998000Y-97990985D01*
X122500000Y-97990985D01*
X122998000Y-97990985D01*
X124500000Y-97990985D01*
X124998000Y-97990985D01*
X126500000Y-97990985D01*
X126998000Y-97990985D01*
X128500000Y-97990985D01*
X128500000Y-96805344D01*
X128998000Y-96805344D01*
X128998000Y-97990985D01*
X130500000Y-97990985D01*
X130500000Y-97596938D01*
X128998000Y-96805344D01*
X128500000Y-96805344D01*
X128500000Y-96542884D01*
X128397729Y-96488985D01*
X126998000Y-96488985D01*
X126998000Y-97990985D01*
X126500000Y-97990985D01*
X126500000Y-96488985D01*
X124998000Y-96488985D01*
X124998000Y-97990985D01*
X124500000Y-97990985D01*
X124500000Y-96488985D01*
X122998000Y-96488985D01*
X122998000Y-97990985D01*
X122500000Y-97990985D01*
X122500000Y-96488985D01*
X120998000Y-96488985D01*
X120998000Y-97990985D01*
X120500000Y-97990985D01*
X120500000Y-96488985D01*
X118998000Y-96488985D01*
X118998000Y-97990985D01*
X118500000Y-97990985D01*
X118500000Y-96488985D01*
X116998000Y-96488985D01*
X116998000Y-97990985D01*
X116500000Y-97990985D01*
X116500000Y-96488985D01*
X114998000Y-96488985D01*
X114998000Y-97990985D01*
X114500000Y-97990985D01*
X114500000Y-96488985D01*
X112998000Y-96488985D01*
X112998000Y-97990985D01*
X112500000Y-97990985D01*
X112500000Y-96488985D01*
X110998000Y-96488985D01*
X110998000Y-97990985D01*
X110500000Y-97990985D01*
X110500000Y-96488985D01*
X108998000Y-96488985D01*
X108998000Y-97990985D01*
X108500000Y-97990985D01*
X108500000Y-96488985D01*
X106998000Y-96488985D01*
X106998000Y-97990985D01*
X106500000Y-97990985D01*
X106500000Y-96488985D01*
X104998000Y-96488985D01*
X104998000Y-97990985D01*
X104500000Y-97990985D01*
X104500000Y-96488985D01*
X102998000Y-96488985D01*
X102998000Y-97990985D01*
X102500000Y-97990985D01*
X102500000Y-96488985D01*
X102221587Y-96488985D01*
X101626000Y-96919793D01*
X101626000Y-97990985D01*
X101000000Y-97990985D01*
X101000000Y-96600000D01*
X101841956Y-95990985D01*
X102998000Y-95990985D01*
X104500000Y-95990985D01*
X104998000Y-95990985D01*
X106500000Y-95990985D01*
X106998000Y-95990985D01*
X108500000Y-95990985D01*
X108998000Y-95990985D01*
X110500000Y-95990985D01*
X110998000Y-95990985D01*
X112500000Y-95990985D01*
X112998000Y-95990985D01*
X114500000Y-95990985D01*
X114998000Y-95990985D01*
X116500000Y-95990985D01*
X116998000Y-95990985D01*
X118500000Y-95990985D01*
X118998000Y-95990985D01*
X120500000Y-95990985D01*
X120998000Y-95990985D01*
X122500000Y-95990985D01*
X122998000Y-95990985D01*
X124500000Y-95990985D01*
X124500000Y-94697236D01*
X124998000Y-94697236D01*
X124998000Y-95990985D01*
X126500000Y-95990985D01*
X126500000Y-95488830D01*
X124998000Y-94697236D01*
X124500000Y-94697236D01*
X124500000Y-94488985D01*
X122998000Y-94488985D01*
X122998000Y-95990985D01*
X122500000Y-95990985D01*
X122500000Y-94488985D01*
X120998000Y-94488985D01*
X120998000Y-95990985D01*
X120500000Y-95990985D01*
X120500000Y-94488985D01*
X118998000Y-94488985D01*
X118998000Y-95990985D01*
X118500000Y-95990985D01*
X118500000Y-94488985D01*
X116998000Y-94488985D01*
X116998000Y-95990985D01*
X116500000Y-95990985D01*
X116500000Y-94488985D01*
X114998000Y-94488985D01*
X114998000Y-95990985D01*
X114500000Y-95990985D01*
X114500000Y-94488985D01*
X112998000Y-94488985D01*
X112998000Y-95990985D01*
X112500000Y-95990985D01*
X112500000Y-94488985D01*
X110998000Y-94488985D01*
X110998000Y-95990985D01*
X110500000Y-95990985D01*
X110500000Y-94488985D01*
X108998000Y-94488985D01*
X108998000Y-95990985D01*
X108500000Y-95990985D01*
X108500000Y-94488985D01*
X106998000Y-94488985D01*
X106998000Y-95990985D01*
X106500000Y-95990985D01*
X106500000Y-94488985D01*
X104998000Y-94488985D01*
X104998000Y-95990985D01*
X104500000Y-95990985D01*
X104500000Y-94488985D01*
X103850658Y-94488985D01*
X103850658Y-94990830D01*
X103850259Y-95000847D01*
X103843938Y-95080103D01*
X103836457Y-95113945D01*
X103768548Y-95296834D01*
X103742773Y-95338698D01*
X103610044Y-95481679D01*
X103591545Y-95498048D01*
X102998000Y-95927379D01*
X102998000Y-95990985D01*
X101841956Y-95990985D01*
X103224658Y-94990830D01*
X103224658Y-93990985D01*
X103850658Y-93990985D01*
X104500000Y-93990985D01*
X104998000Y-93990985D01*
X106500000Y-93990985D01*
X106998000Y-93990985D01*
X108500000Y-93990985D01*
X108998000Y-93990985D01*
X110500000Y-93990985D01*
X110998000Y-93990985D01*
X112500000Y-93990985D01*
X112998000Y-93990985D01*
X114500000Y-93990985D01*
X114998000Y-93990985D01*
X116500000Y-93990985D01*
X116998000Y-93990985D01*
X118500000Y-93990985D01*
X118998000Y-93990985D01*
X120500000Y-93990985D01*
X120500000Y-92589128D01*
X120998000Y-92589128D01*
X120998000Y-93990985D01*
X122500000Y-93990985D01*
X122500000Y-93380722D01*
X120998000Y-92589128D01*
X120500000Y-92589128D01*
X120500000Y-92488985D01*
X118998000Y-92488985D01*
X118998000Y-93990985D01*
X118500000Y-93990985D01*
X118500000Y-92488985D01*
X116998000Y-92488985D01*
X116998000Y-93990985D01*
X116500000Y-93990985D01*
X116500000Y-92488985D01*
X114998000Y-92488985D01*
X114998000Y-93990985D01*
X114500000Y-93990985D01*
X114500000Y-92488985D01*
X112998000Y-92488985D01*
X112998000Y-93990985D01*
X112500000Y-93990985D01*
X112500000Y-92488985D01*
X110998000Y-92488985D01*
X110998000Y-93990985D01*
X110500000Y-93990985D01*
X110500000Y-92488985D01*
X108998000Y-92488985D01*
X108998000Y-93990985D01*
X108500000Y-93990985D01*
X108500000Y-92488985D01*
X106998000Y-92488985D01*
X106998000Y-93990985D01*
X106500000Y-93990985D01*
X106500000Y-92488985D01*
X104998000Y-92488985D01*
X104998000Y-93990985D01*
X104500000Y-93990985D01*
X104500000Y-92488985D01*
X103850658Y-92488985D01*
X103850658Y-93990985D01*
X103224658Y-93990985D01*
X103224658Y-91990985D01*
X103850658Y-91990985D01*
X104500000Y-91990985D01*
X104998000Y-91990985D01*
X106500000Y-91990985D01*
X106998000Y-91990985D01*
X108500000Y-91990985D01*
X108998000Y-91990985D01*
X110500000Y-91990985D01*
X110998000Y-91990985D01*
X112500000Y-91990985D01*
X112998000Y-91990985D01*
X114500000Y-91990985D01*
X114998000Y-91990985D01*
X116500000Y-91990985D01*
X116998000Y-91990985D01*
X118500000Y-91990985D01*
X118500000Y-91272614D01*
X117013113Y-90488985D01*
X116998000Y-90488985D01*
X116998000Y-91990985D01*
X116500000Y-91990985D01*
X116500000Y-90488985D01*
X114998000Y-90488985D01*
X114998000Y-91990985D01*
X114500000Y-91990985D01*
X114500000Y-90488985D01*
X112998000Y-90488985D01*
X112998000Y-91990985D01*
X112500000Y-91990985D01*
X112500000Y-90488985D01*
X110998000Y-90488985D01*
X110998000Y-91990985D01*
X110500000Y-91990985D01*
X110500000Y-90488985D01*
X108998000Y-90488985D01*
X108998000Y-91990985D01*
X108500000Y-91990985D01*
X108500000Y-90488985D01*
X106998000Y-90488985D01*
X106998000Y-91990985D01*
X106500000Y-91990985D01*
X106500000Y-90488985D01*
X104998000Y-90488985D01*
X104998000Y-91990985D01*
X104500000Y-91990985D01*
X104500000Y-90488985D01*
X103850658Y-90488985D01*
X103850658Y-91990985D01*
X103224658Y-91990985D01*
X103224658Y-89990985D01*
X103850658Y-89990985D01*
X104500000Y-89990985D01*
X104998000Y-89990985D01*
X106500000Y-89990985D01*
X106998000Y-89990985D01*
X108500000Y-89990985D01*
X108998000Y-89990985D01*
X110500000Y-89990985D01*
X110998000Y-89990985D01*
X112500000Y-89990985D01*
X112998000Y-89990985D01*
X114500000Y-89990985D01*
X114500000Y-89164506D01*
X113218242Y-88488985D01*
X112998000Y-88488985D01*
X112998000Y-89990985D01*
X112500000Y-89990985D01*
X112500000Y-88488985D01*
X110998000Y-88488985D01*
X110998000Y-89990985D01*
X110500000Y-89990985D01*
X110500000Y-88488985D01*
X108998000Y-88488985D01*
X108998000Y-89990985D01*
X108500000Y-89990985D01*
X108500000Y-88488985D01*
X106998000Y-88488985D01*
X106998000Y-89990985D01*
X106500000Y-89990985D01*
X106500000Y-88488985D01*
X104998000Y-88488985D01*
X104998000Y-89990985D01*
X104500000Y-89990985D01*
X104500000Y-88488985D01*
X104457731Y-88488985D01*
X103850658Y-89217473D01*
X103850658Y-89990985D01*
X103224658Y-89990985D01*
X103224658Y-88990830D01*
X104057862Y-87990985D01*
X104998000Y-87990985D01*
X106500000Y-87990985D01*
X106998000Y-87990985D01*
X108500000Y-87990985D01*
X108998000Y-87990985D01*
X110500000Y-87990985D01*
X110500000Y-87318857D01*
X110998000Y-87318857D01*
X110998000Y-87990985D01*
X112273319Y-87990985D01*
X110998000Y-87318857D01*
X110500000Y-87318857D01*
X110500000Y-87056398D01*
X109423370Y-86488985D01*
X108998000Y-86488985D01*
X108998000Y-87990985D01*
X108500000Y-87990985D01*
X108500000Y-86488985D01*
X106998000Y-86488985D01*
X106998000Y-87990985D01*
X106500000Y-87990985D01*
X106500000Y-86488985D01*
X106124398Y-86488985D01*
X104998000Y-87840663D01*
X104998000Y-87990985D01*
X104057862Y-87990985D01*
X105724529Y-85990985D01*
X106998000Y-85990985D01*
X108478446Y-85990985D01*
X107131127Y-85280911D01*
X106998000Y-85440663D01*
X106998000Y-85990985D01*
X105724529Y-85990985D01*
X106974658Y-84490830D01*
X143946525Y-103976003D01*
G37*
G04 #@! TD.AperFunction*
G04 #@! TA.AperFunction,Conductor*
G36*
X146036206Y-62754137D02*
G01*
X167934034Y-74200000D01*
X144100000Y-74200000D01*
X144144181Y-102475968D01*
X108097708Y-83226504D01*
X108047040Y-83176771D01*
X108031304Y-83107541D01*
X108055494Y-83040792D01*
X108067966Y-83026264D01*
X109109186Y-81985044D01*
X110914188Y-80180043D01*
X110946009Y-80156908D01*
X145053056Y-62753569D01*
X145110323Y-62739803D01*
X145977839Y-62739803D01*
X146036206Y-62754137D01*
G37*
G04 #@! TD.AperFunction*
G04 #@! TA.AperFunction,Conductor*
G36*
X184269161Y-84295987D02*
G01*
X184293641Y-84321432D01*
X187457769Y-88702532D01*
X187481522Y-88771268D01*
X187730004Y-94983319D01*
X189832785Y-96467635D01*
X191926666Y-97945669D01*
X191970784Y-98001294D01*
X191980004Y-98048607D01*
X191980004Y-100157145D01*
X191960002Y-100225266D01*
X191912554Y-100268715D01*
X169513413Y-112023204D01*
X160296367Y-116860071D01*
X160237818Y-116874500D01*
X153442106Y-116874500D01*
X153373985Y-116854498D01*
X153366227Y-116849090D01*
X151342506Y-115322521D01*
X152382004Y-115322521D01*
X153310875Y-116023204D01*
X153884004Y-116023204D01*
X154382004Y-116023204D01*
X155884004Y-116023204D01*
X156382004Y-116023204D01*
X157884004Y-116023204D01*
X158382004Y-116023204D01*
X159884004Y-116023204D01*
X160382004Y-116023204D01*
X160543915Y-116023204D01*
X161884004Y-115319960D01*
X161884004Y-114521204D01*
X160382004Y-114521204D01*
X160382004Y-116023204D01*
X159884004Y-116023204D01*
X159884004Y-114521204D01*
X158382004Y-114521204D01*
X158382004Y-116023204D01*
X157884004Y-116023204D01*
X157884004Y-114521204D01*
X156382004Y-114521204D01*
X156382004Y-116023204D01*
X155884004Y-116023204D01*
X155884004Y-114521204D01*
X154382004Y-114521204D01*
X154382004Y-116023204D01*
X153884004Y-116023204D01*
X153884004Y-114521204D01*
X152382004Y-114521204D01*
X152382004Y-115322521D01*
X151342506Y-115322521D01*
X150280125Y-114521127D01*
X150237787Y-114464136D01*
X150230004Y-114420537D01*
X150230004Y-114023204D01*
X150856004Y-114023204D01*
X151884004Y-114023204D01*
X152382004Y-114023204D01*
X153884004Y-114023204D01*
X154382004Y-114023204D01*
X155884004Y-114023204D01*
X156382004Y-114023204D01*
X157884004Y-114023204D01*
X158382004Y-114023204D01*
X159884004Y-114023204D01*
X160382004Y-114023204D01*
X161884004Y-114023204D01*
X162382004Y-114023204D01*
X163884004Y-114023204D01*
X163884004Y-114009073D01*
X164382004Y-114009073D01*
X165884004Y-113220863D01*
X165884004Y-112521204D01*
X164382004Y-112521204D01*
X164382004Y-114009073D01*
X163884004Y-114009073D01*
X163884004Y-112521204D01*
X162382004Y-112521204D01*
X162382004Y-114023204D01*
X161884004Y-114023204D01*
X161884004Y-112521204D01*
X160382004Y-112521204D01*
X160382004Y-114023204D01*
X159884004Y-114023204D01*
X159884004Y-112521204D01*
X158382004Y-112521204D01*
X158382004Y-114023204D01*
X157884004Y-114023204D01*
X157884004Y-112521204D01*
X156382004Y-112521204D01*
X156382004Y-114023204D01*
X155884004Y-114023204D01*
X155884004Y-112521204D01*
X154382004Y-112521204D01*
X154382004Y-114023204D01*
X153884004Y-114023204D01*
X153884004Y-112521204D01*
X152382004Y-112521204D01*
X152382004Y-114023204D01*
X151884004Y-114023204D01*
X151884004Y-112521204D01*
X150856004Y-112521204D01*
X150856004Y-114023204D01*
X150230004Y-114023204D01*
X150230004Y-112023204D01*
X150856004Y-112023204D01*
X151884004Y-112023204D01*
X152382004Y-112023204D01*
X153884004Y-112023204D01*
X154382004Y-112023204D01*
X155884004Y-112023204D01*
X156382004Y-112023204D01*
X157884004Y-112023204D01*
X158382004Y-112023204D01*
X159884004Y-112023204D01*
X160382004Y-112023204D01*
X161884004Y-112023204D01*
X162382004Y-112023204D01*
X163884004Y-112023204D01*
X164382004Y-112023204D01*
X165884004Y-112023204D01*
X166382004Y-112023204D01*
X167884004Y-112023204D01*
X167884004Y-111909977D01*
X168382004Y-111909977D01*
X169884004Y-111121767D01*
X169884004Y-110521204D01*
X168382004Y-110521204D01*
X168382004Y-111909977D01*
X167884004Y-111909977D01*
X167884004Y-110521204D01*
X166382004Y-110521204D01*
X166382004Y-112023204D01*
X165884004Y-112023204D01*
X165884004Y-110521204D01*
X164382004Y-110521204D01*
X164382004Y-112023204D01*
X163884004Y-112023204D01*
X163884004Y-110521204D01*
X162382004Y-110521204D01*
X162382004Y-112023204D01*
X161884004Y-112023204D01*
X161884004Y-110521204D01*
X160382004Y-110521204D01*
X160382004Y-112023204D01*
X159884004Y-112023204D01*
X159884004Y-110521204D01*
X158382004Y-110521204D01*
X158382004Y-112023204D01*
X157884004Y-112023204D01*
X157884004Y-110521204D01*
X156382004Y-110521204D01*
X156382004Y-112023204D01*
X155884004Y-112023204D01*
X155884004Y-110521204D01*
X154382004Y-110521204D01*
X154382004Y-112023204D01*
X153884004Y-112023204D01*
X153884004Y-110521204D01*
X152382004Y-110521204D01*
X152382004Y-112023204D01*
X151884004Y-112023204D01*
X151884004Y-110521204D01*
X150856004Y-110521204D01*
X150856004Y-112023204D01*
X150230004Y-112023204D01*
X150230004Y-110023204D01*
X150856004Y-110023204D01*
X151884004Y-110023204D01*
X152382004Y-110023204D01*
X153884004Y-110023204D01*
X154382004Y-110023204D01*
X155884004Y-110023204D01*
X156382004Y-110023204D01*
X157884004Y-110023204D01*
X158382004Y-110023204D01*
X159884004Y-110023204D01*
X160382004Y-110023204D01*
X161884004Y-110023204D01*
X162382004Y-110023204D01*
X163884004Y-110023204D01*
X164382004Y-110023204D01*
X165884004Y-110023204D01*
X166382004Y-110023204D01*
X167884004Y-110023204D01*
X168382004Y-110023204D01*
X169884004Y-110023204D01*
X170382004Y-110023204D01*
X171884004Y-110023204D01*
X171884004Y-109810880D01*
X172382004Y-109810880D01*
X173884004Y-109022670D01*
X173884004Y-108521204D01*
X172382004Y-108521204D01*
X172382004Y-109810880D01*
X171884004Y-109810880D01*
X171884004Y-108521204D01*
X170382004Y-108521204D01*
X170382004Y-110023204D01*
X169884004Y-110023204D01*
X169884004Y-108521204D01*
X168382004Y-108521204D01*
X168382004Y-110023204D01*
X167884004Y-110023204D01*
X167884004Y-108521204D01*
X166382004Y-108521204D01*
X166382004Y-110023204D01*
X165884004Y-110023204D01*
X165884004Y-108521204D01*
X164382004Y-108521204D01*
X164382004Y-110023204D01*
X163884004Y-110023204D01*
X163884004Y-108521204D01*
X162382004Y-108521204D01*
X162382004Y-110023204D01*
X161884004Y-110023204D01*
X161884004Y-108521204D01*
X160382004Y-108521204D01*
X160382004Y-110023204D01*
X159884004Y-110023204D01*
X159884004Y-108521204D01*
X158382004Y-108521204D01*
X158382004Y-110023204D01*
X157884004Y-110023204D01*
X157884004Y-108521204D01*
X156382004Y-108521204D01*
X156382004Y-110023204D01*
X155884004Y-110023204D01*
X155884004Y-108521204D01*
X154382004Y-108521204D01*
X154382004Y-110023204D01*
X153884004Y-110023204D01*
X153884004Y-108521204D01*
X152382004Y-108521204D01*
X152382004Y-110023204D01*
X151884004Y-110023204D01*
X151884004Y-108521204D01*
X150856004Y-108521204D01*
X150856004Y-110023204D01*
X150230004Y-110023204D01*
X150230004Y-108483319D01*
X149080814Y-107852666D01*
X150382004Y-107852666D01*
X150531171Y-107934526D01*
X150546168Y-107944198D01*
X150651476Y-108023204D01*
X151884004Y-108023204D01*
X152382004Y-108023204D01*
X153884004Y-108023204D01*
X154382004Y-108023204D01*
X155884004Y-108023204D01*
X156382004Y-108023204D01*
X157884004Y-108023204D01*
X158382004Y-108023204D01*
X159884004Y-108023204D01*
X160382004Y-108023204D01*
X161884004Y-108023204D01*
X162382004Y-108023204D01*
X163884004Y-108023204D01*
X164382004Y-108023204D01*
X165884004Y-108023204D01*
X166382004Y-108023204D01*
X167884004Y-108023204D01*
X168382004Y-108023204D01*
X169884004Y-108023204D01*
X170382004Y-108023204D01*
X171884004Y-108023204D01*
X172382004Y-108023204D01*
X173884004Y-108023204D01*
X174382004Y-108023204D01*
X175788568Y-108023204D01*
X175884004Y-107973122D01*
X175884004Y-107711784D01*
X176382004Y-107711784D01*
X177884004Y-106923574D01*
X177884004Y-106521204D01*
X176382004Y-106521204D01*
X176382004Y-107711784D01*
X175884004Y-107711784D01*
X175884004Y-106521204D01*
X174382004Y-106521204D01*
X174382004Y-108023204D01*
X173884004Y-108023204D01*
X173884004Y-106521204D01*
X172382004Y-106521204D01*
X172382004Y-108023204D01*
X171884004Y-108023204D01*
X171884004Y-106521204D01*
X170382004Y-106521204D01*
X170382004Y-108023204D01*
X169884004Y-108023204D01*
X169884004Y-106521204D01*
X168382004Y-106521204D01*
X168382004Y-108023204D01*
X167884004Y-108023204D01*
X167884004Y-106521204D01*
X166382004Y-106521204D01*
X166382004Y-108023204D01*
X165884004Y-108023204D01*
X165884004Y-106521204D01*
X164382004Y-106521204D01*
X164382004Y-108023204D01*
X163884004Y-108023204D01*
X163884004Y-106521204D01*
X162382004Y-106521204D01*
X162382004Y-108023204D01*
X161884004Y-108023204D01*
X161884004Y-106521204D01*
X160382004Y-106521204D01*
X160382004Y-108023204D01*
X159884004Y-108023204D01*
X159884004Y-106521204D01*
X158382004Y-106521204D01*
X158382004Y-108023204D01*
X157884004Y-108023204D01*
X157884004Y-106521204D01*
X156382004Y-106521204D01*
X156382004Y-108023204D01*
X155884004Y-108023204D01*
X155884004Y-106521204D01*
X154382004Y-106521204D01*
X154382004Y-108023204D01*
X153884004Y-108023204D01*
X153884004Y-106521204D01*
X152382004Y-106521204D01*
X152382004Y-108023204D01*
X151884004Y-108023204D01*
X151884004Y-106521204D01*
X150382004Y-106521204D01*
X150382004Y-107852666D01*
X149080814Y-107852666D01*
X148824096Y-107711784D01*
X147080815Y-106755105D01*
X148382004Y-106755105D01*
X149884004Y-107579374D01*
X149884004Y-106521204D01*
X148382004Y-106521204D01*
X148382004Y-106755105D01*
X147080815Y-106755105D01*
X146195386Y-106269199D01*
X146145289Y-106218891D01*
X146130004Y-106158739D01*
X146130004Y-105862788D01*
X146756004Y-105862788D01*
X147048317Y-106023204D01*
X147884004Y-106023204D01*
X148382004Y-106023204D01*
X149884004Y-106023204D01*
X150382004Y-106023204D01*
X151884004Y-106023204D01*
X152382004Y-106023204D01*
X153884004Y-106023204D01*
X154382004Y-106023204D01*
X155884004Y-106023204D01*
X156382004Y-106023204D01*
X157884004Y-106023204D01*
X158382004Y-106023204D01*
X159884004Y-106023204D01*
X160382004Y-106023204D01*
X161884004Y-106023204D01*
X162382004Y-106023204D01*
X163884004Y-106023204D01*
X164382004Y-106023204D01*
X165884004Y-106023204D01*
X166382004Y-106023204D01*
X167884004Y-106023204D01*
X168382004Y-106023204D01*
X169884004Y-106023204D01*
X170382004Y-106023204D01*
X171884004Y-106023204D01*
X172382004Y-106023204D01*
X173884004Y-106023204D01*
X174382004Y-106023204D01*
X175884004Y-106023204D01*
X176382004Y-106023204D01*
X177884004Y-106023204D01*
X178382004Y-106023204D01*
X179599732Y-106023204D01*
X179884004Y-105874025D01*
X179884004Y-105612688D01*
X180382004Y-105612688D01*
X181884004Y-104824478D01*
X181884004Y-104521204D01*
X180382004Y-104521204D01*
X180382004Y-105612688D01*
X179884004Y-105612688D01*
X179884004Y-104521204D01*
X178382004Y-104521204D01*
X178382004Y-106023204D01*
X177884004Y-106023204D01*
X177884004Y-104521204D01*
X176382004Y-104521204D01*
X176382004Y-106023204D01*
X175884004Y-106023204D01*
X175884004Y-104521204D01*
X174382004Y-104521204D01*
X174382004Y-106023204D01*
X173884004Y-106023204D01*
X173884004Y-104521204D01*
X172382004Y-104521204D01*
X172382004Y-106023204D01*
X171884004Y-106023204D01*
X171884004Y-104521204D01*
X170382004Y-104521204D01*
X170382004Y-106023204D01*
X169884004Y-106023204D01*
X169884004Y-104521204D01*
X168382004Y-104521204D01*
X168382004Y-106023204D01*
X167884004Y-106023204D01*
X167884004Y-104521204D01*
X166382004Y-104521204D01*
X166382004Y-106023204D01*
X165884004Y-106023204D01*
X165884004Y-104521204D01*
X164382004Y-104521204D01*
X164382004Y-106023204D01*
X163884004Y-106023204D01*
X163884004Y-104521204D01*
X162382004Y-104521204D01*
X162382004Y-106023204D01*
X161884004Y-106023204D01*
X161884004Y-104521204D01*
X160382004Y-104521204D01*
X160382004Y-106023204D01*
X159884004Y-106023204D01*
X159884004Y-104521204D01*
X158382004Y-104521204D01*
X158382004Y-106023204D01*
X157884004Y-106023204D01*
X157884004Y-104521204D01*
X156382004Y-104521204D01*
X156382004Y-106023204D01*
X155884004Y-106023204D01*
X155884004Y-104521204D01*
X154382004Y-104521204D01*
X154382004Y-106023204D01*
X153884004Y-106023204D01*
X153884004Y-104521204D01*
X152382004Y-104521204D01*
X152382004Y-106023204D01*
X151884004Y-106023204D01*
X151884004Y-104521204D01*
X150382004Y-104521204D01*
X150382004Y-106023204D01*
X149884004Y-106023204D01*
X149884004Y-104521204D01*
X148382004Y-104521204D01*
X148382004Y-106023204D01*
X147884004Y-106023204D01*
X147884004Y-104521204D01*
X147542718Y-104521204D01*
X147537296Y-104542319D01*
X147474401Y-104707893D01*
X147461561Y-104732877D01*
X147363546Y-104880401D01*
X147345490Y-104901919D01*
X147217227Y-105024063D01*
X147194852Y-105041047D01*
X147042715Y-105131738D01*
X147017134Y-105143342D01*
X146848686Y-105198074D01*
X146821170Y-105203722D01*
X146756004Y-105209653D01*
X146756004Y-105862788D01*
X146130004Y-105862788D01*
X146130004Y-104059927D01*
X146140787Y-104023204D01*
X148382004Y-104023204D01*
X149884004Y-104023204D01*
X150382004Y-104023204D01*
X151884004Y-104023204D01*
X152382004Y-104023204D01*
X153884004Y-104023204D01*
X154382004Y-104023204D01*
X155884004Y-104023204D01*
X156382004Y-104023204D01*
X157884004Y-104023204D01*
X158382004Y-104023204D01*
X159884004Y-104023204D01*
X160382004Y-104023204D01*
X161884004Y-104023204D01*
X162382004Y-104023204D01*
X163884004Y-104023204D01*
X164382004Y-104023204D01*
X165884004Y-104023204D01*
X166382004Y-104023204D01*
X167884004Y-104023204D01*
X168382004Y-104023204D01*
X169884004Y-104023204D01*
X170382004Y-104023204D01*
X171884004Y-104023204D01*
X172382004Y-104023204D01*
X173884004Y-104023204D01*
X174382004Y-104023204D01*
X175884004Y-104023204D01*
X176382004Y-104023204D01*
X177884004Y-104023204D01*
X178382004Y-104023204D01*
X179884004Y-104023204D01*
X180382004Y-104023204D01*
X181884004Y-104023204D01*
X182382004Y-104023204D01*
X183410898Y-104023204D01*
X183884004Y-103774930D01*
X183884004Y-103513591D01*
X184382004Y-103513591D01*
X185884004Y-102725381D01*
X185884004Y-102521204D01*
X184382004Y-102521204D01*
X184382004Y-103513591D01*
X183884004Y-103513591D01*
X183884004Y-102521204D01*
X182382004Y-102521204D01*
X182382004Y-104023204D01*
X181884004Y-104023204D01*
X181884004Y-102521204D01*
X180382004Y-102521204D01*
X180382004Y-104023204D01*
X179884004Y-104023204D01*
X179884004Y-102521204D01*
X178382004Y-102521204D01*
X178382004Y-104023204D01*
X177884004Y-104023204D01*
X177884004Y-102521204D01*
X176382004Y-102521204D01*
X176382004Y-104023204D01*
X175884004Y-104023204D01*
X175884004Y-102521204D01*
X174382004Y-102521204D01*
X174382004Y-104023204D01*
X173884004Y-104023204D01*
X173884004Y-102521204D01*
X172382004Y-102521204D01*
X172382004Y-104023204D01*
X171884004Y-104023204D01*
X171884004Y-102521204D01*
X170382004Y-102521204D01*
X170382004Y-104023204D01*
X169884004Y-104023204D01*
X169884004Y-102521204D01*
X168382004Y-102521204D01*
X168382004Y-104023204D01*
X167884004Y-104023204D01*
X167884004Y-102521204D01*
X166382004Y-102521204D01*
X166382004Y-104023204D01*
X165884004Y-104023204D01*
X165884004Y-102521204D01*
X164382004Y-102521204D01*
X164382004Y-104023204D01*
X163884004Y-104023204D01*
X163884004Y-102521204D01*
X162382004Y-102521204D01*
X162382004Y-104023204D01*
X161884004Y-104023204D01*
X161884004Y-102521204D01*
X160382004Y-102521204D01*
X160382004Y-104023204D01*
X159884004Y-104023204D01*
X159884004Y-102521204D01*
X158382004Y-102521204D01*
X158382004Y-104023204D01*
X157884004Y-104023204D01*
X157884004Y-102521204D01*
X156382004Y-102521204D01*
X156382004Y-104023204D01*
X155884004Y-104023204D01*
X155884004Y-102521204D01*
X154382004Y-102521204D01*
X154382004Y-104023204D01*
X153884004Y-104023204D01*
X153884004Y-102521204D01*
X152382004Y-102521204D01*
X152382004Y-104023204D01*
X151884004Y-104023204D01*
X151884004Y-102521204D01*
X150382004Y-102521204D01*
X150382004Y-104023204D01*
X149884004Y-104023204D01*
X149884004Y-102742456D01*
X148382004Y-103521052D01*
X148382004Y-104023204D01*
X146140787Y-104023204D01*
X146150006Y-103991806D01*
X146198017Y-103948063D01*
X149911289Y-102023204D01*
X152382004Y-102023204D01*
X153884004Y-102023204D01*
X154382004Y-102023204D01*
X155884004Y-102023204D01*
X156382004Y-102023204D01*
X157884004Y-102023204D01*
X158382004Y-102023204D01*
X159884004Y-102023204D01*
X160382004Y-102023204D01*
X161884004Y-102023204D01*
X162382004Y-102023204D01*
X163884004Y-102023204D01*
X164382004Y-102023204D01*
X165884004Y-102023204D01*
X166382004Y-102023204D01*
X167884004Y-102023204D01*
X168382004Y-102023204D01*
X169884004Y-102023204D01*
X170382004Y-102023204D01*
X171884004Y-102023204D01*
X172382004Y-102023204D01*
X173884004Y-102023204D01*
X174382004Y-102023204D01*
X175884004Y-102023204D01*
X176382004Y-102023204D01*
X177884004Y-102023204D01*
X178382004Y-102023204D01*
X179884004Y-102023204D01*
X180382004Y-102023204D01*
X181884004Y-102023204D01*
X182382004Y-102023204D01*
X183884004Y-102023204D01*
X184382004Y-102023204D01*
X185884004Y-102023204D01*
X186382004Y-102023204D01*
X187222062Y-102023204D01*
X187884004Y-101675834D01*
X187884004Y-101414495D01*
X188382004Y-101414495D01*
X189884004Y-100626285D01*
X189884004Y-100521204D01*
X188382004Y-100521204D01*
X188382004Y-101414495D01*
X187884004Y-101414495D01*
X187884004Y-100521204D01*
X186382004Y-100521204D01*
X186382004Y-102023204D01*
X185884004Y-102023204D01*
X185884004Y-100521204D01*
X184382004Y-100521204D01*
X184382004Y-102023204D01*
X183884004Y-102023204D01*
X183884004Y-100521204D01*
X182382004Y-100521204D01*
X182382004Y-102023204D01*
X181884004Y-102023204D01*
X181884004Y-100521204D01*
X180382004Y-100521204D01*
X180382004Y-102023204D01*
X179884004Y-102023204D01*
X179884004Y-100521204D01*
X178382004Y-100521204D01*
X178382004Y-102023204D01*
X177884004Y-102023204D01*
X177884004Y-100521204D01*
X176382004Y-100521204D01*
X176382004Y-102023204D01*
X175884004Y-102023204D01*
X175884004Y-100521204D01*
X174382004Y-100521204D01*
X174382004Y-102023204D01*
X173884004Y-102023204D01*
X173884004Y-100521204D01*
X172382004Y-100521204D01*
X172382004Y-102023204D01*
X171884004Y-102023204D01*
X171884004Y-100521204D01*
X170382004Y-100521204D01*
X170382004Y-102023204D01*
X169884004Y-102023204D01*
X169884004Y-100521204D01*
X168382004Y-100521204D01*
X168382004Y-102023204D01*
X167884004Y-102023204D01*
X167884004Y-100521204D01*
X166382004Y-100521204D01*
X166382004Y-102023204D01*
X165884004Y-102023204D01*
X165884004Y-100521204D01*
X164382004Y-100521204D01*
X164382004Y-102023204D01*
X163884004Y-102023204D01*
X163884004Y-100521204D01*
X162382004Y-100521204D01*
X162382004Y-102023204D01*
X161884004Y-102023204D01*
X161884004Y-100521204D01*
X160382004Y-100521204D01*
X160382004Y-102023204D01*
X159884004Y-102023204D01*
X159884004Y-100521204D01*
X158382004Y-100521204D01*
X158382004Y-102023204D01*
X157884004Y-102023204D01*
X157884004Y-100521204D01*
X156382004Y-100521204D01*
X156382004Y-102023204D01*
X155884004Y-102023204D01*
X155884004Y-100521204D01*
X154382004Y-100521204D01*
X154382004Y-102023204D01*
X153884004Y-102023204D01*
X153884004Y-100668965D01*
X152382004Y-101447561D01*
X152382004Y-102023204D01*
X149911289Y-102023204D01*
X153769517Y-100023204D01*
X156382004Y-100023204D01*
X157884004Y-100023204D01*
X158382004Y-100023204D01*
X159884004Y-100023204D01*
X160382004Y-100023204D01*
X161884004Y-100023204D01*
X162382004Y-100023204D01*
X163884004Y-100023204D01*
X164382004Y-100023204D01*
X165884004Y-100023204D01*
X166382004Y-100023204D01*
X167884004Y-100023204D01*
X168382004Y-100023204D01*
X169884004Y-100023204D01*
X170382004Y-100023204D01*
X171884004Y-100023204D01*
X172382004Y-100023204D01*
X173884004Y-100023204D01*
X174382004Y-100023204D01*
X175884004Y-100023204D01*
X176382004Y-100023204D01*
X177884004Y-100023204D01*
X178382004Y-100023204D01*
X179884004Y-100023204D01*
X180382004Y-100023204D01*
X181884004Y-100023204D01*
X182382004Y-100023204D01*
X183884004Y-100023204D01*
X184382004Y-100023204D01*
X185884004Y-100023204D01*
X186382004Y-100023204D01*
X187884004Y-100023204D01*
X188382004Y-100023204D01*
X189884004Y-100023204D01*
X190382004Y-100023204D01*
X191033226Y-100023204D01*
X191354004Y-99854868D01*
X191354004Y-98521204D01*
X190382004Y-98521204D01*
X190382004Y-100023204D01*
X189884004Y-100023204D01*
X189884004Y-98521204D01*
X188382004Y-98521204D01*
X188382004Y-100023204D01*
X187884004Y-100023204D01*
X187884004Y-98521204D01*
X186382004Y-98521204D01*
X186382004Y-100023204D01*
X185884004Y-100023204D01*
X185884004Y-98521204D01*
X184382004Y-98521204D01*
X184382004Y-100023204D01*
X183884004Y-100023204D01*
X183884004Y-98521204D01*
X182382004Y-98521204D01*
X182382004Y-100023204D01*
X181884004Y-100023204D01*
X181884004Y-98521204D01*
X180382004Y-98521204D01*
X180382004Y-100023204D01*
X179884004Y-100023204D01*
X179884004Y-98521204D01*
X178382004Y-98521204D01*
X178382004Y-100023204D01*
X177884004Y-100023204D01*
X177884004Y-98521204D01*
X176382004Y-98521204D01*
X176382004Y-100023204D01*
X175884004Y-100023204D01*
X175884004Y-98521204D01*
X174382004Y-98521204D01*
X174382004Y-100023204D01*
X173884004Y-100023204D01*
X173884004Y-98521204D01*
X172382004Y-98521204D01*
X172382004Y-100023204D01*
X171884004Y-100023204D01*
X171884004Y-98521204D01*
X170382004Y-98521204D01*
X170382004Y-100023204D01*
X169884004Y-100023204D01*
X169884004Y-98521204D01*
X168382004Y-98521204D01*
X168382004Y-100023204D01*
X167884004Y-100023204D01*
X167884004Y-98521204D01*
X166382004Y-98521204D01*
X166382004Y-100023204D01*
X165884004Y-100023204D01*
X165884004Y-98521204D01*
X164382004Y-98521204D01*
X164382004Y-100023204D01*
X163884004Y-100023204D01*
X163884004Y-98521204D01*
X162382004Y-98521204D01*
X162382004Y-100023204D01*
X161884004Y-100023204D01*
X161884004Y-98521204D01*
X160382004Y-98521204D01*
X160382004Y-100023204D01*
X159884004Y-100023204D01*
X159884004Y-98521204D01*
X158382004Y-98521204D01*
X158382004Y-100023204D01*
X157884004Y-100023204D01*
X157884004Y-98595474D01*
X156382004Y-99374070D01*
X156382004Y-100023204D01*
X153769517Y-100023204D01*
X157627745Y-98023204D01*
X160382004Y-98023204D01*
X161884004Y-98023204D01*
X162382004Y-98023204D01*
X163884004Y-98023204D01*
X164382004Y-98023204D01*
X165884004Y-98023204D01*
X166382004Y-98023204D01*
X167884004Y-98023204D01*
X168382004Y-98023204D01*
X169884004Y-98023204D01*
X170382004Y-98023204D01*
X171884004Y-98023204D01*
X172382004Y-98023204D01*
X173884004Y-98023204D01*
X174382004Y-98023204D01*
X175884004Y-98023204D01*
X176382004Y-98023204D01*
X177884004Y-98023204D01*
X178382004Y-98023204D01*
X179884004Y-98023204D01*
X180382004Y-98023204D01*
X181884004Y-98023204D01*
X182382004Y-98023204D01*
X183884004Y-98023204D01*
X184382004Y-98023204D01*
X185884004Y-98023204D01*
X186382004Y-98023204D01*
X187884004Y-98023204D01*
X188382004Y-98023204D01*
X189884004Y-98023204D01*
X189884004Y-97270038D01*
X188823156Y-96521204D01*
X188382004Y-96521204D01*
X188382004Y-98023204D01*
X187884004Y-98023204D01*
X187884004Y-96521204D01*
X186382004Y-96521204D01*
X186382004Y-98023204D01*
X185884004Y-98023204D01*
X185884004Y-96521204D01*
X184382004Y-96521204D01*
X184382004Y-98023204D01*
X183884004Y-98023204D01*
X183884004Y-96521204D01*
X182382004Y-96521204D01*
X182382004Y-98023204D01*
X181884004Y-98023204D01*
X181884004Y-96521204D01*
X180382004Y-96521204D01*
X180382004Y-98023204D01*
X179884004Y-98023204D01*
X179884004Y-96521204D01*
X178382004Y-96521204D01*
X178382004Y-98023204D01*
X177884004Y-98023204D01*
X177884004Y-96521204D01*
X176382004Y-96521204D01*
X176382004Y-98023204D01*
X175884004Y-98023204D01*
X175884004Y-96521204D01*
X174382004Y-96521204D01*
X174382004Y-98023204D01*
X173884004Y-98023204D01*
X173884004Y-96521204D01*
X172382004Y-96521204D01*
X172382004Y-98023204D01*
X171884004Y-98023204D01*
X171884004Y-96521204D01*
X170382004Y-96521204D01*
X170382004Y-98023204D01*
X169884004Y-98023204D01*
X169884004Y-96521204D01*
X168382004Y-96521204D01*
X168382004Y-98023204D01*
X167884004Y-98023204D01*
X167884004Y-96521204D01*
X166382004Y-96521204D01*
X166382004Y-98023204D01*
X165884004Y-98023204D01*
X165884004Y-96521204D01*
X164382004Y-96521204D01*
X164382004Y-98023204D01*
X163884004Y-98023204D01*
X163884004Y-96521204D01*
X162382004Y-96521204D01*
X162382004Y-98023204D01*
X161884004Y-98023204D01*
X161884004Y-96521984D01*
X160382004Y-97300580D01*
X160382004Y-98023204D01*
X157627745Y-98023204D01*
X161485973Y-96023204D01*
X164382004Y-96023204D01*
X165884004Y-96023204D01*
X166382004Y-96023204D01*
X167884004Y-96023204D01*
X168382004Y-96023204D01*
X169884004Y-96023204D01*
X170382004Y-96023204D01*
X171884004Y-96023204D01*
X172382004Y-96023204D01*
X173884004Y-96023204D01*
X174382004Y-96023204D01*
X175884004Y-96023204D01*
X176382004Y-96023204D01*
X177884004Y-96023204D01*
X178382004Y-96023204D01*
X179884004Y-96023204D01*
X180382004Y-96023204D01*
X181884004Y-96023204D01*
X182382004Y-96023204D01*
X183884004Y-96023204D01*
X184382004Y-96023204D01*
X185884004Y-96023204D01*
X186382004Y-96023204D01*
X187884004Y-96023204D01*
X187884004Y-95858274D01*
X187369000Y-95494741D01*
X187362430Y-95489774D01*
X187311632Y-95448692D01*
X187288980Y-95424854D01*
X187174197Y-95267104D01*
X187153583Y-95222472D01*
X187107906Y-95032804D01*
X187104505Y-95008339D01*
X187085020Y-94521204D01*
X186382004Y-94521204D01*
X186382004Y-96023204D01*
X185884004Y-96023204D01*
X185884004Y-94521204D01*
X184382004Y-94521204D01*
X184382004Y-96023204D01*
X183884004Y-96023204D01*
X183884004Y-94521204D01*
X182382004Y-94521204D01*
X182382004Y-96023204D01*
X181884004Y-96023204D01*
X181884004Y-94521204D01*
X180382004Y-94521204D01*
X180382004Y-96023204D01*
X179884004Y-96023204D01*
X179884004Y-94521204D01*
X178382004Y-94521204D01*
X178382004Y-96023204D01*
X177884004Y-96023204D01*
X177884004Y-94521204D01*
X176382004Y-94521204D01*
X176382004Y-96023204D01*
X175884004Y-96023204D01*
X175884004Y-94521204D01*
X174382004Y-94521204D01*
X174382004Y-96023204D01*
X173884004Y-96023204D01*
X173884004Y-94521204D01*
X172382004Y-94521204D01*
X172382004Y-96023204D01*
X171884004Y-96023204D01*
X171884004Y-94521204D01*
X170382004Y-94521204D01*
X170382004Y-96023204D01*
X169884004Y-96023204D01*
X169884004Y-94521204D01*
X168382004Y-94521204D01*
X168382004Y-96023204D01*
X167884004Y-96023204D01*
X167884004Y-94521204D01*
X166382004Y-94521204D01*
X166382004Y-96023204D01*
X165884004Y-96023204D01*
X165884004Y-94521204D01*
X165743736Y-94521204D01*
X164382004Y-95227089D01*
X164382004Y-96023204D01*
X161485973Y-96023204D01*
X165344201Y-94023204D01*
X168382004Y-94023204D01*
X169884004Y-94023204D01*
X170382004Y-94023204D01*
X171884004Y-94023204D01*
X172382004Y-94023204D01*
X173884004Y-94023204D01*
X174382004Y-94023204D01*
X175884004Y-94023204D01*
X176382004Y-94023204D01*
X177884004Y-94023204D01*
X178382004Y-94023204D01*
X179884004Y-94023204D01*
X180382004Y-94023204D01*
X181884004Y-94023204D01*
X182382004Y-94023204D01*
X183884004Y-94023204D01*
X184382004Y-94023204D01*
X185884004Y-94023204D01*
X186382004Y-94023204D01*
X187065100Y-94023204D01*
X187005020Y-92521204D01*
X186382004Y-92521204D01*
X186382004Y-94023204D01*
X185884004Y-94023204D01*
X185884004Y-92521204D01*
X184382004Y-92521204D01*
X184382004Y-94023204D01*
X183884004Y-94023204D01*
X183884004Y-92521204D01*
X182382004Y-92521204D01*
X182382004Y-94023204D01*
X181884004Y-94023204D01*
X181884004Y-92521204D01*
X180382004Y-92521204D01*
X180382004Y-94023204D01*
X179884004Y-94023204D01*
X179884004Y-92521204D01*
X178382004Y-92521204D01*
X178382004Y-94023204D01*
X177884004Y-94023204D01*
X177884004Y-92521204D01*
X176382004Y-92521204D01*
X176382004Y-94023204D01*
X175884004Y-94023204D01*
X175884004Y-92521204D01*
X174382004Y-92521204D01*
X174382004Y-94023204D01*
X173884004Y-94023204D01*
X173884004Y-92521204D01*
X172382004Y-92521204D01*
X172382004Y-94023204D01*
X171884004Y-94023204D01*
X171884004Y-92521204D01*
X170382004Y-92521204D01*
X170382004Y-94023204D01*
X169884004Y-94023204D01*
X169884004Y-92521204D01*
X169601964Y-92521204D01*
X168382004Y-93153598D01*
X168382004Y-94023204D01*
X165344201Y-94023204D01*
X169202429Y-92023204D01*
X170562663Y-92023204D01*
X171884004Y-92023204D01*
X172382004Y-92023204D01*
X173884004Y-92023204D01*
X174382004Y-92023204D01*
X175884004Y-92023204D01*
X176382004Y-92023204D01*
X177884004Y-92023204D01*
X178382004Y-92023204D01*
X179884004Y-92023204D01*
X180382004Y-92023204D01*
X181884004Y-92023204D01*
X182382004Y-92023204D01*
X183884004Y-92023204D01*
X184382004Y-92023204D01*
X185884004Y-92023204D01*
X186382004Y-92023204D01*
X186985100Y-92023204D01*
X186925020Y-90521204D01*
X186382004Y-90521204D01*
X186382004Y-92023204D01*
X185884004Y-92023204D01*
X185884004Y-90521204D01*
X184382004Y-90521204D01*
X184382004Y-92023204D01*
X183884004Y-92023204D01*
X183884004Y-90521204D01*
X182382004Y-90521204D01*
X182382004Y-92023204D01*
X181884004Y-92023204D01*
X181884004Y-90521204D01*
X180382004Y-90521204D01*
X180382004Y-92023204D01*
X179884004Y-92023204D01*
X179884004Y-90521204D01*
X178382004Y-90521204D01*
X178382004Y-92023204D01*
X177884004Y-92023204D01*
X177884004Y-90521204D01*
X176382004Y-90521204D01*
X176382004Y-92023204D01*
X175884004Y-92023204D01*
X175884004Y-90521204D01*
X174382004Y-90521204D01*
X174382004Y-92023204D01*
X173884004Y-92023204D01*
X173884004Y-90521204D01*
X173460192Y-90521204D01*
X172382004Y-91080107D01*
X172382004Y-92023204D01*
X171884004Y-92023204D01*
X171884004Y-91338257D01*
X170562663Y-92023204D01*
X169202429Y-92023204D01*
X173060657Y-90023204D01*
X174420891Y-90023204D01*
X175884004Y-90023204D01*
X176382004Y-90023204D01*
X177884004Y-90023204D01*
X178382004Y-90023204D01*
X179884004Y-90023204D01*
X180382004Y-90023204D01*
X181884004Y-90023204D01*
X182382004Y-90023204D01*
X183884004Y-90023204D01*
X184382004Y-90023204D01*
X185884004Y-90023204D01*
X186382004Y-90023204D01*
X186905100Y-90023204D01*
X186862046Y-88946875D01*
X186554617Y-88521204D01*
X186382004Y-88521204D01*
X186382004Y-90023204D01*
X185884004Y-90023204D01*
X185884004Y-88521204D01*
X184382004Y-88521204D01*
X184382004Y-90023204D01*
X183884004Y-90023204D01*
X183884004Y-88521204D01*
X182382004Y-88521204D01*
X182382004Y-90023204D01*
X181884004Y-90023204D01*
X181884004Y-88521204D01*
X180382004Y-88521204D01*
X180382004Y-90023204D01*
X179884004Y-90023204D01*
X179884004Y-88521204D01*
X178382004Y-88521204D01*
X178382004Y-90023204D01*
X177884004Y-90023204D01*
X177884004Y-88521204D01*
X177318420Y-88521204D01*
X176382004Y-89006616D01*
X176382004Y-90023204D01*
X175884004Y-90023204D01*
X175884004Y-89264766D01*
X174420891Y-90023204D01*
X173060657Y-90023204D01*
X176918885Y-88023204D01*
X178382004Y-88023204D01*
X179884004Y-88023204D01*
X180382004Y-88023204D01*
X181884004Y-88023204D01*
X182382004Y-88023204D01*
X183884004Y-88023204D01*
X184382004Y-88023204D01*
X185884004Y-88023204D01*
X185884004Y-87592663D01*
X185110172Y-86521204D01*
X184382004Y-86521204D01*
X184382004Y-88023204D01*
X183884004Y-88023204D01*
X183884004Y-86521204D01*
X182382004Y-86521204D01*
X182382004Y-88023204D01*
X181884004Y-88023204D01*
X181884004Y-86521204D01*
X181176647Y-86521204D01*
X180382004Y-86933126D01*
X180382004Y-88023204D01*
X179884004Y-88023204D01*
X179884004Y-87191275D01*
X178382004Y-87969871D01*
X178382004Y-88023204D01*
X176918885Y-88023204D01*
X180777112Y-86023204D01*
X182382004Y-86023204D01*
X183884004Y-86023204D01*
X183884004Y-85117784D01*
X182382004Y-85896380D01*
X182382004Y-86023204D01*
X180777112Y-86023204D01*
X184133508Y-84283340D01*
X184203191Y-84269748D01*
X184269161Y-84295987D01*
G37*
G04 #@! TD.AperFunction*
G04 #@! TA.AperFunction,Conductor*
G36*
X179088111Y-74220002D02*
G01*
X179119951Y-74249294D01*
X179127368Y-74258960D01*
X179133918Y-74263986D01*
X179133919Y-74263987D01*
X179190088Y-74307087D01*
X179252809Y-74355214D01*
X179398888Y-74415722D01*
X179555650Y-74436360D01*
X179563838Y-74435282D01*
X179704224Y-74416800D01*
X179712412Y-74415722D01*
X179858491Y-74355214D01*
X179921212Y-74307087D01*
X179977381Y-74263987D01*
X179977382Y-74263986D01*
X179983932Y-74258960D01*
X179991349Y-74249294D01*
X179994032Y-74247335D01*
X179994798Y-74246569D01*
X179994917Y-74246688D01*
X180048688Y-74207428D01*
X180091310Y-74200000D01*
X180648500Y-74200000D01*
X180716621Y-74220002D01*
X180763114Y-74273658D01*
X180774500Y-74326000D01*
X180774500Y-77190714D01*
X180754498Y-77258835D01*
X180725204Y-77290677D01*
X180671718Y-77331718D01*
X180575464Y-77457159D01*
X180514956Y-77603238D01*
X180494318Y-77760000D01*
X180514956Y-77916762D01*
X180575464Y-78062841D01*
X180671718Y-78188282D01*
X180797159Y-78284536D01*
X180943238Y-78345044D01*
X181100000Y-78365682D01*
X181108188Y-78364604D01*
X181248574Y-78346122D01*
X181256762Y-78345044D01*
X181402841Y-78284536D01*
X181528282Y-78188282D01*
X181624536Y-78062841D01*
X181685044Y-77916762D01*
X181705682Y-77760000D01*
X181685044Y-77603238D01*
X181624536Y-77457159D01*
X181528282Y-77331718D01*
X181474796Y-77290677D01*
X181432929Y-77233339D01*
X181425500Y-77190714D01*
X181425500Y-74326000D01*
X181445502Y-74257879D01*
X181499158Y-74211386D01*
X181551500Y-74200000D01*
X187698500Y-74200000D01*
X187766621Y-74220002D01*
X187813114Y-74273658D01*
X187824500Y-74326000D01*
X187824500Y-82780714D01*
X187804498Y-82848835D01*
X187775204Y-82880677D01*
X187721718Y-82921718D01*
X187625464Y-83047159D01*
X187564956Y-83193238D01*
X187544318Y-83350000D01*
X187564956Y-83506762D01*
X187625464Y-83652841D01*
X187721718Y-83778282D01*
X187847159Y-83874536D01*
X187993238Y-83935044D01*
X188150000Y-83955682D01*
X188158188Y-83954604D01*
X188298574Y-83936122D01*
X188306762Y-83935044D01*
X188452841Y-83874536D01*
X188578282Y-83778282D01*
X188674536Y-83652841D01*
X188735044Y-83506762D01*
X188755682Y-83350000D01*
X188735044Y-83193238D01*
X188674536Y-83047159D01*
X188578282Y-82921718D01*
X188524796Y-82880677D01*
X188482929Y-82823339D01*
X188475500Y-82780714D01*
X188475500Y-74326000D01*
X188495502Y-74257879D01*
X188549158Y-74211386D01*
X188601500Y-74200000D01*
X190207484Y-74200000D01*
X190275605Y-74220002D01*
X190296579Y-74236905D01*
X190425889Y-74366215D01*
X190433316Y-74374319D01*
X190457545Y-74403194D01*
X190467094Y-74408707D01*
X190490185Y-74422039D01*
X190499456Y-74427945D01*
X190530316Y-74449554D01*
X190540966Y-74452408D01*
X190544134Y-74453885D01*
X190547410Y-74455077D01*
X190556955Y-74460588D01*
X190590699Y-74466538D01*
X190594058Y-74467130D01*
X190604785Y-74469508D01*
X190641193Y-74479264D01*
X190652178Y-74478303D01*
X190652180Y-74478303D01*
X190678728Y-74475980D01*
X190689710Y-74475500D01*
X191473284Y-74475500D01*
X191541405Y-74495502D01*
X191562379Y-74512405D01*
X192587595Y-75537622D01*
X192621621Y-75599934D01*
X192624500Y-75626717D01*
X192624500Y-116529945D01*
X192604498Y-116598066D01*
X192550842Y-116644559D01*
X192480568Y-116654663D01*
X192415988Y-116625169D01*
X192403346Y-116611777D01*
X192403155Y-116611951D01*
X192246107Y-116439358D01*
X192246105Y-116439357D01*
X192242629Y-116435536D01*
X192238578Y-116432337D01*
X192238574Y-116432333D01*
X192059500Y-116290909D01*
X192059496Y-116290907D01*
X192055445Y-116287707D01*
X192016125Y-116266001D01*
X191950867Y-116229977D01*
X191846631Y-116172436D01*
X191841762Y-116170712D01*
X191841758Y-116170710D01*
X191626663Y-116094541D01*
X191626661Y-116094540D01*
X191621794Y-116092817D01*
X191503347Y-116071718D01*
X191392060Y-116051894D01*
X191392056Y-116051894D01*
X191386972Y-116050988D01*
X191303140Y-116049964D01*
X191153640Y-116048137D01*
X191153638Y-116048137D01*
X191148471Y-116048074D01*
X190912698Y-116084153D01*
X190685982Y-116158255D01*
X190681394Y-116160643D01*
X190681390Y-116160645D01*
X190544776Y-116231762D01*
X190474414Y-116268390D01*
X190470281Y-116271493D01*
X190470278Y-116271495D01*
X190318005Y-116385826D01*
X190283675Y-116411602D01*
X190263864Y-116432333D01*
X190127144Y-116575402D01*
X190118887Y-116584042D01*
X189984475Y-116781082D01*
X189950397Y-116854498D01*
X189888818Y-116987159D01*
X189884051Y-116997428D01*
X189820309Y-117227272D01*
X189819760Y-117232409D01*
X189795576Y-117458707D01*
X189794963Y-117464440D01*
X189795260Y-117469592D01*
X189795260Y-117469596D01*
X189808396Y-117697403D01*
X189808397Y-117697409D01*
X189808694Y-117702562D01*
X189830331Y-117798574D01*
X189855705Y-117911166D01*
X189861131Y-117935245D01*
X189863075Y-117940032D01*
X189863076Y-117940036D01*
X189916554Y-118071736D01*
X189950867Y-118156239D01*
X190075493Y-118359609D01*
X190078876Y-118363514D01*
X190080932Y-118366324D01*
X190105022Y-118433109D01*
X190089181Y-118502316D01*
X190038438Y-118551972D01*
X189968905Y-118566311D01*
X189902657Y-118540782D01*
X189890158Y-118529832D01*
X188794111Y-117433785D01*
X188786684Y-117425681D01*
X188769541Y-117405251D01*
X188769542Y-117405251D01*
X188762455Y-117396806D01*
X188748988Y-117389031D01*
X188729815Y-117377961D01*
X188720544Y-117372055D01*
X188698715Y-117356770D01*
X188689684Y-117350446D01*
X188679034Y-117347592D01*
X188675866Y-117346115D01*
X188672590Y-117344923D01*
X188663045Y-117339412D01*
X188629301Y-117333462D01*
X188625942Y-117332870D01*
X188615215Y-117330492D01*
X188578807Y-117320736D01*
X188567822Y-117321697D01*
X188567820Y-117321697D01*
X188541272Y-117324020D01*
X188530290Y-117324500D01*
X187419286Y-117324500D01*
X187351165Y-117304498D01*
X187319323Y-117275204D01*
X187283305Y-117228264D01*
X187278282Y-117221718D01*
X187152841Y-117125464D01*
X187006762Y-117064956D01*
X186850000Y-117044318D01*
X186693238Y-117064956D01*
X186547159Y-117125464D01*
X186421718Y-117221718D01*
X186416695Y-117228264D01*
X186393941Y-117257918D01*
X186325464Y-117347159D01*
X186264956Y-117493238D01*
X186244318Y-117650000D01*
X186264956Y-117806762D01*
X186325464Y-117952841D01*
X186421718Y-118078282D01*
X186428264Y-118083305D01*
X186428268Y-118083309D01*
X186469438Y-118114900D01*
X186511305Y-118172238D01*
X186515527Y-118243109D01*
X186481829Y-118303957D01*
X186333189Y-118452597D01*
X186270877Y-118486623D01*
X186227649Y-118488424D01*
X186160806Y-118479624D01*
X186004044Y-118500262D01*
X185857965Y-118560770D01*
X185732524Y-118657024D01*
X185727501Y-118663570D01*
X185708539Y-118688282D01*
X185636270Y-118782465D01*
X185575762Y-118928544D01*
X185555124Y-119085306D01*
X185575762Y-119242068D01*
X185636270Y-119388147D01*
X185732524Y-119513588D01*
X185857965Y-119609842D01*
X186004044Y-119670350D01*
X186012232Y-119671428D01*
X186082425Y-119680669D01*
X186160806Y-119690988D01*
X186168994Y-119689910D01*
X186309380Y-119671428D01*
X186317568Y-119670350D01*
X186463647Y-119609842D01*
X186589088Y-119513588D01*
X186685342Y-119388147D01*
X186745850Y-119242068D01*
X186766488Y-119085306D01*
X186757688Y-119018463D01*
X186768627Y-118948316D01*
X186793515Y-118912923D01*
X186994033Y-118712405D01*
X187056345Y-118678379D01*
X187083128Y-118675500D01*
X187215679Y-118675500D01*
X187283800Y-118695502D01*
X187330293Y-118749158D01*
X187340397Y-118819432D01*
X187322064Y-118869014D01*
X187301449Y-118901497D01*
X187301447Y-118901500D01*
X187297671Y-118907451D01*
X187295306Y-118914093D01*
X187241595Y-119064929D01*
X187241594Y-119064934D01*
X187239233Y-119071564D01*
X187238400Y-119078552D01*
X187238399Y-119078555D01*
X187236618Y-119093494D01*
X187218606Y-119244545D01*
X187219342Y-119251547D01*
X187219342Y-119251549D01*
X187233700Y-119388147D01*
X187236816Y-119417797D01*
X187245348Y-119442860D01*
X187281975Y-119550451D01*
X187292956Y-119582709D01*
X187296646Y-119588707D01*
X187296647Y-119588709D01*
X187380546Y-119725085D01*
X187384238Y-119731086D01*
X187389164Y-119736116D01*
X187389170Y-119736124D01*
X187486822Y-119835842D01*
X187520193Y-119898507D01*
X187514387Y-119969266D01*
X187471248Y-120025653D01*
X187404471Y-120049766D01*
X187396799Y-120050000D01*
X103969726Y-120050000D01*
X103901605Y-120029998D01*
X103855112Y-119976342D01*
X103845008Y-119906068D01*
X103874502Y-119841488D01*
X103895665Y-119822064D01*
X103922423Y-119802623D01*
X103928837Y-119797963D01*
X104033600Y-119671326D01*
X104103579Y-119522613D01*
X104105064Y-119514830D01*
X104105065Y-119514826D01*
X104132891Y-119368956D01*
X104132891Y-119368954D01*
X104134376Y-119361170D01*
X104128706Y-119271044D01*
X104124554Y-119205051D01*
X104124554Y-119205049D01*
X104124056Y-119197140D01*
X104115677Y-119171350D01*
X104095812Y-119110214D01*
X104073268Y-119040829D01*
X103985202Y-118902060D01*
X103945316Y-118864604D01*
X103871170Y-118794977D01*
X103865393Y-118789552D01*
X103858449Y-118785735D01*
X103858447Y-118785733D01*
X103779834Y-118742515D01*
X103721368Y-118710373D01*
X103713696Y-118708403D01*
X103713693Y-118708402D01*
X103569855Y-118671471D01*
X103569852Y-118671471D01*
X103562177Y-118669500D01*
X102339075Y-118669500D01*
X102281310Y-118676797D01*
X102224807Y-118683935D01*
X102224804Y-118683936D01*
X102216942Y-118684929D01*
X102209575Y-118687846D01*
X102209574Y-118687846D01*
X102174867Y-118701588D01*
X102064129Y-118745432D01*
X102057718Y-118750090D01*
X102057716Y-118750091D01*
X102008659Y-118785733D01*
X101931163Y-118842037D01*
X101826400Y-118968674D01*
X101756421Y-119117387D01*
X101754936Y-119125170D01*
X101754935Y-119125174D01*
X101731181Y-119249697D01*
X101725624Y-119278830D01*
X101728350Y-119322152D01*
X101735037Y-119428436D01*
X101735944Y-119442860D01*
X101786732Y-119599171D01*
X101874798Y-119737940D01*
X101970148Y-119827479D01*
X101975122Y-119832150D01*
X102011087Y-119893362D01*
X102008250Y-119964302D01*
X101967509Y-120022446D01*
X101901801Y-120049335D01*
X101888869Y-120050000D01*
X99649726Y-120050000D01*
X99581605Y-120029998D01*
X99535112Y-119976342D01*
X99525008Y-119906068D01*
X99554502Y-119841488D01*
X99575665Y-119822064D01*
X99602423Y-119802623D01*
X99608837Y-119797963D01*
X99713600Y-119671326D01*
X99783579Y-119522613D01*
X99785064Y-119514830D01*
X99785065Y-119514826D01*
X99812891Y-119368956D01*
X99812891Y-119368954D01*
X99814376Y-119361170D01*
X99808706Y-119271044D01*
X99804554Y-119205051D01*
X99804554Y-119205049D01*
X99804056Y-119197140D01*
X99795677Y-119171350D01*
X99775812Y-119110214D01*
X99753268Y-119040829D01*
X99665202Y-118902060D01*
X99625316Y-118864604D01*
X99551170Y-118794977D01*
X99545393Y-118789552D01*
X99538449Y-118785735D01*
X99538447Y-118785733D01*
X99459834Y-118742515D01*
X99401368Y-118710373D01*
X99393696Y-118708403D01*
X99393693Y-118708402D01*
X99249855Y-118671471D01*
X99249852Y-118671471D01*
X99242177Y-118669500D01*
X98319075Y-118669500D01*
X98261310Y-118676797D01*
X98204807Y-118683935D01*
X98204804Y-118683936D01*
X98196942Y-118684929D01*
X98189575Y-118687846D01*
X98189574Y-118687846D01*
X98154867Y-118701588D01*
X98044129Y-118745432D01*
X98037718Y-118750090D01*
X98037716Y-118750091D01*
X97988659Y-118785733D01*
X97911163Y-118842037D01*
X97806400Y-118968674D01*
X97736421Y-119117387D01*
X97734936Y-119125170D01*
X97734935Y-119125174D01*
X97711181Y-119249697D01*
X97705624Y-119278830D01*
X97708350Y-119322152D01*
X97715037Y-119428436D01*
X97715944Y-119442860D01*
X97766732Y-119599171D01*
X97816477Y-119677556D01*
X97836089Y-119745787D01*
X97815699Y-119813792D01*
X97761778Y-119859978D01*
X97691448Y-119869681D01*
X97637821Y-119848281D01*
X97584101Y-119810666D01*
X97567276Y-119796548D01*
X97453452Y-119682724D01*
X97439334Y-119665900D01*
X97402294Y-119613002D01*
X97346994Y-119534025D01*
X97336018Y-119515014D01*
X97267982Y-119369112D01*
X97260470Y-119348474D01*
X97248318Y-119303123D01*
X97218804Y-119192973D01*
X97214992Y-119171350D01*
X97202438Y-119027862D01*
X97201958Y-119016658D01*
X97201962Y-119014189D01*
X97205143Y-119000358D01*
X97202011Y-118986518D01*
X97202020Y-118981627D01*
X97200000Y-118963552D01*
X97200000Y-110638830D01*
X97705624Y-110638830D01*
X97706122Y-110646741D01*
X97715363Y-110793619D01*
X97715944Y-110802860D01*
X97766732Y-110959171D01*
X97854798Y-111097940D01*
X97860577Y-111103367D01*
X97860578Y-111103368D01*
X97912211Y-111151854D01*
X97974607Y-111210448D01*
X97981551Y-111214265D01*
X97981553Y-111214267D01*
X98020689Y-111235782D01*
X98118632Y-111289627D01*
X98126304Y-111291597D01*
X98126307Y-111291598D01*
X98270145Y-111328529D01*
X98270148Y-111328529D01*
X98277823Y-111330500D01*
X99200925Y-111330500D01*
X99270442Y-111321718D01*
X99315193Y-111316065D01*
X99315196Y-111316064D01*
X99323058Y-111315071D01*
X99330425Y-111312154D01*
X99330426Y-111312154D01*
X99396970Y-111285807D01*
X99475871Y-111254568D01*
X99515930Y-111225464D01*
X99602423Y-111162623D01*
X99608837Y-111157963D01*
X99713600Y-111031326D01*
X99783579Y-110882613D01*
X99785064Y-110874830D01*
X99785065Y-110874826D01*
X99812891Y-110728956D01*
X99812891Y-110728954D01*
X99814376Y-110721170D01*
X99806574Y-110597159D01*
X99804554Y-110565051D01*
X99804554Y-110565049D01*
X99804056Y-110557140D01*
X99753268Y-110400829D01*
X99665202Y-110262060D01*
X99652360Y-110250000D01*
X99551170Y-110154977D01*
X99545393Y-110149552D01*
X99538449Y-110145735D01*
X99538447Y-110145733D01*
X99442959Y-110093238D01*
X99401368Y-110070373D01*
X99393696Y-110068403D01*
X99393693Y-110068402D01*
X99249855Y-110031471D01*
X99249852Y-110031471D01*
X99242177Y-110029500D01*
X98319075Y-110029500D01*
X98261310Y-110036797D01*
X98204807Y-110043935D01*
X98204804Y-110043936D01*
X98196942Y-110044929D01*
X98189575Y-110047846D01*
X98189574Y-110047846D01*
X98154867Y-110061588D01*
X98044129Y-110105432D01*
X98037718Y-110110090D01*
X98037716Y-110110091D01*
X97988659Y-110145733D01*
X97911163Y-110202037D01*
X97806400Y-110328674D01*
X97736421Y-110477387D01*
X97734936Y-110485170D01*
X97734935Y-110485174D01*
X97721207Y-110557140D01*
X97705624Y-110638830D01*
X97200000Y-110638830D01*
X97200000Y-74426000D01*
X97220002Y-74357879D01*
X97273658Y-74311386D01*
X97326000Y-74300000D01*
X100674000Y-74300000D01*
X100742121Y-74320002D01*
X100788614Y-74373658D01*
X100800000Y-74426000D01*
X100800000Y-76574000D01*
X100779998Y-76642121D01*
X100726342Y-76688614D01*
X100674000Y-76700000D01*
X99450000Y-76700000D01*
X99225000Y-77125000D01*
X99225000Y-105511485D01*
X99204998Y-105579606D01*
X99157180Y-105623248D01*
X99015112Y-105697204D01*
X98974414Y-105718390D01*
X98970281Y-105721493D01*
X98970278Y-105721495D01*
X98787810Y-105858497D01*
X98783675Y-105861602D01*
X98618887Y-106034042D01*
X98484475Y-106231082D01*
X98434263Y-106339255D01*
X98386652Y-106441825D01*
X98384051Y-106447428D01*
X98320309Y-106677272D01*
X98319760Y-106682409D01*
X98306909Y-106802663D01*
X98294963Y-106914440D01*
X98295260Y-106919592D01*
X98295260Y-106919596D01*
X98308396Y-107147403D01*
X98308397Y-107147409D01*
X98308694Y-107152562D01*
X98361131Y-107385245D01*
X98450867Y-107606239D01*
X98575493Y-107809609D01*
X98731660Y-107989894D01*
X98915176Y-108142252D01*
X99121112Y-108262591D01*
X99343937Y-108347680D01*
X99349005Y-108348711D01*
X99349008Y-108348712D01*
X99464267Y-108372162D01*
X99577666Y-108395233D01*
X99582839Y-108395423D01*
X99582842Y-108395423D01*
X99810861Y-108403784D01*
X99810865Y-108403784D01*
X99816025Y-108403973D01*
X99821146Y-108403317D01*
X100047489Y-108374321D01*
X100047490Y-108374321D01*
X100052609Y-108373665D01*
X100281068Y-108305125D01*
X100285712Y-108302850D01*
X100285717Y-108302848D01*
X100350594Y-108271065D01*
X100420568Y-108259058D01*
X100485925Y-108286788D01*
X100495121Y-108295121D01*
X100763095Y-108563095D01*
X100797121Y-108625407D01*
X100800000Y-108652190D01*
X100800000Y-113173500D01*
X100779998Y-113241621D01*
X100726342Y-113288114D01*
X100674000Y-113299500D01*
X100395252Y-113299500D01*
X100389184Y-113300707D01*
X100348939Y-113308712D01*
X100348938Y-113308712D01*
X100336769Y-113311133D01*
X100270448Y-113355448D01*
X100226133Y-113421769D01*
X100214500Y-113480252D01*
X100214500Y-116699748D01*
X100226133Y-116758231D01*
X100270448Y-116824552D01*
X100336769Y-116868867D01*
X100348938Y-116871288D01*
X100348939Y-116871288D01*
X100368833Y-116875245D01*
X100395252Y-116880500D01*
X100674000Y-116880500D01*
X100742121Y-116900502D01*
X100788614Y-116954158D01*
X100800000Y-117006500D01*
X100800000Y-117400000D01*
X101935568Y-117400000D01*
X102003689Y-117420002D01*
X102050182Y-117473658D01*
X102060286Y-117543932D01*
X102035917Y-117596628D01*
X102038247Y-117598158D01*
X102033320Y-117605659D01*
X102027377Y-117612388D01*
X101966447Y-117742163D01*
X101962919Y-117764824D01*
X101946250Y-117871884D01*
X101944391Y-117883823D01*
X101945555Y-117892725D01*
X101945555Y-117892728D01*
X101950455Y-117930196D01*
X101962980Y-118025979D01*
X102020720Y-118157203D01*
X102026497Y-118164076D01*
X102026498Y-118164077D01*
X102107190Y-118260072D01*
X102112970Y-118266948D01*
X102232313Y-118346390D01*
X102369157Y-118389142D01*
X102378129Y-118389306D01*
X102378132Y-118389307D01*
X102443463Y-118390504D01*
X102512499Y-118391770D01*
X102521533Y-118389307D01*
X102642158Y-118356421D01*
X102642160Y-118356420D01*
X102650817Y-118354060D01*
X102772991Y-118279045D01*
X102869200Y-118172754D01*
X102919048Y-118069868D01*
X102927795Y-118051814D01*
X102927795Y-118051813D01*
X102931710Y-118043733D01*
X102955496Y-117902354D01*
X102955647Y-117890000D01*
X102940683Y-117785510D01*
X102936596Y-117756968D01*
X102936595Y-117756965D01*
X102935323Y-117748082D01*
X102916592Y-117706884D01*
X102894451Y-117658188D01*
X102875984Y-117617572D01*
X102867949Y-117608247D01*
X102866585Y-117605238D01*
X102865288Y-117603210D01*
X102865581Y-117603023D01*
X102838636Y-117543585D01*
X102848935Y-117473339D01*
X102895577Y-117419813D01*
X102963403Y-117400000D01*
X109785522Y-117400000D01*
X109839662Y-117417071D01*
X109841294Y-117413571D01*
X109851284Y-117418230D01*
X109860316Y-117424554D01*
X109870966Y-117427408D01*
X109874134Y-117428885D01*
X109877410Y-117430077D01*
X109886955Y-117435588D01*
X109920699Y-117441538D01*
X109924058Y-117442130D01*
X109934785Y-117444508D01*
X109971193Y-117454264D01*
X109982169Y-117453304D01*
X109982172Y-117453304D01*
X110008743Y-117450979D01*
X110019724Y-117450500D01*
X115480714Y-117450500D01*
X115548835Y-117470502D01*
X115580677Y-117499796D01*
X115583717Y-117503758D01*
X115614544Y-117543932D01*
X115621718Y-117553282D01*
X115628264Y-117558305D01*
X115657918Y-117581059D01*
X115747159Y-117649536D01*
X115893238Y-117710044D01*
X116050000Y-117730682D01*
X116058188Y-117729604D01*
X116198574Y-117711122D01*
X116206762Y-117710044D01*
X116352841Y-117649536D01*
X116442082Y-117581059D01*
X116471736Y-117558305D01*
X116478282Y-117553282D01*
X116485457Y-117543932D01*
X116550852Y-117458707D01*
X116558073Y-117449296D01*
X116615411Y-117407429D01*
X116658036Y-117400000D01*
X137000000Y-117400000D01*
X140448514Y-114847204D01*
X140835439Y-114560779D01*
X140850000Y-114550000D01*
X140827970Y-111884383D01*
X140800554Y-108566994D01*
X140819993Y-108498711D01*
X140855233Y-108462079D01*
X144135065Y-106210254D01*
X144150000Y-106200000D01*
X144149936Y-106158739D01*
X145930004Y-106158739D01*
X145936164Y-106207995D01*
X145951449Y-106268147D01*
X145956374Y-106284550D01*
X145960840Y-106291690D01*
X145960840Y-106291691D01*
X145999818Y-106354015D01*
X145999820Y-106354018D01*
X146003571Y-106360015D01*
X146053668Y-106410323D01*
X146099166Y-106444532D01*
X146816061Y-106837950D01*
X146984595Y-106930438D01*
X148727876Y-107887117D01*
X148984594Y-108027999D01*
X149964622Y-108565820D01*
X150014719Y-108616128D01*
X150030004Y-108676280D01*
X150030004Y-114115488D01*
X150010002Y-114183609D01*
X149956346Y-114230102D01*
X149886072Y-114240206D01*
X149821492Y-114210712D01*
X149814909Y-114204583D01*
X149482709Y-113872383D01*
X149448683Y-113810071D01*
X149446882Y-113766842D01*
X149454604Y-113708188D01*
X149455682Y-113700000D01*
X149435044Y-113543238D01*
X149374536Y-113397159D01*
X149290863Y-113288114D01*
X149283305Y-113278264D01*
X149278282Y-113271718D01*
X149152841Y-113175464D01*
X149006762Y-113114956D01*
X148990971Y-113112877D01*
X148892795Y-113099952D01*
X148850000Y-113094318D01*
X148807205Y-113099952D01*
X148709030Y-113112877D01*
X148693238Y-113114956D01*
X148547159Y-113175464D01*
X148421718Y-113271718D01*
X148416695Y-113278264D01*
X148409137Y-113288114D01*
X148325464Y-113397159D01*
X148264956Y-113543238D01*
X148244318Y-113700000D01*
X148264956Y-113856762D01*
X148325464Y-114002841D01*
X148421718Y-114128282D01*
X148547159Y-114224536D01*
X148693238Y-114285044D01*
X148850000Y-114305682D01*
X148916843Y-114296882D01*
X148986990Y-114307821D01*
X149022383Y-114332709D01*
X152105895Y-117416222D01*
X152113315Y-117424318D01*
X152137545Y-117453194D01*
X152170184Y-117472038D01*
X152179452Y-117477942D01*
X152210316Y-117499553D01*
X152220962Y-117502406D01*
X152224130Y-117503883D01*
X152227407Y-117505076D01*
X152236955Y-117510588D01*
X152266508Y-117515799D01*
X152274069Y-117517132D01*
X152284803Y-117519512D01*
X152321193Y-117529263D01*
X152332169Y-117528303D01*
X152332172Y-117528303D01*
X152358731Y-117525979D01*
X152369712Y-117525500D01*
X161680290Y-117525500D01*
X161691272Y-117525980D01*
X161717820Y-117528303D01*
X161717822Y-117528303D01*
X161728807Y-117529264D01*
X161765215Y-117519508D01*
X161775942Y-117517130D01*
X161779301Y-117516538D01*
X161813045Y-117510588D01*
X161822590Y-117505077D01*
X161825866Y-117503885D01*
X161829034Y-117502408D01*
X161839684Y-117499554D01*
X161870547Y-117477943D01*
X161879815Y-117472039D01*
X161902906Y-117458707D01*
X161912455Y-117453194D01*
X161936685Y-117424317D01*
X161944111Y-117416215D01*
X162660578Y-116699748D01*
X168794500Y-116699748D01*
X168806133Y-116758231D01*
X168850448Y-116824552D01*
X168916769Y-116868867D01*
X168928938Y-116871288D01*
X168928939Y-116871288D01*
X168948833Y-116875245D01*
X169011743Y-116908153D01*
X169046874Y-116969848D01*
X169040660Y-117047041D01*
X169004956Y-117133238D01*
X168984318Y-117290000D01*
X168985396Y-117298188D01*
X169002735Y-117429888D01*
X169004956Y-117446762D01*
X169065464Y-117592841D01*
X169161718Y-117718282D01*
X169287159Y-117814536D01*
X169433238Y-117875044D01*
X169590000Y-117895682D01*
X169598188Y-117894604D01*
X169738574Y-117876122D01*
X169746762Y-117875044D01*
X169892841Y-117814536D01*
X170018282Y-117718282D01*
X170114536Y-117592841D01*
X170175044Y-117446762D01*
X170177266Y-117429888D01*
X170194604Y-117298188D01*
X170195682Y-117290000D01*
X170175044Y-117133238D01*
X170155082Y-117085044D01*
X170142520Y-117054718D01*
X170134931Y-116984128D01*
X170166710Y-116920641D01*
X170227768Y-116884414D01*
X170258929Y-116880500D01*
X170284748Y-116880500D01*
X170311167Y-116875245D01*
X170331061Y-116871288D01*
X170331062Y-116871288D01*
X170343231Y-116868867D01*
X170409552Y-116824552D01*
X170453867Y-116758231D01*
X170465500Y-116699748D01*
X171334500Y-116699748D01*
X171346133Y-116758231D01*
X171390448Y-116824552D01*
X171456769Y-116868867D01*
X171468938Y-116871288D01*
X171468939Y-116871288D01*
X171488833Y-116875245D01*
X171515252Y-116880500D01*
X172824748Y-116880500D01*
X172851167Y-116875245D01*
X172871061Y-116871288D01*
X172871062Y-116871288D01*
X172883231Y-116868867D01*
X172949552Y-116824552D01*
X172993867Y-116758231D01*
X173005500Y-116699748D01*
X173005500Y-113924643D01*
X173025502Y-113856522D01*
X173042405Y-113835547D01*
X173296759Y-113581194D01*
X173359071Y-113547169D01*
X173402298Y-113545368D01*
X173469140Y-113554168D01*
X173477328Y-113553090D01*
X173489968Y-113551426D01*
X173597585Y-113537258D01*
X173617714Y-113534608D01*
X173625902Y-113533530D01*
X173633529Y-113530371D01*
X173633532Y-113530370D01*
X173700282Y-113502721D01*
X173770872Y-113495132D01*
X173834359Y-113526911D01*
X173870586Y-113587970D01*
X173874500Y-113619130D01*
X173874500Y-116699748D01*
X173886133Y-116758231D01*
X173930448Y-116824552D01*
X173996769Y-116868867D01*
X174008938Y-116871288D01*
X174008939Y-116871288D01*
X174028833Y-116875245D01*
X174055252Y-116880500D01*
X175364748Y-116880500D01*
X175391167Y-116875245D01*
X175411061Y-116871288D01*
X175411062Y-116871288D01*
X175423231Y-116868867D01*
X175489552Y-116824552D01*
X175533867Y-116758231D01*
X175545500Y-116699748D01*
X175545500Y-116690016D01*
X175546025Y-116688227D01*
X175546107Y-116687398D01*
X175546264Y-116687413D01*
X175565502Y-116621895D01*
X175619158Y-116575402D01*
X175689432Y-116565298D01*
X175754012Y-116594792D01*
X175760595Y-116600921D01*
X175897595Y-116737921D01*
X175931621Y-116800233D01*
X175934500Y-116827016D01*
X175934500Y-117690714D01*
X175914498Y-117758835D01*
X175885204Y-117790677D01*
X175831718Y-117831718D01*
X175735464Y-117957159D01*
X175674956Y-118103238D01*
X175654318Y-118260000D01*
X175674956Y-118416762D01*
X175735464Y-118562841D01*
X175740491Y-118569392D01*
X175818819Y-118671471D01*
X175831718Y-118688282D01*
X175957159Y-118784536D01*
X176103238Y-118845044D01*
X176260000Y-118865682D01*
X176268188Y-118864604D01*
X176408574Y-118846122D01*
X176416762Y-118845044D01*
X176562841Y-118784536D01*
X176688282Y-118688282D01*
X176701182Y-118671471D01*
X176779509Y-118569392D01*
X176784536Y-118562841D01*
X176844891Y-118417131D01*
X176844893Y-118417128D01*
X176845044Y-118416762D01*
X176845101Y-118416786D01*
X176879948Y-118359617D01*
X176943809Y-118328595D01*
X177014303Y-118337024D01*
X177067392Y-118380858D01*
X177067408Y-118380897D01*
X177107472Y-118433109D01*
X177158173Y-118499184D01*
X177163662Y-118506338D01*
X177289103Y-118602592D01*
X177435182Y-118663100D01*
X177591944Y-118683738D01*
X177600132Y-118682660D01*
X177740518Y-118664178D01*
X177748706Y-118663100D01*
X177894785Y-118602592D01*
X178020226Y-118506338D01*
X178025716Y-118499184D01*
X178111453Y-118387448D01*
X178116480Y-118380897D01*
X178176988Y-118234818D01*
X178197626Y-118078056D01*
X178176988Y-117921294D01*
X178116480Y-117775215D01*
X178020226Y-117649774D01*
X178013365Y-117644509D01*
X177954567Y-117599392D01*
X177894785Y-117553520D01*
X177766997Y-117500588D01*
X177756335Y-117496172D01*
X177748706Y-117493012D01*
X177713181Y-117488335D01*
X177685054Y-117484632D01*
X177620126Y-117455910D01*
X177581035Y-117396644D01*
X177575500Y-117359710D01*
X177575500Y-117006500D01*
X177595502Y-116938379D01*
X177649158Y-116891886D01*
X177701500Y-116880500D01*
X177904748Y-116880500D01*
X177931167Y-116875245D01*
X177951061Y-116871288D01*
X177951062Y-116871288D01*
X177963231Y-116868867D01*
X178029552Y-116824552D01*
X178073867Y-116758231D01*
X178085500Y-116699748D01*
X178085500Y-113480252D01*
X178086482Y-113480252D01*
X178098660Y-113416024D01*
X178147498Y-113364493D01*
X178210827Y-113347422D01*
X181534906Y-113347422D01*
X181603027Y-113367424D01*
X181624001Y-113384327D01*
X182824578Y-114584905D01*
X182858604Y-114647217D01*
X182853539Y-114718033D01*
X182810992Y-114774868D01*
X182744472Y-114799679D01*
X182735483Y-114800000D01*
X181350000Y-114800000D01*
X181350000Y-115324000D01*
X181329998Y-115392121D01*
X181276342Y-115438614D01*
X181224000Y-115450000D01*
X180000000Y-115450000D01*
X180000000Y-116850000D01*
X183250000Y-116850000D01*
X183250000Y-115314517D01*
X183270002Y-115246396D01*
X183323658Y-115199903D01*
X183393932Y-115189799D01*
X183458512Y-115219293D01*
X183465095Y-115225422D01*
X183655895Y-115416222D01*
X183663321Y-115424325D01*
X183687545Y-115453194D01*
X183713391Y-115468116D01*
X183720184Y-115472038D01*
X183729452Y-115477942D01*
X183760316Y-115499553D01*
X183770962Y-115502406D01*
X183774130Y-115503883D01*
X183777407Y-115505076D01*
X183786955Y-115510588D01*
X183816508Y-115515799D01*
X183824069Y-115517132D01*
X183834803Y-115519512D01*
X183871193Y-115529263D01*
X183882169Y-115528303D01*
X183882172Y-115528303D01*
X183908731Y-115525979D01*
X183919712Y-115525500D01*
X184930714Y-115525500D01*
X184998835Y-115545502D01*
X185030677Y-115574796D01*
X185071718Y-115628282D01*
X185078264Y-115633305D01*
X185080481Y-115635006D01*
X185197159Y-115724536D01*
X185343238Y-115785044D01*
X185500000Y-115805682D01*
X185508188Y-115804604D01*
X185518838Y-115803202D01*
X185656762Y-115785044D01*
X185802841Y-115724536D01*
X185865395Y-115676537D01*
X185931616Y-115650937D01*
X185942099Y-115650500D01*
X186465780Y-115650500D01*
X186480589Y-115651373D01*
X186514310Y-115655364D01*
X186523574Y-115653672D01*
X186523575Y-115653672D01*
X186572001Y-115644828D01*
X186575904Y-115644178D01*
X186624645Y-115636850D01*
X186624646Y-115636850D01*
X186633962Y-115635449D01*
X186640475Y-115632321D01*
X186647573Y-115631025D01*
X186699647Y-115603975D01*
X186703137Y-115602232D01*
X186756079Y-115576809D01*
X186761365Y-115571923D01*
X186761413Y-115571890D01*
X186767788Y-115568579D01*
X186772828Y-115564275D01*
X186810055Y-115527048D01*
X186813621Y-115523618D01*
X186855556Y-115484854D01*
X186859249Y-115478495D01*
X186864766Y-115472337D01*
X188499698Y-113837405D01*
X188562010Y-113803379D01*
X188588793Y-113800500D01*
X190307901Y-113800500D01*
X190376022Y-113820502D01*
X190384605Y-113826537D01*
X190447159Y-113874536D01*
X190593238Y-113935044D01*
X190750000Y-113955682D01*
X190758188Y-113954604D01*
X190898574Y-113936122D01*
X190906762Y-113935044D01*
X191052841Y-113874536D01*
X191178282Y-113778282D01*
X191274536Y-113652841D01*
X191335044Y-113506762D01*
X191355682Y-113350000D01*
X191335044Y-113193238D01*
X191274536Y-113047159D01*
X191178282Y-112921718D01*
X191170613Y-112915833D01*
X191104574Y-112865160D01*
X191052841Y-112825464D01*
X190906762Y-112764956D01*
X190750000Y-112744318D01*
X190593238Y-112764956D01*
X190447159Y-112825464D01*
X190440608Y-112830491D01*
X190384605Y-112873463D01*
X190318384Y-112899063D01*
X190307901Y-112899500D01*
X188384220Y-112899500D01*
X188369411Y-112898627D01*
X188345043Y-112895743D01*
X188335690Y-112894636D01*
X188326426Y-112896328D01*
X188326425Y-112896328D01*
X188277999Y-112905172D01*
X188274096Y-112905822D01*
X188225355Y-112913150D01*
X188225354Y-112913150D01*
X188216038Y-112914551D01*
X188209525Y-112917679D01*
X188202427Y-112918975D01*
X188150353Y-112946025D01*
X188146863Y-112947768D01*
X188093921Y-112973191D01*
X188088635Y-112978077D01*
X188088587Y-112978110D01*
X188082212Y-112981421D01*
X188077172Y-112985725D01*
X188039945Y-113022952D01*
X188036380Y-113026381D01*
X187994444Y-113065146D01*
X187990751Y-113071505D01*
X187985234Y-113077663D01*
X186350302Y-114712595D01*
X186287990Y-114746621D01*
X186261207Y-114749500D01*
X185942099Y-114749500D01*
X185873978Y-114729498D01*
X185865395Y-114723463D01*
X185809392Y-114680491D01*
X185802841Y-114675464D01*
X185656762Y-114614956D01*
X185500000Y-114594318D01*
X185343238Y-114614956D01*
X185197159Y-114675464D01*
X185071718Y-114771718D01*
X185066695Y-114778264D01*
X185030677Y-114825204D01*
X184973339Y-114867071D01*
X184930714Y-114874500D01*
X184087017Y-114874500D01*
X184018896Y-114854498D01*
X183997922Y-114837595D01*
X181966032Y-112805706D01*
X181958605Y-112797602D01*
X181941463Y-112777173D01*
X181941464Y-112777173D01*
X181934377Y-112768728D01*
X181924828Y-112763215D01*
X181901737Y-112749883D01*
X181892466Y-112743977D01*
X181870637Y-112728692D01*
X181861606Y-112722368D01*
X181850956Y-112719514D01*
X181847788Y-112718037D01*
X181844512Y-112716845D01*
X181834967Y-112711334D01*
X181801223Y-112705384D01*
X181797864Y-112704792D01*
X181787137Y-112702414D01*
X181750729Y-112692658D01*
X181739744Y-112693619D01*
X181739742Y-112693619D01*
X181713194Y-112695942D01*
X181702212Y-112696422D01*
X176185197Y-112696422D01*
X176117076Y-112676420D01*
X176085234Y-112647126D01*
X176049216Y-112600186D01*
X176044193Y-112593640D01*
X175918752Y-112497386D01*
X175772673Y-112436878D01*
X175615911Y-112416240D01*
X175459149Y-112436878D01*
X175313070Y-112497386D01*
X175187629Y-112593640D01*
X175091375Y-112719081D01*
X175030867Y-112865160D01*
X175010229Y-113021922D01*
X175011307Y-113030110D01*
X175028019Y-113157054D01*
X175017079Y-113227203D01*
X174969951Y-113280301D01*
X174903097Y-113299500D01*
X174162295Y-113299500D01*
X174094174Y-113279498D01*
X174047681Y-113225842D01*
X174037577Y-113155568D01*
X174045885Y-113125284D01*
X174051024Y-113112877D01*
X174054184Y-113105248D01*
X174074822Y-112948486D01*
X174054184Y-112791724D01*
X173993676Y-112645645D01*
X173897422Y-112520204D01*
X173771981Y-112423950D01*
X173625902Y-112363442D01*
X173469140Y-112342804D01*
X173312378Y-112363442D01*
X173166299Y-112423950D01*
X173040858Y-112520204D01*
X172944604Y-112645645D01*
X172884096Y-112791724D01*
X172863458Y-112948486D01*
X172868351Y-112985648D01*
X172872258Y-113015326D01*
X172861319Y-113085475D01*
X172836431Y-113120868D01*
X172694704Y-113262595D01*
X172632392Y-113296621D01*
X172605609Y-113299500D01*
X171515252Y-113299500D01*
X171509184Y-113300707D01*
X171468939Y-113308712D01*
X171468938Y-113308712D01*
X171456769Y-113311133D01*
X171390448Y-113355448D01*
X171346133Y-113421769D01*
X171334500Y-113480252D01*
X171334500Y-116699748D01*
X170465500Y-116699748D01*
X170465500Y-113480252D01*
X170453867Y-113421769D01*
X170409552Y-113355448D01*
X170343231Y-113311133D01*
X170331062Y-113308712D01*
X170331061Y-113308712D01*
X170290816Y-113300707D01*
X170284748Y-113299500D01*
X169723577Y-113299500D01*
X169707131Y-113298422D01*
X169657660Y-113291909D01*
X169600000Y-113284318D01*
X169542340Y-113291909D01*
X169492869Y-113298422D01*
X169476423Y-113299500D01*
X168975252Y-113299500D01*
X168969184Y-113300707D01*
X168928939Y-113308712D01*
X168928938Y-113308712D01*
X168916769Y-113311133D01*
X168850448Y-113355448D01*
X168806133Y-113421769D01*
X168794500Y-113480252D01*
X168794500Y-116699748D01*
X162660578Y-116699748D01*
X162947921Y-116412405D01*
X163010233Y-116378379D01*
X163037016Y-116375500D01*
X164155714Y-116375500D01*
X164223835Y-116395502D01*
X164255677Y-116424796D01*
X164296718Y-116478282D01*
X164303264Y-116483305D01*
X164329299Y-116503282D01*
X164422159Y-116574536D01*
X164568238Y-116635044D01*
X164725000Y-116655682D01*
X164733188Y-116654604D01*
X164784035Y-116647910D01*
X164881762Y-116635044D01*
X165027841Y-116574536D01*
X165120701Y-116503282D01*
X165146736Y-116483305D01*
X165153282Y-116478282D01*
X165249536Y-116352841D01*
X165310044Y-116206762D01*
X165330682Y-116050000D01*
X165320363Y-115971619D01*
X165311122Y-115901426D01*
X165310044Y-115893238D01*
X165249536Y-115747159D01*
X165163478Y-115635006D01*
X165158305Y-115628264D01*
X165153282Y-115621718D01*
X165027841Y-115525464D01*
X164881762Y-115464956D01*
X164725000Y-115444318D01*
X164568238Y-115464956D01*
X164422159Y-115525464D01*
X164296718Y-115621718D01*
X164291695Y-115628264D01*
X164255677Y-115675204D01*
X164198339Y-115717071D01*
X164155714Y-115724500D01*
X163401956Y-115724500D01*
X163333835Y-115704498D01*
X163287342Y-115650842D01*
X163277238Y-115580568D01*
X163306732Y-115515988D01*
X163343407Y-115486929D01*
X169606348Y-112200300D01*
X172410114Y-110728956D01*
X192005489Y-100445811D01*
X192047623Y-100416215D01*
X192050620Y-100413471D01*
X192050627Y-100413465D01*
X192093959Y-100373785D01*
X192093975Y-100373770D01*
X192095071Y-100372766D01*
X192108449Y-100359294D01*
X192151901Y-100281612D01*
X192171903Y-100213491D01*
X192180004Y-100157145D01*
X192180004Y-98048607D01*
X192176311Y-98010352D01*
X192167091Y-97963039D01*
X192127481Y-97877012D01*
X192122793Y-97871101D01*
X192086161Y-97824914D01*
X192086156Y-97824909D01*
X192083363Y-97821387D01*
X192080101Y-97818302D01*
X192080097Y-97818298D01*
X192062683Y-97801831D01*
X192042003Y-97782275D01*
X189948122Y-96304241D01*
X189020306Y-95649312D01*
X187976657Y-94912618D01*
X187932539Y-94856993D01*
X187923420Y-94814716D01*
X187681547Y-88767890D01*
X187681546Y-88767885D01*
X187681362Y-88763274D01*
X187670553Y-88705945D01*
X187646800Y-88637209D01*
X187619905Y-88585434D01*
X184455777Y-84204334D01*
X184437769Y-84182770D01*
X184413289Y-84157325D01*
X184343077Y-84110147D01*
X184277107Y-84083908D01*
X184253865Y-84076274D01*
X184164902Y-84073447D01*
X184095219Y-84087039D01*
X184041465Y-84105779D01*
X181246229Y-85554753D01*
X180685069Y-85845643D01*
X176826842Y-87845643D01*
X149819246Y-101845643D01*
X146109615Y-103768614D01*
X146109608Y-103768618D01*
X146105974Y-103770502D01*
X146063320Y-103800223D01*
X146060287Y-103802987D01*
X146060285Y-103802988D01*
X146050594Y-103811818D01*
X146015309Y-103843966D01*
X146014247Y-103845033D01*
X146014229Y-103845050D01*
X146009762Y-103849538D01*
X146001558Y-103857779D01*
X145958107Y-103935461D01*
X145948889Y-103966857D01*
X145938106Y-104003580D01*
X145930004Y-104059927D01*
X145930004Y-106158739D01*
X144149936Y-106158739D01*
X144144181Y-102475968D01*
X144100000Y-74200000D01*
X179019990Y-74200000D01*
X179088111Y-74220002D01*
G37*
G04 #@! TD.AperFunction*
G04 #@! TA.AperFunction,Conductor*
G36*
X99232327Y-118873458D02*
G01*
X99311739Y-118893847D01*
X99341107Y-118905475D01*
X99363463Y-118917766D01*
X99363483Y-118917776D01*
X99412955Y-118944973D01*
X99438503Y-118963535D01*
X99482032Y-119004411D01*
X99488404Y-119010395D01*
X99488409Y-119010400D01*
X99498275Y-119019666D01*
X99518401Y-119043995D01*
X99562334Y-119113221D01*
X99575782Y-119141799D01*
X99585600Y-119172016D01*
X99585601Y-119172019D01*
X99601121Y-119219783D01*
X99607038Y-119250806D01*
X99609101Y-119283603D01*
X99612185Y-119332628D01*
X99610202Y-119364148D01*
X99594840Y-119444680D01*
X99585081Y-119474716D01*
X99574584Y-119497023D01*
X99550170Y-119548906D01*
X99533247Y-119575572D01*
X99480970Y-119638765D01*
X99460822Y-119658233D01*
X99459571Y-119659197D01*
X99458107Y-119660261D01*
X99456719Y-119661396D01*
X99456706Y-119661406D01*
X99449267Y-119667490D01*
X99440427Y-119674718D01*
X99419264Y-119694142D01*
X99372577Y-119758402D01*
X99343083Y-119822982D01*
X99334299Y-119845819D01*
X99330653Y-119890403D01*
X99327065Y-119934271D01*
X99301576Y-120000534D01*
X99244310Y-120042499D01*
X99201484Y-120050000D01*
X98287024Y-120050000D01*
X98269819Y-120048047D01*
X98264188Y-120048037D01*
X98250358Y-120044857D01*
X98236516Y-120047989D01*
X98232208Y-120047982D01*
X98221444Y-120047502D01*
X98114751Y-120038167D01*
X98048633Y-120012304D01*
X98006993Y-119954800D01*
X98003053Y-119883913D01*
X98007124Y-119871495D01*
X98007273Y-119871232D01*
X98017414Y-119837411D01*
X98027112Y-119805066D01*
X98027115Y-119805054D01*
X98027663Y-119803227D01*
X98033243Y-119779408D01*
X98031156Y-119741835D01*
X98028699Y-119697603D01*
X98028698Y-119697599D01*
X98028306Y-119690537D01*
X98008694Y-119622306D01*
X97985342Y-119570390D01*
X97966586Y-119540835D01*
X97957664Y-119526776D01*
X97944217Y-119498199D01*
X97918882Y-119420226D01*
X97912964Y-119389202D01*
X97907955Y-119309594D01*
X97907955Y-119309592D01*
X97907815Y-119307372D01*
X97907862Y-119306633D01*
X97907706Y-119301682D01*
X97907706Y-119301681D01*
X97908173Y-119301681D01*
X97909798Y-119275847D01*
X97915973Y-119243478D01*
X97925161Y-119195316D01*
X97934920Y-119165282D01*
X97969829Y-119091097D01*
X97986752Y-119064430D01*
X98039018Y-119001251D01*
X98062043Y-118979629D01*
X98066788Y-118976182D01*
X98106216Y-118947536D01*
X98128367Y-118931442D01*
X98156043Y-118916228D01*
X98228492Y-118887543D01*
X98228504Y-118887538D01*
X98232272Y-118886046D01*
X98262867Y-118878190D01*
X98286377Y-118875220D01*
X98323788Y-118870494D01*
X98339580Y-118869500D01*
X99200993Y-118869500D01*
X99232327Y-118873458D01*
G37*
G04 #@! TD.AperFunction*
G04 #@! TA.AperFunction,Conductor*
G36*
X103552327Y-118873458D02*
G01*
X103631739Y-118893847D01*
X103661107Y-118905475D01*
X103683463Y-118917766D01*
X103683483Y-118917776D01*
X103732955Y-118944973D01*
X103758503Y-118963535D01*
X103802032Y-119004411D01*
X103808404Y-119010395D01*
X103808409Y-119010400D01*
X103818275Y-119019666D01*
X103838401Y-119043995D01*
X103882334Y-119113221D01*
X103895782Y-119141799D01*
X103905600Y-119172016D01*
X103905601Y-119172019D01*
X103921121Y-119219783D01*
X103927038Y-119250806D01*
X103929101Y-119283603D01*
X103932185Y-119332628D01*
X103930202Y-119364148D01*
X103914840Y-119444680D01*
X103905081Y-119474716D01*
X103894584Y-119497023D01*
X103870170Y-119548906D01*
X103853247Y-119575572D01*
X103800970Y-119638765D01*
X103780822Y-119658233D01*
X103779571Y-119659197D01*
X103778107Y-119660261D01*
X103776719Y-119661396D01*
X103776706Y-119661406D01*
X103769267Y-119667490D01*
X103760427Y-119674718D01*
X103739264Y-119694142D01*
X103692577Y-119758402D01*
X103663083Y-119822982D01*
X103654299Y-119845819D01*
X103650653Y-119890403D01*
X103647065Y-119934271D01*
X103621576Y-120000534D01*
X103564310Y-120042499D01*
X103521484Y-120050000D01*
X102336122Y-120050000D01*
X102268001Y-120029998D01*
X102221508Y-119976342D01*
X102210223Y-119918967D01*
X102210850Y-119903278D01*
X102210927Y-119901354D01*
X102210408Y-119876898D01*
X102203446Y-119854924D01*
X102185665Y-119798797D01*
X102185664Y-119798795D01*
X102183526Y-119792046D01*
X102176101Y-119779408D01*
X102149844Y-119734719D01*
X102149841Y-119734715D01*
X102147561Y-119730834D01*
X102112033Y-119686358D01*
X102107059Y-119681687D01*
X102107057Y-119681685D01*
X102041728Y-119620337D01*
X102021596Y-119596002D01*
X101977664Y-119526777D01*
X101964216Y-119498197D01*
X101938882Y-119420225D01*
X101932964Y-119389202D01*
X101927955Y-119309594D01*
X101927955Y-119309592D01*
X101927815Y-119307372D01*
X101927862Y-119306633D01*
X101927706Y-119301682D01*
X101927706Y-119301681D01*
X101928173Y-119301681D01*
X101929798Y-119275847D01*
X101935973Y-119243478D01*
X101945161Y-119195316D01*
X101954920Y-119165282D01*
X101989829Y-119091097D01*
X102006752Y-119064430D01*
X102059018Y-119001251D01*
X102082043Y-118979629D01*
X102086788Y-118976182D01*
X102126216Y-118947536D01*
X102148367Y-118931442D01*
X102176043Y-118916228D01*
X102248492Y-118887543D01*
X102248504Y-118887538D01*
X102252272Y-118886046D01*
X102282867Y-118878190D01*
X102306377Y-118875220D01*
X102343788Y-118870494D01*
X102359580Y-118869500D01*
X103520993Y-118869500D01*
X103552327Y-118873458D01*
G37*
G04 #@! TD.AperFunction*
G04 #@! TA.AperFunction,Conductor*
G36*
X99633512Y-104294292D02*
G01*
X99640095Y-104300421D01*
X105781378Y-110441704D01*
X105788805Y-110449808D01*
X105794248Y-110456294D01*
X105813034Y-110478683D01*
X105822583Y-110484196D01*
X105845674Y-110497528D01*
X105854945Y-110503434D01*
X105885805Y-110525043D01*
X105896455Y-110527897D01*
X105899623Y-110529374D01*
X105902899Y-110530566D01*
X105912444Y-110536077D01*
X105946188Y-110542027D01*
X105949547Y-110542619D01*
X105960274Y-110544997D01*
X105996682Y-110554753D01*
X106007658Y-110553793D01*
X106007661Y-110553793D01*
X106034232Y-110551468D01*
X106045213Y-110550989D01*
X107463799Y-110550989D01*
X107531920Y-110570991D01*
X107578413Y-110624647D01*
X107588517Y-110694921D01*
X107559023Y-110759501D01*
X107553174Y-110765783D01*
X107546718Y-110770737D01*
X107450464Y-110896178D01*
X107389956Y-111042257D01*
X107388878Y-111050445D01*
X107387551Y-111060522D01*
X107369318Y-111199019D01*
X107389956Y-111355781D01*
X107418713Y-111425205D01*
X107434408Y-111463097D01*
X107443999Y-111511315D01*
X107443999Y-114874789D01*
X107443519Y-114885771D01*
X107442878Y-114893103D01*
X107440235Y-114923306D01*
X107446947Y-114948354D01*
X107449990Y-114959709D01*
X107452369Y-114970441D01*
X107458911Y-115007544D01*
X107464422Y-115017089D01*
X107465614Y-115020365D01*
X107467091Y-115023533D01*
X107469945Y-115034183D01*
X107476269Y-115043214D01*
X107491554Y-115065043D01*
X107497460Y-115074314D01*
X107510792Y-115097405D01*
X107516305Y-115106954D01*
X107524750Y-115114040D01*
X107545181Y-115131184D01*
X107553284Y-115138610D01*
X109399579Y-116984905D01*
X109433605Y-117047217D01*
X109428540Y-117118032D01*
X109385993Y-117174868D01*
X109319473Y-117199679D01*
X109310484Y-117200000D01*
X102963403Y-117200000D01*
X102958937Y-117200639D01*
X102911762Y-117207388D01*
X102911761Y-117207388D01*
X102907324Y-117208023D01*
X102903019Y-117209281D01*
X102903017Y-117209281D01*
X102852599Y-117224009D01*
X102839498Y-117227836D01*
X102816734Y-117236010D01*
X102809470Y-117241302D01*
X102763488Y-117274801D01*
X102744792Y-117288421D01*
X102698150Y-117341947D01*
X102688616Y-117354344D01*
X102631237Y-117396149D01*
X102560362Y-117400296D01*
X102552653Y-117398255D01*
X102524739Y-117389907D01*
X102515763Y-117389852D01*
X102515762Y-117389852D01*
X102455555Y-117389484D01*
X102381376Y-117389031D01*
X102343843Y-117399758D01*
X102272848Y-117399246D01*
X102213400Y-117360432D01*
X102205354Y-117349942D01*
X102204660Y-117348931D01*
X102201332Y-117342686D01*
X102196700Y-117337340D01*
X102196697Y-117337336D01*
X102156091Y-117290475D01*
X102154839Y-117289030D01*
X102137717Y-117271555D01*
X102060035Y-117228103D01*
X102026570Y-117218277D01*
X101996237Y-117209370D01*
X101996233Y-117209369D01*
X101991914Y-117208101D01*
X101987466Y-117207461D01*
X101987459Y-117207460D01*
X101940016Y-117200639D01*
X101940009Y-117200639D01*
X101935568Y-117200000D01*
X101126000Y-117200000D01*
X101057879Y-117179998D01*
X101011386Y-117126342D01*
X101000000Y-117074000D01*
X101000000Y-117006500D01*
X100995430Y-116963988D01*
X100984044Y-116911646D01*
X100981622Y-116901738D01*
X100939764Y-116823186D01*
X100893271Y-116769530D01*
X100876149Y-116752055D01*
X100798467Y-116708603D01*
X100757098Y-116696456D01*
X100734669Y-116689870D01*
X100734665Y-116689869D01*
X100730346Y-116688601D01*
X100725898Y-116687961D01*
X100725891Y-116687960D01*
X100678448Y-116681139D01*
X100678441Y-116681139D01*
X100674000Y-116680500D01*
X100540500Y-116680500D01*
X100472379Y-116660498D01*
X100425886Y-116606842D01*
X100414500Y-116554500D01*
X100414500Y-114971951D01*
X101779547Y-114971951D01*
X101800185Y-115128713D01*
X101860693Y-115274792D01*
X101956947Y-115400233D01*
X102082388Y-115496487D01*
X102228467Y-115556995D01*
X102385229Y-115577633D01*
X102393417Y-115576555D01*
X102471586Y-115566264D01*
X102541991Y-115556995D01*
X102542276Y-115559159D01*
X102594964Y-115559161D01*
X102609216Y-115562980D01*
X102621471Y-115566264D01*
X102632456Y-115565303D01*
X102632458Y-115565303D01*
X102659006Y-115562980D01*
X102669988Y-115562500D01*
X104735424Y-115562500D01*
X104803545Y-115582502D01*
X104835387Y-115611796D01*
X104860782Y-115644891D01*
X104876428Y-115665282D01*
X105001869Y-115761536D01*
X105147948Y-115822044D01*
X105304710Y-115842682D01*
X105312898Y-115841604D01*
X105453284Y-115823122D01*
X105461472Y-115822044D01*
X105607551Y-115761536D01*
X105732992Y-115665282D01*
X105829246Y-115539841D01*
X105889754Y-115393762D01*
X105910392Y-115237000D01*
X105889754Y-115080238D01*
X105829246Y-114934159D01*
X105732992Y-114808718D01*
X105607551Y-114712464D01*
X105461472Y-114651956D01*
X105409054Y-114645055D01*
X105383091Y-114641637D01*
X105304710Y-114631318D01*
X105226329Y-114641637D01*
X105200367Y-114645055D01*
X105147948Y-114651956D01*
X105001869Y-114712464D01*
X104876428Y-114808718D01*
X104871405Y-114815264D01*
X104835387Y-114862204D01*
X104778049Y-114904071D01*
X104735424Y-114911500D01*
X103091647Y-114911500D01*
X103023526Y-114891498D01*
X102977033Y-114837842D01*
X102971072Y-114821259D01*
X102970273Y-114815189D01*
X102947278Y-114759673D01*
X102940140Y-114742442D01*
X102909765Y-114669110D01*
X102813511Y-114543669D01*
X102688070Y-114447415D01*
X102541991Y-114386907D01*
X102385229Y-114366269D01*
X102228467Y-114386907D01*
X102082388Y-114447415D01*
X101956947Y-114543669D01*
X101860693Y-114669110D01*
X101800185Y-114815189D01*
X101779547Y-114971951D01*
X100414500Y-114971951D01*
X100414500Y-113625500D01*
X100434502Y-113557379D01*
X100488158Y-113510886D01*
X100540500Y-113499500D01*
X100674000Y-113499500D01*
X100677346Y-113499140D01*
X100677352Y-113499140D01*
X100691436Y-113497626D01*
X100716512Y-113494930D01*
X100768854Y-113483544D01*
X100778762Y-113481122D01*
X100857314Y-113439264D01*
X100910970Y-113392771D01*
X100928445Y-113375649D01*
X100971897Y-113297967D01*
X100987318Y-113245449D01*
X100990630Y-113234169D01*
X100990631Y-113234165D01*
X100991899Y-113229846D01*
X100992540Y-113225391D01*
X100999361Y-113177948D01*
X100999361Y-113177941D01*
X101000000Y-113173500D01*
X101000000Y-112103823D01*
X101944391Y-112103823D01*
X101945555Y-112112725D01*
X101945555Y-112112728D01*
X101946814Y-112122354D01*
X101962980Y-112245979D01*
X102020720Y-112377203D01*
X102026497Y-112384076D01*
X102026498Y-112384077D01*
X102033792Y-112392754D01*
X102112970Y-112486948D01*
X102120447Y-112491925D01*
X102220151Y-112558294D01*
X102232313Y-112566390D01*
X102369157Y-112609142D01*
X102378129Y-112609306D01*
X102378132Y-112609307D01*
X102443463Y-112610504D01*
X102512499Y-112611770D01*
X102521533Y-112609307D01*
X102642158Y-112576421D01*
X102642160Y-112576420D01*
X102650817Y-112574060D01*
X102772991Y-112499045D01*
X102799726Y-112469509D01*
X102863178Y-112399407D01*
X102869200Y-112392754D01*
X102931710Y-112263733D01*
X102955496Y-112122354D01*
X102955647Y-112110000D01*
X102945490Y-112039075D01*
X102936596Y-111976968D01*
X102936595Y-111976965D01*
X102935323Y-111968082D01*
X102930825Y-111958188D01*
X102896857Y-111883481D01*
X102875984Y-111837572D01*
X102837783Y-111793238D01*
X102788260Y-111735763D01*
X102788257Y-111735760D01*
X102782400Y-111728963D01*
X102662095Y-111650985D01*
X102524739Y-111609907D01*
X102515763Y-111609852D01*
X102515762Y-111609852D01*
X102455555Y-111609484D01*
X102381376Y-111609031D01*
X102243529Y-111648428D01*
X102122280Y-111724930D01*
X102116338Y-111731658D01*
X102116337Y-111731659D01*
X102106511Y-111742785D01*
X102027377Y-111832388D01*
X101966447Y-111962163D01*
X101944391Y-112103823D01*
X101000000Y-112103823D01*
X101000000Y-108652190D01*
X100998854Y-108630814D01*
X100995975Y-108604031D01*
X100972656Y-108529555D01*
X100942868Y-108475004D01*
X100940788Y-108471194D01*
X100940785Y-108471189D01*
X100938630Y-108467243D01*
X100904516Y-108421674D01*
X100706110Y-108223268D01*
X100672084Y-108160956D01*
X100677149Y-108090141D01*
X100706265Y-108044922D01*
X100809265Y-107942281D01*
X100858397Y-107893320D01*
X100997582Y-107699623D01*
X101016843Y-107660653D01*
X101100969Y-107490437D01*
X101100970Y-107490435D01*
X101103263Y-107485795D01*
X101172600Y-107257577D01*
X101173275Y-107252451D01*
X101203296Y-107024421D01*
X101203297Y-107024414D01*
X101203733Y-107021099D01*
X101203936Y-107012802D01*
X101205389Y-106953364D01*
X101205389Y-106953360D01*
X101205471Y-106950000D01*
X101196154Y-106836673D01*
X101186351Y-106717435D01*
X101186350Y-106717429D01*
X101185927Y-106712284D01*
X101149860Y-106568694D01*
X101129080Y-106485963D01*
X101129079Y-106485959D01*
X101127821Y-106480952D01*
X101032712Y-106262216D01*
X100903155Y-106061951D01*
X100863740Y-106018634D01*
X100746107Y-105889358D01*
X100746105Y-105889357D01*
X100742629Y-105885536D01*
X100738578Y-105882337D01*
X100738574Y-105882333D01*
X100559500Y-105740909D01*
X100559496Y-105740907D01*
X100555445Y-105737707D01*
X100346631Y-105622436D01*
X100341762Y-105620712D01*
X100341758Y-105620710D01*
X100126663Y-105544541D01*
X100126661Y-105544540D01*
X100121794Y-105542817D01*
X100004383Y-105521902D01*
X99892060Y-105501894D01*
X99892056Y-105501894D01*
X99886972Y-105500988D01*
X99803140Y-105499964D01*
X99653640Y-105498137D01*
X99653638Y-105498137D01*
X99648471Y-105498074D01*
X99570059Y-105510073D01*
X99499697Y-105500605D01*
X99445623Y-105454600D01*
X99425000Y-105385523D01*
X99425000Y-104389516D01*
X99445002Y-104321395D01*
X99498658Y-104274902D01*
X99568932Y-104264798D01*
X99633512Y-104294292D01*
G37*
G04 #@! TD.AperFunction*
G04 #@! TA.AperFunction,Conductor*
G36*
X107885076Y-83313320D02*
G01*
X107929305Y-83341454D01*
X107930148Y-83342281D01*
X107957610Y-83369236D01*
X107961232Y-83371895D01*
X107961233Y-83371896D01*
X107999869Y-83400262D01*
X107999877Y-83400267D01*
X108003496Y-83402924D01*
X108007463Y-83405042D01*
X108007467Y-83405045D01*
X127362160Y-93740798D01*
X143877840Y-102560468D01*
X143928507Y-102610200D01*
X143944486Y-102671414D01*
X143946307Y-103836915D01*
X143946524Y-103976003D01*
X106974658Y-84490830D01*
X103224658Y-88990830D01*
X103224658Y-94990830D01*
X101000000Y-96600000D01*
X101000000Y-101200000D01*
X131260870Y-117200000D01*
X116776055Y-117200000D01*
X116707934Y-117179998D01*
X116661441Y-117126342D01*
X116651133Y-117090446D01*
X116636122Y-116976426D01*
X116635044Y-116968238D01*
X116574536Y-116822159D01*
X116478282Y-116696718D01*
X116469358Y-116689870D01*
X116439687Y-116667103D01*
X116352841Y-116600464D01*
X116206762Y-116539956D01*
X116050000Y-116519318D01*
X115893238Y-116539956D01*
X115747159Y-116600464D01*
X115660313Y-116667103D01*
X115630643Y-116689870D01*
X115621718Y-116696718D01*
X115616695Y-116703264D01*
X115580677Y-116750204D01*
X115523339Y-116792071D01*
X115480714Y-116799500D01*
X110187016Y-116799500D01*
X110118895Y-116779498D01*
X110097921Y-116762595D01*
X108131904Y-114796578D01*
X108097878Y-114734266D01*
X108094999Y-114707483D01*
X108094999Y-111883481D01*
X108115001Y-111815360D01*
X108172782Y-111767072D01*
X108204501Y-111753934D01*
X108275091Y-111746345D01*
X108338578Y-111778125D01*
X108374804Y-111839184D01*
X108377640Y-111886788D01*
X108369318Y-111950000D01*
X108389956Y-112106762D01*
X108450464Y-112252841D01*
X108546718Y-112378282D01*
X108672159Y-112474536D01*
X108818238Y-112535044D01*
X108826426Y-112536122D01*
X108852708Y-112539582D01*
X108975000Y-112555682D01*
X108983188Y-112554604D01*
X109123574Y-112536122D01*
X109131762Y-112535044D01*
X109277841Y-112474536D01*
X109403282Y-112378282D01*
X109499536Y-112252841D01*
X109560044Y-112106762D01*
X109580682Y-111950000D01*
X109571882Y-111883158D01*
X109582821Y-111813011D01*
X109607709Y-111777617D01*
X109858435Y-111526892D01*
X109920747Y-111492867D01*
X109963976Y-111491066D01*
X110066811Y-111504604D01*
X110066812Y-111504604D01*
X110075000Y-111505682D01*
X110083188Y-111504604D01*
X110223574Y-111486122D01*
X110231762Y-111485044D01*
X110377841Y-111424536D01*
X110503282Y-111328282D01*
X110599536Y-111202841D01*
X110660044Y-111056762D01*
X110680682Y-110900000D01*
X110660044Y-110743238D01*
X110652576Y-110725209D01*
X110644986Y-110654619D01*
X110676764Y-110591132D01*
X110737822Y-110554903D01*
X110768984Y-110550989D01*
X110966665Y-110550989D01*
X111034786Y-110570991D01*
X111081279Y-110624647D01*
X111091587Y-110660543D01*
X111095811Y-110692627D01*
X111109107Y-110793619D01*
X111169615Y-110939698D01*
X111220536Y-111006060D01*
X111249959Y-111044404D01*
X111265869Y-111065139D01*
X111272415Y-111070162D01*
X111282518Y-111077914D01*
X111391310Y-111161393D01*
X111501912Y-111207206D01*
X111537389Y-111221901D01*
X111536161Y-111224866D01*
X111583868Y-111253933D01*
X111614902Y-111317788D01*
X111615572Y-111355149D01*
X111605271Y-111433393D01*
X111625909Y-111590155D01*
X111686417Y-111736234D01*
X111782671Y-111861675D01*
X111908112Y-111957929D01*
X112054191Y-112018437D01*
X112210953Y-112039075D01*
X112219141Y-112037997D01*
X112359527Y-112019515D01*
X112367715Y-112018437D01*
X112513794Y-111957929D01*
X112639235Y-111861675D01*
X112735489Y-111736234D01*
X112795997Y-111590155D01*
X112816635Y-111433393D01*
X112795997Y-111276631D01*
X112790032Y-111262229D01*
X112768146Y-111209392D01*
X112735489Y-111130552D01*
X112720198Y-111110624D01*
X112694599Y-111044404D01*
X112694162Y-111033922D01*
X112694162Y-110377162D01*
X112694642Y-110366180D01*
X112696964Y-110339644D01*
X112696964Y-110339642D01*
X112697925Y-110328657D01*
X112692266Y-110307536D01*
X112688174Y-110292268D01*
X112685794Y-110281533D01*
X112681164Y-110255276D01*
X112679250Y-110244419D01*
X112673738Y-110234871D01*
X112672545Y-110231594D01*
X112671068Y-110228426D01*
X112668215Y-110217780D01*
X112646604Y-110186916D01*
X112640700Y-110177648D01*
X112627366Y-110154553D01*
X112621856Y-110145009D01*
X112592992Y-110120789D01*
X112584889Y-110113364D01*
X112081271Y-109609747D01*
X112073844Y-109601642D01*
X112066812Y-109593261D01*
X112049622Y-109572775D01*
X112028030Y-109560309D01*
X112016982Y-109553930D01*
X112007711Y-109548024D01*
X111985882Y-109532739D01*
X111976851Y-109526415D01*
X111966201Y-109523561D01*
X111963033Y-109522084D01*
X111959757Y-109520892D01*
X111950212Y-109515381D01*
X111916468Y-109509431D01*
X111913109Y-109508839D01*
X111902382Y-109506461D01*
X111865974Y-109496705D01*
X111854989Y-109497666D01*
X111854987Y-109497666D01*
X111828439Y-109499989D01*
X111817457Y-109500469D01*
X106512985Y-109500469D01*
X106444864Y-109480467D01*
X106423890Y-109463564D01*
X100436925Y-103476599D01*
X100402899Y-103414287D01*
X100400020Y-103387504D01*
X100400020Y-91056406D01*
X100420022Y-90988285D01*
X100436925Y-90967311D01*
X106290252Y-85113985D01*
X106298356Y-85106558D01*
X106318779Y-85089421D01*
X106327224Y-85082335D01*
X106346069Y-85049695D01*
X106351973Y-85040427D01*
X106367261Y-85018593D01*
X106373583Y-85009564D01*
X106376436Y-84998918D01*
X106377913Y-84995750D01*
X106379106Y-84992473D01*
X106384618Y-84982925D01*
X106391162Y-84945811D01*
X106393542Y-84935076D01*
X106400440Y-84909334D01*
X106403293Y-84898687D01*
X106400009Y-84861149D01*
X106399530Y-84850168D01*
X106399530Y-84746890D01*
X106419532Y-84678769D01*
X106436435Y-84657795D01*
X107751949Y-83342281D01*
X107814261Y-83308255D01*
X107885076Y-83313320D01*
G37*
G04 #@! TD.AperFunction*
G04 #@! TA.AperFunction,Conductor*
G36*
X99232328Y-110233459D02*
G01*
X99311741Y-110253849D01*
X99341097Y-110265470D01*
X99346597Y-110268493D01*
X99346608Y-110268499D01*
X99412951Y-110304971D01*
X99438504Y-110323536D01*
X99498271Y-110379661D01*
X99518403Y-110403997D01*
X99562336Y-110473224D01*
X99575784Y-110501802D01*
X99601119Y-110579775D01*
X99607037Y-110610800D01*
X99612185Y-110692627D01*
X99610202Y-110724148D01*
X99594840Y-110804680D01*
X99585080Y-110834718D01*
X99550171Y-110908903D01*
X99533248Y-110935570D01*
X99480982Y-110998749D01*
X99457958Y-111020370D01*
X99398374Y-111063660D01*
X99391637Y-111068555D01*
X99363960Y-111083772D01*
X99323345Y-111099852D01*
X99323344Y-111099852D01*
X99323337Y-111099855D01*
X99323330Y-111099857D01*
X99287720Y-111113956D01*
X99257134Y-111121810D01*
X99245377Y-111123295D01*
X99245375Y-111123295D01*
X99204636Y-111128441D01*
X99196209Y-111129506D01*
X99180417Y-111130500D01*
X98319007Y-111130500D01*
X98287672Y-111126541D01*
X98208258Y-111106151D01*
X98178892Y-111094525D01*
X98146456Y-111076693D01*
X98117040Y-111060521D01*
X98117039Y-111060520D01*
X98117031Y-111060516D01*
X98117027Y-111060513D01*
X98107046Y-111055026D01*
X98081492Y-111036460D01*
X98049121Y-111006061D01*
X98049120Y-111006060D01*
X98041334Y-110998749D01*
X98021728Y-110980338D01*
X98001596Y-110956002D01*
X97957664Y-110886776D01*
X97944216Y-110858197D01*
X97918882Y-110780225D01*
X97912964Y-110749203D01*
X97909404Y-110692627D01*
X97907815Y-110667373D01*
X97909798Y-110635860D01*
X97917665Y-110594616D01*
X97925163Y-110555310D01*
X97934919Y-110525283D01*
X97969829Y-110451095D01*
X97986750Y-110424431D01*
X98023787Y-110379661D01*
X98039019Y-110361249D01*
X98062043Y-110339629D01*
X98091807Y-110318005D01*
X98106216Y-110307536D01*
X98128367Y-110291442D01*
X98156043Y-110276228D01*
X98228492Y-110247543D01*
X98228504Y-110247538D01*
X98232272Y-110246046D01*
X98262867Y-110238190D01*
X98286377Y-110235220D01*
X98323788Y-110230494D01*
X98339580Y-110229500D01*
X99200993Y-110229500D01*
X99232328Y-110233459D01*
G37*
G04 #@! TD.AperFunction*
G04 #@! TA.AperFunction,Conductor*
G36*
X119303604Y-61220002D02*
G01*
X119350097Y-61273658D01*
X119360201Y-61343932D01*
X119330707Y-61408512D01*
X119324578Y-61415095D01*
X114283784Y-66455890D01*
X114275681Y-66463316D01*
X114246806Y-66487545D01*
X114241293Y-66497094D01*
X114227961Y-66520185D01*
X114222055Y-66529456D01*
X114200446Y-66560316D01*
X114197592Y-66570966D01*
X114196115Y-66574134D01*
X114194923Y-66577410D01*
X114189412Y-66586955D01*
X114183462Y-66620699D01*
X114182870Y-66624058D01*
X114180492Y-66634785D01*
X114170736Y-66671193D01*
X114171697Y-66682178D01*
X114171697Y-66682180D01*
X114174020Y-66708728D01*
X114174500Y-66719710D01*
X114174500Y-68855290D01*
X114174020Y-68866272D01*
X114170736Y-68903807D01*
X114177724Y-68929884D01*
X114180491Y-68940210D01*
X114182870Y-68950942D01*
X114189412Y-68988045D01*
X114194923Y-68997590D01*
X114196115Y-69000866D01*
X114197592Y-69004034D01*
X114200446Y-69014684D01*
X114206770Y-69023715D01*
X114222055Y-69045544D01*
X114227961Y-69054815D01*
X114238059Y-69072304D01*
X114246806Y-69087455D01*
X114255251Y-69094541D01*
X114275675Y-69111679D01*
X114283780Y-69119106D01*
X114842292Y-69677619D01*
X114876317Y-69739931D01*
X114878118Y-69783158D01*
X114869318Y-69850000D01*
X114889956Y-70006762D01*
X114950464Y-70152841D01*
X115046718Y-70278282D01*
X115172159Y-70374536D01*
X115318238Y-70435044D01*
X115326426Y-70436122D01*
X115453996Y-70452917D01*
X115518923Y-70481640D01*
X115558014Y-70540905D01*
X115558859Y-70611896D01*
X115526644Y-70666934D01*
X112806472Y-73387106D01*
X112744160Y-73421132D01*
X112717377Y-73424011D01*
X111345199Y-73424011D01*
X111334217Y-73423531D01*
X111307669Y-73421208D01*
X111307667Y-73421208D01*
X111296682Y-73420247D01*
X111260274Y-73430003D01*
X111249547Y-73432381D01*
X111246188Y-73432973D01*
X111212444Y-73438923D01*
X111202899Y-73444434D01*
X111199623Y-73445626D01*
X111196455Y-73447103D01*
X111185805Y-73449957D01*
X111154945Y-73471566D01*
X111145674Y-73477472D01*
X111122765Y-73490699D01*
X111113034Y-73496317D01*
X111105948Y-73504762D01*
X111088804Y-73525193D01*
X111081378Y-73533296D01*
X110402079Y-74212595D01*
X110339767Y-74246621D01*
X110312984Y-74249500D01*
X105962016Y-74249500D01*
X105893895Y-74229498D01*
X105872921Y-74212595D01*
X103271521Y-71611195D01*
X103237495Y-71548883D01*
X103234616Y-71522100D01*
X103234616Y-71203402D01*
X103254618Y-71135281D01*
X103283912Y-71103439D01*
X103330852Y-71067421D01*
X103337398Y-71062398D01*
X103433652Y-70936957D01*
X103494160Y-70790878D01*
X103514798Y-70634116D01*
X103494160Y-70477354D01*
X103433652Y-70331275D01*
X103337398Y-70205834D01*
X103211957Y-70109580D01*
X103065878Y-70049072D01*
X102909116Y-70028434D01*
X102752354Y-70049072D01*
X102606275Y-70109580D01*
X102480834Y-70205834D01*
X102384580Y-70331275D01*
X102324072Y-70477354D01*
X102303434Y-70634116D01*
X102324072Y-70790878D01*
X102384580Y-70936957D01*
X102480834Y-71062398D01*
X102487380Y-71067421D01*
X102534320Y-71103439D01*
X102576187Y-71160777D01*
X102583616Y-71203402D01*
X102583616Y-71689406D01*
X102583136Y-71700388D01*
X102579852Y-71737923D01*
X102582706Y-71748572D01*
X102589607Y-71774326D01*
X102591986Y-71785058D01*
X102592578Y-71788417D01*
X102598528Y-71822161D01*
X102604039Y-71831706D01*
X102605231Y-71834982D01*
X102606708Y-71838150D01*
X102609562Y-71848800D01*
X102615886Y-71857831D01*
X102631171Y-71879660D01*
X102637079Y-71888933D01*
X102650377Y-71911967D01*
X102667113Y-71980963D01*
X102643891Y-72048054D01*
X102588083Y-72091940D01*
X102557705Y-72099886D01*
X102443238Y-72114956D01*
X102297159Y-72175464D01*
X102171718Y-72271718D01*
X102075464Y-72397159D01*
X102014956Y-72543238D01*
X101994318Y-72700000D01*
X102014956Y-72856762D01*
X102075464Y-73002841D01*
X102118104Y-73058411D01*
X102167892Y-73123296D01*
X102193492Y-73189517D01*
X102179227Y-73259065D01*
X102167892Y-73276704D01*
X102075464Y-73397159D01*
X102015322Y-73542355D01*
X102015320Y-73542358D01*
X102014956Y-73543238D01*
X102014819Y-73543181D01*
X101980132Y-73600091D01*
X101916272Y-73631114D01*
X101845777Y-73622687D01*
X101806280Y-73595954D01*
X101537894Y-73327568D01*
X101503868Y-73265256D01*
X101500989Y-73238473D01*
X101500989Y-69611528D01*
X101520991Y-69543407D01*
X101537898Y-69522428D01*
X101547927Y-69512400D01*
X101610241Y-69478378D01*
X101637018Y-69475500D01*
X107669396Y-69475500D01*
X107737517Y-69495502D01*
X107784010Y-69549158D01*
X107794601Y-69597847D01*
X107794318Y-69600000D01*
X107814956Y-69756762D01*
X107875464Y-69902841D01*
X107971718Y-70028282D01*
X107978264Y-70033305D01*
X108025204Y-70069323D01*
X108067071Y-70126661D01*
X108074500Y-70169286D01*
X108074500Y-73155290D01*
X108074020Y-73166272D01*
X108070736Y-73203807D01*
X108080491Y-73240210D01*
X108082870Y-73250942D01*
X108089412Y-73288045D01*
X108094923Y-73297590D01*
X108096115Y-73300866D01*
X108097592Y-73304034D01*
X108100446Y-73314684D01*
X108121914Y-73345343D01*
X108122055Y-73345544D01*
X108127961Y-73354815D01*
X108138733Y-73373472D01*
X108146806Y-73387455D01*
X108155251Y-73394541D01*
X108175682Y-73411685D01*
X108183785Y-73419111D01*
X108555400Y-73790726D01*
X108562826Y-73798829D01*
X108587056Y-73827705D01*
X108596605Y-73833218D01*
X108619696Y-73846550D01*
X108628967Y-73852456D01*
X108659827Y-73874065D01*
X108670477Y-73876919D01*
X108673645Y-73878396D01*
X108676921Y-73879588D01*
X108686466Y-73885099D01*
X108720210Y-73891049D01*
X108723569Y-73891641D01*
X108734296Y-73894019D01*
X108770704Y-73903775D01*
X108781680Y-73902815D01*
X108781683Y-73902815D01*
X108808254Y-73900490D01*
X108819235Y-73900011D01*
X109605779Y-73900011D01*
X109616761Y-73900491D01*
X109643309Y-73902814D01*
X109643311Y-73902814D01*
X109654296Y-73903775D01*
X109690704Y-73894019D01*
X109701431Y-73891641D01*
X109704790Y-73891049D01*
X109738534Y-73885099D01*
X109748079Y-73879588D01*
X109751355Y-73878396D01*
X109754523Y-73876919D01*
X109765173Y-73874065D01*
X109796033Y-73852456D01*
X109805304Y-73846550D01*
X109828395Y-73833218D01*
X109837944Y-73827705D01*
X109862174Y-73798828D01*
X109869600Y-73790726D01*
X112427617Y-71232709D01*
X112489929Y-71198683D01*
X112533157Y-71196882D01*
X112600000Y-71205682D01*
X112608188Y-71204604D01*
X112748574Y-71186122D01*
X112756762Y-71185044D01*
X112902841Y-71124536D01*
X113028282Y-71028282D01*
X113124536Y-70902841D01*
X113185044Y-70756762D01*
X113205682Y-70600000D01*
X113185044Y-70443238D01*
X113124536Y-70297159D01*
X113028282Y-70171718D01*
X112902841Y-70075464D01*
X112756762Y-70014956D01*
X112600000Y-69994318D01*
X112443238Y-70014956D01*
X112297159Y-70075464D01*
X112171718Y-70171718D01*
X112075464Y-70297159D01*
X112014956Y-70443238D01*
X111994318Y-70600000D01*
X111998810Y-70634116D01*
X112003118Y-70666842D01*
X111992179Y-70736990D01*
X111967291Y-70772383D01*
X109527568Y-73212106D01*
X109465256Y-73246132D01*
X109438473Y-73249011D01*
X108986527Y-73249011D01*
X108918406Y-73229009D01*
X108897432Y-73212106D01*
X108762405Y-73077079D01*
X108728379Y-73014767D01*
X108725500Y-72987984D01*
X108725500Y-70169286D01*
X108745502Y-70101165D01*
X108774796Y-70069323D01*
X108821736Y-70033305D01*
X108828282Y-70028282D01*
X108924536Y-69902841D01*
X108985044Y-69756762D01*
X109005682Y-69600000D01*
X108985044Y-69443238D01*
X108924536Y-69297159D01*
X108828282Y-69171718D01*
X108702841Y-69075464D01*
X108556762Y-69014956D01*
X108400000Y-68994318D01*
X108333157Y-69003118D01*
X108263010Y-68992179D01*
X108227617Y-68967291D01*
X108194111Y-68933785D01*
X108186684Y-68925681D01*
X108169541Y-68905251D01*
X108169540Y-68905250D01*
X108162455Y-68896806D01*
X108152906Y-68891293D01*
X108129815Y-68877961D01*
X108120544Y-68872055D01*
X108112285Y-68866272D01*
X108089684Y-68850446D01*
X108079034Y-68847592D01*
X108075866Y-68846115D01*
X108072590Y-68844923D01*
X108063045Y-68839412D01*
X108029301Y-68833462D01*
X108025942Y-68832870D01*
X108015215Y-68830492D01*
X107978807Y-68820736D01*
X107967822Y-68821697D01*
X107967820Y-68821697D01*
X107941272Y-68824020D01*
X107930290Y-68824500D01*
X101469713Y-68824500D01*
X101458732Y-68824021D01*
X101432170Y-68821697D01*
X101432168Y-68821697D01*
X101421193Y-68820737D01*
X101384783Y-68830492D01*
X101374076Y-68832866D01*
X101336955Y-68839412D01*
X101327411Y-68844922D01*
X101324135Y-68846114D01*
X101320964Y-68847593D01*
X101310316Y-68850446D01*
X101301287Y-68856768D01*
X101279449Y-68872059D01*
X101270179Y-68877964D01*
X101247092Y-68891293D01*
X101247088Y-68891296D01*
X101237545Y-68896806D01*
X101230460Y-68905250D01*
X101213325Y-68925670D01*
X101205900Y-68933773D01*
X100959267Y-69180407D01*
X100951163Y-69187833D01*
X100922295Y-69212056D01*
X100916782Y-69221605D01*
X100903450Y-69244696D01*
X100897544Y-69253967D01*
X100875935Y-69284827D01*
X100873081Y-69295477D01*
X100871604Y-69298645D01*
X100870412Y-69301921D01*
X100864901Y-69311466D01*
X100861547Y-69330491D01*
X100858359Y-69348569D01*
X100855981Y-69359296D01*
X100846225Y-69395704D01*
X100847186Y-69406689D01*
X100847186Y-69406691D01*
X100849509Y-69433239D01*
X100849989Y-69444221D01*
X100849989Y-72097692D01*
X100829987Y-72165813D01*
X100776331Y-72212306D01*
X100706057Y-72222410D01*
X100641477Y-72192916D01*
X100626346Y-72177328D01*
X100502906Y-72025975D01*
X100502903Y-72025972D01*
X100499011Y-72021200D01*
X100412138Y-71949332D01*
X100345025Y-71893811D01*
X100345021Y-71893809D01*
X100340275Y-71889882D01*
X100159055Y-71791897D01*
X99962254Y-71730977D01*
X99956129Y-71730333D01*
X99956128Y-71730333D01*
X99763498Y-71710087D01*
X99763496Y-71710087D01*
X99757369Y-71709443D01*
X99670529Y-71717346D01*
X99558342Y-71727555D01*
X99558339Y-71727556D01*
X99552203Y-71728114D01*
X99354572Y-71786280D01*
X99172002Y-71881726D01*
X99167201Y-71885586D01*
X99167198Y-71885588D01*
X99016254Y-72006950D01*
X99011447Y-72010815D01*
X98879024Y-72168630D01*
X98876056Y-72174028D01*
X98876053Y-72174033D01*
X98852972Y-72216018D01*
X98779776Y-72349162D01*
X98717484Y-72545532D01*
X98716798Y-72551649D01*
X98716797Y-72551653D01*
X98702219Y-72681619D01*
X98694520Y-72750262D01*
X98711759Y-72955553D01*
X98713458Y-72961478D01*
X98727601Y-73010799D01*
X98768544Y-73153586D01*
X98771359Y-73159063D01*
X98771360Y-73159066D01*
X98854150Y-73320159D01*
X98862712Y-73336818D01*
X98990677Y-73498270D01*
X98995370Y-73502264D01*
X98995371Y-73502265D01*
X99110848Y-73600543D01*
X99147564Y-73631791D01*
X99152942Y-73634797D01*
X99152944Y-73634798D01*
X99184563Y-73652469D01*
X99327398Y-73732297D01*
X99407516Y-73758329D01*
X99517471Y-73794056D01*
X99517475Y-73794057D01*
X99523329Y-73795959D01*
X99727894Y-73820351D01*
X99734029Y-73819879D01*
X99734031Y-73819879D01*
X99790039Y-73815569D01*
X99933300Y-73804546D01*
X99939230Y-73802890D01*
X99939232Y-73802890D01*
X100125797Y-73750800D01*
X100125796Y-73750800D01*
X100131725Y-73749145D01*
X100137214Y-73746372D01*
X100137220Y-73746370D01*
X100310116Y-73659033D01*
X100315610Y-73656258D01*
X100477951Y-73529424D01*
X100499239Y-73504762D01*
X100561708Y-73432390D01*
X100612564Y-73373472D01*
X100615610Y-73368109D01*
X100618301Y-73364295D01*
X100673911Y-73320159D01*
X100744555Y-73313093D01*
X100807804Y-73345343D01*
X100843578Y-73406668D01*
X100845579Y-73432390D01*
X100846226Y-73432333D01*
X100847186Y-73443309D01*
X100846225Y-73454296D01*
X100855980Y-73490699D01*
X100858359Y-73501431D01*
X100864901Y-73538534D01*
X100870412Y-73548079D01*
X100871604Y-73551355D01*
X100873081Y-73554523D01*
X100875935Y-73565173D01*
X100882259Y-73574204D01*
X100897544Y-73596033D01*
X100903450Y-73605304D01*
X100916437Y-73627798D01*
X100922295Y-73637944D01*
X100930737Y-73645028D01*
X100951170Y-73662174D01*
X100959272Y-73669599D01*
X101792291Y-74502618D01*
X101826317Y-74564930D01*
X101828118Y-74608158D01*
X101819318Y-74675000D01*
X101820396Y-74683188D01*
X101834149Y-74787649D01*
X101827823Y-74845408D01*
X101823539Y-74852828D01*
X101821113Y-74866590D01*
X101816997Y-74889931D01*
X101814619Y-74900658D01*
X101804863Y-74937066D01*
X101805824Y-74948051D01*
X101805824Y-74948053D01*
X101808147Y-74974601D01*
X101808627Y-74985583D01*
X101808627Y-75835183D01*
X101808147Y-75846165D01*
X101804863Y-75883700D01*
X101807717Y-75894349D01*
X101814618Y-75920103D01*
X101816997Y-75930835D01*
X101823539Y-75967938D01*
X101829050Y-75977483D01*
X101830242Y-75980759D01*
X101831719Y-75983927D01*
X101834573Y-75994577D01*
X101840897Y-76003608D01*
X101856182Y-76025437D01*
X101862088Y-76034708D01*
X101875420Y-76057799D01*
X101880933Y-76067348D01*
X101889378Y-76074434D01*
X101909809Y-76091578D01*
X101917912Y-76099004D01*
X102245236Y-76426328D01*
X102279262Y-76488640D01*
X102274197Y-76559455D01*
X102231650Y-76616291D01*
X102204361Y-76631831D01*
X102096344Y-76676573D01*
X101970903Y-76772827D01*
X101874649Y-76898268D01*
X101814141Y-77044347D01*
X101793503Y-77201109D01*
X101814141Y-77357871D01*
X101874649Y-77503950D01*
X101970903Y-77629391D01*
X102096344Y-77725645D01*
X102196719Y-77767222D01*
X102251999Y-77811769D01*
X102274500Y-77883630D01*
X102274500Y-79962983D01*
X102254498Y-80031104D01*
X102237595Y-80052078D01*
X102222382Y-80067291D01*
X102160070Y-80101317D01*
X102116842Y-80103118D01*
X102050000Y-80094318D01*
X101893238Y-80114956D01*
X101747159Y-80175464D01*
X101621718Y-80271718D01*
X101525464Y-80397159D01*
X101464956Y-80543238D01*
X101444318Y-80700000D01*
X101464956Y-80856762D01*
X101525464Y-81002841D01*
X101621718Y-81128282D01*
X101747159Y-81224536D01*
X101893238Y-81285044D01*
X102050000Y-81305682D01*
X102058188Y-81304604D01*
X102198574Y-81286122D01*
X102206762Y-81285044D01*
X102352841Y-81224536D01*
X102478282Y-81128282D01*
X102574536Y-81002841D01*
X102635044Y-80856762D01*
X102655682Y-80700000D01*
X102646882Y-80633159D01*
X102657821Y-80563011D01*
X102682709Y-80527618D01*
X102816222Y-80394105D01*
X102824326Y-80386678D01*
X102844749Y-80369541D01*
X102853194Y-80362455D01*
X102872039Y-80329815D01*
X102877943Y-80320547D01*
X102893231Y-80298713D01*
X102899553Y-80289684D01*
X102902406Y-80279038D01*
X102903883Y-80275870D01*
X102905076Y-80272593D01*
X102910588Y-80263045D01*
X102917132Y-80225931D01*
X102919512Y-80215196D01*
X102926410Y-80189454D01*
X102929263Y-80178807D01*
X102925979Y-80141269D01*
X102925500Y-80130288D01*
X102925500Y-77524718D01*
X102935091Y-77476500D01*
X102935978Y-77474360D01*
X102984229Y-77357871D01*
X103004867Y-77201109D01*
X102997868Y-77147946D01*
X103008807Y-77077797D01*
X103055936Y-77024699D01*
X103122790Y-77005500D01*
X109152984Y-77005500D01*
X109221105Y-77025502D01*
X109242079Y-77042405D01*
X110027291Y-77827617D01*
X110061317Y-77889929D01*
X110063118Y-77933157D01*
X110054318Y-78000000D01*
X110074956Y-78156762D01*
X110135464Y-78302841D01*
X110231718Y-78428282D01*
X110357159Y-78524536D01*
X110503238Y-78585044D01*
X110563884Y-78593028D01*
X110628811Y-78621750D01*
X110667903Y-78681015D01*
X110668748Y-78752007D01*
X110636533Y-78807045D01*
X107675473Y-81768105D01*
X107643704Y-81791214D01*
X107125129Y-82056160D01*
X107055367Y-82069341D01*
X107020485Y-82060733D01*
X107005496Y-82054660D01*
X106994537Y-82050219D01*
X106994525Y-82050214D01*
X106992759Y-82049499D01*
X106990993Y-82048906D01*
X106934049Y-82006514D01*
X106909062Y-81940060D01*
X106918307Y-81882523D01*
X106960044Y-81781762D01*
X106980682Y-81625000D01*
X106960044Y-81468238D01*
X106899536Y-81322159D01*
X106803282Y-81196718D01*
X106677841Y-81100464D01*
X106531762Y-81039956D01*
X106375000Y-81019318D01*
X106308157Y-81028118D01*
X106238010Y-81017179D01*
X106202617Y-80992291D01*
X105962405Y-80752079D01*
X105928379Y-80689767D01*
X105925500Y-80662984D01*
X105925500Y-79894286D01*
X105945502Y-79826165D01*
X105974796Y-79794323D01*
X106021736Y-79758305D01*
X106028282Y-79753282D01*
X106124536Y-79627841D01*
X106185044Y-79481762D01*
X106205682Y-79325000D01*
X106185044Y-79168238D01*
X106177576Y-79150209D01*
X106169986Y-79079619D01*
X106201764Y-79016132D01*
X106262822Y-78979903D01*
X106293984Y-78975989D01*
X107164009Y-78975989D01*
X107232130Y-78995991D01*
X107278623Y-79049647D01*
X107288931Y-79085542D01*
X107297999Y-79154419D01*
X107304956Y-79207262D01*
X107365464Y-79353341D01*
X107461718Y-79478782D01*
X107587159Y-79575036D01*
X107733238Y-79635544D01*
X107890000Y-79656182D01*
X107898188Y-79655104D01*
X108038574Y-79636622D01*
X108046762Y-79635544D01*
X108192841Y-79575036D01*
X108318282Y-79478782D01*
X108414536Y-79353341D01*
X108475044Y-79207262D01*
X108495682Y-79050500D01*
X108475044Y-78893738D01*
X108414536Y-78747659D01*
X108318282Y-78622218D01*
X108192841Y-78525964D01*
X108046762Y-78465456D01*
X107890000Y-78444818D01*
X107881812Y-78445896D01*
X107881810Y-78445896D01*
X107825545Y-78453303D01*
X107755397Y-78442363D01*
X107712579Y-78409373D01*
X107709531Y-78405741D01*
X107702444Y-78397295D01*
X107680788Y-78384792D01*
X107669804Y-78378450D01*
X107660533Y-78372544D01*
X107638704Y-78357259D01*
X107629673Y-78350935D01*
X107619023Y-78348081D01*
X107615855Y-78346604D01*
X107612579Y-78345412D01*
X107603034Y-78339901D01*
X107569290Y-78333951D01*
X107565931Y-78333359D01*
X107555204Y-78330981D01*
X107518796Y-78321225D01*
X107507811Y-78322186D01*
X107507809Y-78322186D01*
X107481261Y-78324509D01*
X107470279Y-78324989D01*
X105340305Y-78324989D01*
X105329323Y-78324509D01*
X105302787Y-78322187D01*
X105302785Y-78322187D01*
X105291800Y-78321226D01*
X105281150Y-78324080D01*
X105281148Y-78324080D01*
X105255411Y-78330977D01*
X105244676Y-78333357D01*
X105244665Y-78333359D01*
X105207562Y-78339901D01*
X105198014Y-78345413D01*
X105194737Y-78346606D01*
X105191569Y-78348083D01*
X105180923Y-78350936D01*
X105171894Y-78357258D01*
X105150060Y-78372546D01*
X105140792Y-78378450D01*
X105108152Y-78397295D01*
X105101069Y-78405736D01*
X105101068Y-78405737D01*
X105083932Y-78426159D01*
X105076507Y-78434262D01*
X104363778Y-79146992D01*
X104355674Y-79154418D01*
X104326806Y-79178641D01*
X104321293Y-79188190D01*
X104307961Y-79211281D01*
X104302055Y-79220552D01*
X104280446Y-79251412D01*
X104277592Y-79262062D01*
X104276115Y-79265230D01*
X104274923Y-79268506D01*
X104269412Y-79278051D01*
X104263462Y-79311795D01*
X104262870Y-79315154D01*
X104260492Y-79325881D01*
X104250736Y-79362289D01*
X104251697Y-79373274D01*
X104251697Y-79373276D01*
X104254020Y-79399824D01*
X104254500Y-79410806D01*
X104254500Y-83985290D01*
X104254020Y-83996272D01*
X104250736Y-84033807D01*
X104253590Y-84044456D01*
X104260491Y-84070210D01*
X104262870Y-84080942D01*
X104269412Y-84118045D01*
X104274923Y-84127590D01*
X104276115Y-84130866D01*
X104277592Y-84134034D01*
X104280446Y-84144684D01*
X104286770Y-84153715D01*
X104302055Y-84175544D01*
X104307961Y-84184815D01*
X104321293Y-84207906D01*
X104326806Y-84217455D01*
X104335251Y-84224541D01*
X104355682Y-84241685D01*
X104363785Y-84249111D01*
X104367291Y-84252617D01*
X104401317Y-84314929D01*
X104403118Y-84358157D01*
X104394318Y-84425000D01*
X104414956Y-84581762D01*
X104475464Y-84727841D01*
X104571718Y-84853282D01*
X104578264Y-84858305D01*
X104607918Y-84881059D01*
X104697159Y-84949536D01*
X104715190Y-84957005D01*
X104770471Y-85001551D01*
X104792894Y-85068914D01*
X104775337Y-85137705D01*
X104756069Y-85162509D01*
X99640095Y-90278483D01*
X99577783Y-90312509D01*
X99506968Y-90307444D01*
X99450132Y-90264897D01*
X99425321Y-90198377D01*
X99425000Y-90189388D01*
X99425000Y-77205971D01*
X99439643Y-77147017D01*
X99534922Y-76967046D01*
X99584472Y-76916201D01*
X99646279Y-76900000D01*
X100674000Y-76900000D01*
X100677346Y-76899640D01*
X100677352Y-76899640D01*
X100691436Y-76898126D01*
X100716512Y-76895430D01*
X100768854Y-76884044D01*
X100778762Y-76881622D01*
X100857314Y-76839764D01*
X100910970Y-76793271D01*
X100928445Y-76776149D01*
X100971897Y-76698467D01*
X100991899Y-76630346D01*
X100993920Y-76616291D01*
X100999361Y-76578448D01*
X100999361Y-76578441D01*
X101000000Y-76574000D01*
X101000000Y-74426000D01*
X100998593Y-74412906D01*
X100996110Y-74389815D01*
X100995430Y-74383488D01*
X100984044Y-74331146D01*
X100981622Y-74321238D01*
X100939764Y-74242686D01*
X100893271Y-74189030D01*
X100876149Y-74171555D01*
X100798467Y-74128103D01*
X100757098Y-74115956D01*
X100734669Y-74109370D01*
X100734665Y-74109369D01*
X100730346Y-74108101D01*
X100725898Y-74107461D01*
X100725891Y-74107460D01*
X100678448Y-74100639D01*
X100678441Y-74100639D01*
X100674000Y-74100000D01*
X97326000Y-74100000D01*
X97257879Y-74079998D01*
X97211386Y-74026342D01*
X97200000Y-73974000D01*
X97200000Y-67601703D01*
X97220002Y-67533582D01*
X97273658Y-67487089D01*
X97343932Y-67476985D01*
X97408512Y-67506479D01*
X97416024Y-67513545D01*
X97506124Y-67605552D01*
X97652556Y-67699921D01*
X97659179Y-67702332D01*
X97659182Y-67702333D01*
X97809634Y-67757093D01*
X97809639Y-67757094D01*
X97816257Y-67759503D01*
X97950801Y-67776500D01*
X98043800Y-67776500D01*
X98173121Y-67761994D01*
X98187195Y-67757093D01*
X98330990Y-67707019D01*
X98330992Y-67707018D01*
X98337637Y-67704704D01*
X98345292Y-67699921D01*
X98479399Y-67616121D01*
X98485373Y-67612388D01*
X98497323Y-67600521D01*
X98603988Y-67494599D01*
X98603991Y-67494595D01*
X98608985Y-67489636D01*
X98702329Y-67342549D01*
X98712784Y-67313187D01*
X98758405Y-67185071D01*
X98758406Y-67185066D01*
X98760767Y-67178436D01*
X98781394Y-67005455D01*
X98774427Y-66939171D01*
X98787199Y-66869333D01*
X98835701Y-66817486D01*
X98899737Y-66800000D01*
X112700000Y-66800000D01*
X112700000Y-61326000D01*
X112720002Y-61257879D01*
X112773658Y-61211386D01*
X112826000Y-61200000D01*
X119235483Y-61200000D01*
X119303604Y-61220002D01*
G37*
G04 #@! TD.AperFunction*
M02*
