G04 #@! TF.GenerationSoftware,KiCad,Pcbnew,5.1.5+dfsg1-2build2*
G04 #@! TF.CreationDate,2021-06-21T20:14:41+02:00*
G04 #@! TF.ProjectId,chip,63686970-2e6b-4696-9361-645f70636258,rev?*
G04 #@! TF.SameCoordinates,Original*
G04 #@! TF.FileFunction,Soldermask,Top*
G04 #@! TF.FilePolarity,Negative*
%FSLAX46Y46*%
G04 Gerber Fmt 4.6, Leading zero omitted, Abs format (unit mm)*
G04 Created by KiCad (PCBNEW 5.1.5+dfsg1-2build2) date 2021-06-21 20:14:41*
%MOMM*%
%LPD*%
G04 APERTURE LIST*
%ADD10C,0.100000*%
G04 APERTURE END LIST*
D10*
G36*
X179551000Y-117006000D02*
G01*
X177449000Y-117006000D01*
X177449000Y-116004000D01*
X179551000Y-116004000D01*
X179551000Y-117006000D01*
G37*
G36*
X162551000Y-117006000D02*
G01*
X160449000Y-117006000D01*
X160449000Y-116004000D01*
X162551000Y-116004000D01*
X162551000Y-117006000D01*
G37*
G36*
X182779591Y-114728085D02*
G01*
X182813569Y-114738393D01*
X182844890Y-114755134D01*
X182872339Y-114777661D01*
X182894866Y-114805110D01*
X182911607Y-114836431D01*
X182921915Y-114870409D01*
X182926000Y-114911890D01*
X182926000Y-115588110D01*
X182921915Y-115629591D01*
X182911607Y-115663569D01*
X182894866Y-115694890D01*
X182872339Y-115722339D01*
X182844890Y-115744866D01*
X182813569Y-115761607D01*
X182779591Y-115771915D01*
X182738110Y-115776000D01*
X182136890Y-115776000D01*
X182095409Y-115771915D01*
X182061431Y-115761607D01*
X182030110Y-115744866D01*
X182002661Y-115722339D01*
X181980134Y-115694890D01*
X181963393Y-115663569D01*
X181953085Y-115629591D01*
X181949000Y-115588110D01*
X181949000Y-114911890D01*
X181953085Y-114870409D01*
X181963393Y-114836431D01*
X181980134Y-114805110D01*
X182002661Y-114777661D01*
X182030110Y-114755134D01*
X182061431Y-114738393D01*
X182095409Y-114728085D01*
X182136890Y-114724000D01*
X182738110Y-114724000D01*
X182779591Y-114728085D01*
G37*
G36*
X181204591Y-114728085D02*
G01*
X181238569Y-114738393D01*
X181269890Y-114755134D01*
X181297339Y-114777661D01*
X181319866Y-114805110D01*
X181336607Y-114836431D01*
X181346915Y-114870409D01*
X181351000Y-114911890D01*
X181351000Y-115588110D01*
X181346915Y-115629591D01*
X181336607Y-115663569D01*
X181319866Y-115694890D01*
X181297339Y-115722339D01*
X181269890Y-115744866D01*
X181238569Y-115761607D01*
X181204591Y-115771915D01*
X181163110Y-115776000D01*
X180561890Y-115776000D01*
X180520409Y-115771915D01*
X180486431Y-115761607D01*
X180455110Y-115744866D01*
X180427661Y-115722339D01*
X180405134Y-115694890D01*
X180388393Y-115663569D01*
X180378085Y-115629591D01*
X180374000Y-115588110D01*
X180374000Y-114911890D01*
X180378085Y-114870409D01*
X180388393Y-114836431D01*
X180405134Y-114805110D01*
X180427661Y-114777661D01*
X180455110Y-114755134D01*
X180486431Y-114738393D01*
X180520409Y-114728085D01*
X180561890Y-114724000D01*
X181163110Y-114724000D01*
X181204591Y-114728085D01*
G37*
G36*
X162551000Y-115736000D02*
G01*
X160449000Y-115736000D01*
X160449000Y-114734000D01*
X162551000Y-114734000D01*
X162551000Y-115736000D01*
G37*
G36*
X179551000Y-115736000D02*
G01*
X177449000Y-115736000D01*
X177449000Y-114734000D01*
X179551000Y-114734000D01*
X179551000Y-115736000D01*
G37*
G36*
X179551000Y-114466000D02*
G01*
X177449000Y-114466000D01*
X177449000Y-113464000D01*
X179551000Y-113464000D01*
X179551000Y-114466000D01*
G37*
G36*
X162551000Y-114466000D02*
G01*
X160449000Y-114466000D01*
X160449000Y-113464000D01*
X162551000Y-113464000D01*
X162551000Y-114466000D01*
G37*
G36*
X182779591Y-113128085D02*
G01*
X182813569Y-113138393D01*
X182844890Y-113155134D01*
X182872339Y-113177661D01*
X182894866Y-113205110D01*
X182911607Y-113236431D01*
X182921915Y-113270409D01*
X182926000Y-113311890D01*
X182926000Y-113988110D01*
X182921915Y-114029591D01*
X182911607Y-114063569D01*
X182894866Y-114094890D01*
X182872339Y-114122339D01*
X182844890Y-114144866D01*
X182813569Y-114161607D01*
X182779591Y-114171915D01*
X182738110Y-114176000D01*
X182136890Y-114176000D01*
X182095409Y-114171915D01*
X182061431Y-114161607D01*
X182030110Y-114144866D01*
X182002661Y-114122339D01*
X181980134Y-114094890D01*
X181963393Y-114063569D01*
X181953085Y-114029591D01*
X181949000Y-113988110D01*
X181949000Y-113311890D01*
X181953085Y-113270409D01*
X181963393Y-113236431D01*
X181980134Y-113205110D01*
X182002661Y-113177661D01*
X182030110Y-113155134D01*
X182061431Y-113138393D01*
X182095409Y-113128085D01*
X182136890Y-113124000D01*
X182738110Y-113124000D01*
X182779591Y-113128085D01*
G37*
G36*
X181204591Y-113128085D02*
G01*
X181238569Y-113138393D01*
X181269890Y-113155134D01*
X181297339Y-113177661D01*
X181319866Y-113205110D01*
X181336607Y-113236431D01*
X181346915Y-113270409D01*
X181351000Y-113311890D01*
X181351000Y-113988110D01*
X181346915Y-114029591D01*
X181336607Y-114063569D01*
X181319866Y-114094890D01*
X181297339Y-114122339D01*
X181269890Y-114144866D01*
X181238569Y-114161607D01*
X181204591Y-114171915D01*
X181163110Y-114176000D01*
X180561890Y-114176000D01*
X180520409Y-114171915D01*
X180486431Y-114161607D01*
X180455110Y-114144866D01*
X180427661Y-114122339D01*
X180405134Y-114094890D01*
X180388393Y-114063569D01*
X180378085Y-114029591D01*
X180374000Y-113988110D01*
X180374000Y-113311890D01*
X180378085Y-113270409D01*
X180388393Y-113236431D01*
X180405134Y-113205110D01*
X180427661Y-113177661D01*
X180455110Y-113155134D01*
X180486431Y-113138393D01*
X180520409Y-113128085D01*
X180561890Y-113124000D01*
X181163110Y-113124000D01*
X181204591Y-113128085D01*
G37*
G36*
X179551000Y-113196000D02*
G01*
X177449000Y-113196000D01*
X177449000Y-112194000D01*
X179551000Y-112194000D01*
X179551000Y-113196000D01*
G37*
G36*
X162551000Y-113196000D02*
G01*
X160449000Y-113196000D01*
X160449000Y-112194000D01*
X162551000Y-112194000D01*
X162551000Y-113196000D01*
G37*
G36*
X181217091Y-111528085D02*
G01*
X181251069Y-111538393D01*
X181282390Y-111555134D01*
X181309839Y-111577661D01*
X181332366Y-111605110D01*
X181349107Y-111636431D01*
X181359415Y-111670409D01*
X181363500Y-111711890D01*
X181363500Y-112388110D01*
X181359415Y-112429591D01*
X181349107Y-112463569D01*
X181332366Y-112494890D01*
X181309839Y-112522339D01*
X181282390Y-112544866D01*
X181251069Y-112561607D01*
X181217091Y-112571915D01*
X181175610Y-112576000D01*
X180574390Y-112576000D01*
X180532909Y-112571915D01*
X180498931Y-112561607D01*
X180467610Y-112544866D01*
X180440161Y-112522339D01*
X180417634Y-112494890D01*
X180400893Y-112463569D01*
X180390585Y-112429591D01*
X180386500Y-112388110D01*
X180386500Y-111711890D01*
X180390585Y-111670409D01*
X180400893Y-111636431D01*
X180417634Y-111605110D01*
X180440161Y-111577661D01*
X180467610Y-111555134D01*
X180498931Y-111538393D01*
X180532909Y-111528085D01*
X180574390Y-111524000D01*
X181175610Y-111524000D01*
X181217091Y-111528085D01*
G37*
G36*
X182792091Y-111528085D02*
G01*
X182826069Y-111538393D01*
X182857390Y-111555134D01*
X182884839Y-111577661D01*
X182907366Y-111605110D01*
X182924107Y-111636431D01*
X182934415Y-111670409D01*
X182938500Y-111711890D01*
X182938500Y-112388110D01*
X182934415Y-112429591D01*
X182924107Y-112463569D01*
X182907366Y-112494890D01*
X182884839Y-112522339D01*
X182857390Y-112544866D01*
X182826069Y-112561607D01*
X182792091Y-112571915D01*
X182750610Y-112576000D01*
X182149390Y-112576000D01*
X182107909Y-112571915D01*
X182073931Y-112561607D01*
X182042610Y-112544866D01*
X182015161Y-112522339D01*
X181992634Y-112494890D01*
X181975893Y-112463569D01*
X181965585Y-112429591D01*
X181961500Y-112388110D01*
X181961500Y-111711890D01*
X181965585Y-111670409D01*
X181975893Y-111636431D01*
X181992634Y-111605110D01*
X182015161Y-111577661D01*
X182042610Y-111555134D01*
X182073931Y-111538393D01*
X182107909Y-111528085D01*
X182149390Y-111524000D01*
X182750610Y-111524000D01*
X182792091Y-111528085D01*
G37*
G36*
X162551000Y-111926000D02*
G01*
X160449000Y-111926000D01*
X160449000Y-110924000D01*
X162551000Y-110924000D01*
X162551000Y-111926000D01*
G37*
G36*
X179551000Y-111926000D02*
G01*
X177449000Y-111926000D01*
X177449000Y-110924000D01*
X179551000Y-110924000D01*
X179551000Y-111926000D01*
G37*
G36*
X173551000Y-111556000D02*
G01*
X168449000Y-111556000D01*
X168449000Y-106454000D01*
X173551000Y-106454000D01*
X173551000Y-111556000D01*
G37*
G36*
X188929591Y-109878085D02*
G01*
X188963569Y-109888393D01*
X188994890Y-109905134D01*
X189022339Y-109927661D01*
X189044866Y-109955110D01*
X189061607Y-109986431D01*
X189071915Y-110020409D01*
X189076000Y-110061890D01*
X189076000Y-110738110D01*
X189071915Y-110779591D01*
X189061607Y-110813569D01*
X189044866Y-110844890D01*
X189022339Y-110872339D01*
X188994890Y-110894866D01*
X188963569Y-110911607D01*
X188929591Y-110921915D01*
X188888110Y-110926000D01*
X188286890Y-110926000D01*
X188245409Y-110921915D01*
X188211431Y-110911607D01*
X188180110Y-110894866D01*
X188152661Y-110872339D01*
X188130134Y-110844890D01*
X188113393Y-110813569D01*
X188103085Y-110779591D01*
X188099000Y-110738110D01*
X188099000Y-110061890D01*
X188103085Y-110020409D01*
X188113393Y-109986431D01*
X188130134Y-109955110D01*
X188152661Y-109927661D01*
X188180110Y-109905134D01*
X188211431Y-109888393D01*
X188245409Y-109878085D01*
X188286890Y-109874000D01*
X188888110Y-109874000D01*
X188929591Y-109878085D01*
G37*
G36*
X187354591Y-109878085D02*
G01*
X187388569Y-109888393D01*
X187419890Y-109905134D01*
X187447339Y-109927661D01*
X187469866Y-109955110D01*
X187486607Y-109986431D01*
X187496915Y-110020409D01*
X187501000Y-110061890D01*
X187501000Y-110738110D01*
X187496915Y-110779591D01*
X187486607Y-110813569D01*
X187469866Y-110844890D01*
X187447339Y-110872339D01*
X187419890Y-110894866D01*
X187388569Y-110911607D01*
X187354591Y-110921915D01*
X187313110Y-110926000D01*
X186711890Y-110926000D01*
X186670409Y-110921915D01*
X186636431Y-110911607D01*
X186605110Y-110894866D01*
X186577661Y-110872339D01*
X186555134Y-110844890D01*
X186538393Y-110813569D01*
X186528085Y-110779591D01*
X186524000Y-110738110D01*
X186524000Y-110061890D01*
X186528085Y-110020409D01*
X186538393Y-109986431D01*
X186555134Y-109955110D01*
X186577661Y-109927661D01*
X186605110Y-109905134D01*
X186636431Y-109888393D01*
X186670409Y-109878085D01*
X186711890Y-109874000D01*
X187313110Y-109874000D01*
X187354591Y-109878085D01*
G37*
G36*
X179551000Y-110656000D02*
G01*
X177449000Y-110656000D01*
X177449000Y-109654000D01*
X179551000Y-109654000D01*
X179551000Y-110656000D01*
G37*
G36*
X162551000Y-110656000D02*
G01*
X160449000Y-110656000D01*
X160449000Y-109654000D01*
X162551000Y-109654000D01*
X162551000Y-110656000D01*
G37*
G36*
X187354591Y-108378085D02*
G01*
X187388569Y-108388393D01*
X187419890Y-108405134D01*
X187447339Y-108427661D01*
X187469866Y-108455110D01*
X187486607Y-108486431D01*
X187496915Y-108520409D01*
X187501000Y-108561890D01*
X187501000Y-109238110D01*
X187496915Y-109279591D01*
X187486607Y-109313569D01*
X187469866Y-109344890D01*
X187447339Y-109372339D01*
X187419890Y-109394866D01*
X187388569Y-109411607D01*
X187354591Y-109421915D01*
X187313110Y-109426000D01*
X186711890Y-109426000D01*
X186670409Y-109421915D01*
X186636431Y-109411607D01*
X186605110Y-109394866D01*
X186577661Y-109372339D01*
X186555134Y-109344890D01*
X186538393Y-109313569D01*
X186528085Y-109279591D01*
X186524000Y-109238110D01*
X186524000Y-108561890D01*
X186528085Y-108520409D01*
X186538393Y-108486431D01*
X186555134Y-108455110D01*
X186577661Y-108427661D01*
X186605110Y-108405134D01*
X186636431Y-108388393D01*
X186670409Y-108378085D01*
X186711890Y-108374000D01*
X187313110Y-108374000D01*
X187354591Y-108378085D01*
G37*
G36*
X188929591Y-108378085D02*
G01*
X188963569Y-108388393D01*
X188994890Y-108405134D01*
X189022339Y-108427661D01*
X189044866Y-108455110D01*
X189061607Y-108486431D01*
X189071915Y-108520409D01*
X189076000Y-108561890D01*
X189076000Y-109238110D01*
X189071915Y-109279591D01*
X189061607Y-109313569D01*
X189044866Y-109344890D01*
X189022339Y-109372339D01*
X188994890Y-109394866D01*
X188963569Y-109411607D01*
X188929591Y-109421915D01*
X188888110Y-109426000D01*
X188286890Y-109426000D01*
X188245409Y-109421915D01*
X188211431Y-109411607D01*
X188180110Y-109394866D01*
X188152661Y-109372339D01*
X188130134Y-109344890D01*
X188113393Y-109313569D01*
X188103085Y-109279591D01*
X188099000Y-109238110D01*
X188099000Y-108561890D01*
X188103085Y-108520409D01*
X188113393Y-108486431D01*
X188130134Y-108455110D01*
X188152661Y-108427661D01*
X188180110Y-108405134D01*
X188211431Y-108388393D01*
X188245409Y-108378085D01*
X188286890Y-108374000D01*
X188888110Y-108374000D01*
X188929591Y-108378085D01*
G37*
G36*
X179551000Y-109386000D02*
G01*
X177449000Y-109386000D01*
X177449000Y-108384000D01*
X179551000Y-108384000D01*
X179551000Y-109386000D01*
G37*
G36*
X162551000Y-109386000D02*
G01*
X160449000Y-109386000D01*
X160449000Y-108384000D01*
X162551000Y-108384000D01*
X162551000Y-109386000D01*
G37*
G36*
X150351000Y-108351000D02*
G01*
X146849000Y-108351000D01*
X146849000Y-106949000D01*
X150351000Y-106949000D01*
X150351000Y-108351000D01*
G37*
G36*
X162551000Y-108116000D02*
G01*
X160449000Y-108116000D01*
X160449000Y-107114000D01*
X162551000Y-107114000D01*
X162551000Y-108116000D01*
G37*
G36*
X179551000Y-108116000D02*
G01*
X177449000Y-108116000D01*
X177449000Y-107114000D01*
X179551000Y-107114000D01*
X179551000Y-108116000D01*
G37*
G36*
X188929591Y-106878085D02*
G01*
X188963569Y-106888393D01*
X188994890Y-106905134D01*
X189022339Y-106927661D01*
X189044866Y-106955110D01*
X189061607Y-106986431D01*
X189071915Y-107020409D01*
X189076000Y-107061890D01*
X189076000Y-107738110D01*
X189071915Y-107779591D01*
X189061607Y-107813569D01*
X189044866Y-107844890D01*
X189022339Y-107872339D01*
X188994890Y-107894866D01*
X188963569Y-107911607D01*
X188929591Y-107921915D01*
X188888110Y-107926000D01*
X188286890Y-107926000D01*
X188245409Y-107921915D01*
X188211431Y-107911607D01*
X188180110Y-107894866D01*
X188152661Y-107872339D01*
X188130134Y-107844890D01*
X188113393Y-107813569D01*
X188103085Y-107779591D01*
X188099000Y-107738110D01*
X188099000Y-107061890D01*
X188103085Y-107020409D01*
X188113393Y-106986431D01*
X188130134Y-106955110D01*
X188152661Y-106927661D01*
X188180110Y-106905134D01*
X188211431Y-106888393D01*
X188245409Y-106878085D01*
X188286890Y-106874000D01*
X188888110Y-106874000D01*
X188929591Y-106878085D01*
G37*
G36*
X187354591Y-106878085D02*
G01*
X187388569Y-106888393D01*
X187419890Y-106905134D01*
X187447339Y-106927661D01*
X187469866Y-106955110D01*
X187486607Y-106986431D01*
X187496915Y-107020409D01*
X187501000Y-107061890D01*
X187501000Y-107738110D01*
X187496915Y-107779591D01*
X187486607Y-107813569D01*
X187469866Y-107844890D01*
X187447339Y-107872339D01*
X187419890Y-107894866D01*
X187388569Y-107911607D01*
X187354591Y-107921915D01*
X187313110Y-107926000D01*
X186711890Y-107926000D01*
X186670409Y-107921915D01*
X186636431Y-107911607D01*
X186605110Y-107894866D01*
X186577661Y-107872339D01*
X186555134Y-107844890D01*
X186538393Y-107813569D01*
X186528085Y-107779591D01*
X186524000Y-107738110D01*
X186524000Y-107061890D01*
X186528085Y-107020409D01*
X186538393Y-106986431D01*
X186555134Y-106955110D01*
X186577661Y-106927661D01*
X186605110Y-106905134D01*
X186636431Y-106888393D01*
X186670409Y-106878085D01*
X186711890Y-106874000D01*
X187313110Y-106874000D01*
X187354591Y-106878085D01*
G37*
G36*
X162551000Y-106846000D02*
G01*
X160449000Y-106846000D01*
X160449000Y-105844000D01*
X162551000Y-105844000D01*
X162551000Y-106846000D01*
G37*
G36*
X179551000Y-106846000D02*
G01*
X177449000Y-106846000D01*
X177449000Y-105844000D01*
X179551000Y-105844000D01*
X179551000Y-106846000D01*
G37*
G36*
X162551000Y-105576000D02*
G01*
X160449000Y-105576000D01*
X160449000Y-104574000D01*
X162551000Y-104574000D01*
X162551000Y-105576000D01*
G37*
G36*
X179551000Y-105576000D02*
G01*
X177449000Y-105576000D01*
X177449000Y-104574000D01*
X179551000Y-104574000D01*
X179551000Y-105576000D01*
G37*
G36*
X211279487Y-102448996D02*
G01*
X211516253Y-102547068D01*
X211516255Y-102547069D01*
X211729339Y-102689447D01*
X211910553Y-102870661D01*
X212052932Y-103083747D01*
X212151004Y-103320513D01*
X212201000Y-103571861D01*
X212201000Y-103828139D01*
X212151004Y-104079487D01*
X212057179Y-104306000D01*
X212052931Y-104316255D01*
X211910553Y-104529339D01*
X211729339Y-104710553D01*
X211516255Y-104852931D01*
X211516254Y-104852932D01*
X211516253Y-104852932D01*
X211279487Y-104951004D01*
X211028139Y-105001000D01*
X210771861Y-105001000D01*
X210520513Y-104951004D01*
X210283747Y-104852932D01*
X210283746Y-104852932D01*
X210283745Y-104852931D01*
X210070661Y-104710553D01*
X209889447Y-104529339D01*
X209747069Y-104316255D01*
X209742821Y-104306000D01*
X209648996Y-104079487D01*
X209599000Y-103828139D01*
X209599000Y-103571861D01*
X209648996Y-103320513D01*
X209747068Y-103083747D01*
X209889447Y-102870661D01*
X210070661Y-102689447D01*
X210283745Y-102547069D01*
X210283747Y-102547068D01*
X210520513Y-102448996D01*
X210771861Y-102399000D01*
X211028139Y-102399000D01*
X211279487Y-102448996D01*
G37*
G36*
X129279487Y-102448996D02*
G01*
X129516253Y-102547068D01*
X129516255Y-102547069D01*
X129729339Y-102689447D01*
X129910553Y-102870661D01*
X130052932Y-103083747D01*
X130151004Y-103320513D01*
X130201000Y-103571861D01*
X130201000Y-103828139D01*
X130151004Y-104079487D01*
X130057179Y-104306000D01*
X130052931Y-104316255D01*
X129910553Y-104529339D01*
X129729339Y-104710553D01*
X129516255Y-104852931D01*
X129516254Y-104852932D01*
X129516253Y-104852932D01*
X129279487Y-104951004D01*
X129028139Y-105001000D01*
X128771861Y-105001000D01*
X128520513Y-104951004D01*
X128283747Y-104852932D01*
X128283746Y-104852932D01*
X128283745Y-104852931D01*
X128070661Y-104710553D01*
X127889447Y-104529339D01*
X127747069Y-104316255D01*
X127742821Y-104306000D01*
X127648996Y-104079487D01*
X127599000Y-103828139D01*
X127599000Y-103571861D01*
X127648996Y-103320513D01*
X127747068Y-103083747D01*
X127889447Y-102870661D01*
X128070661Y-102689447D01*
X128283745Y-102547069D01*
X128283747Y-102547068D01*
X128520513Y-102448996D01*
X128771861Y-102399000D01*
X129028139Y-102399000D01*
X129279487Y-102448996D01*
G37*
G36*
X179551000Y-104306000D02*
G01*
X177449000Y-104306000D01*
X177449000Y-103304000D01*
X179551000Y-103304000D01*
X179551000Y-104306000D01*
G37*
G36*
X162551000Y-104306000D02*
G01*
X160449000Y-104306000D01*
X160449000Y-103304000D01*
X162551000Y-103304000D01*
X162551000Y-104306000D01*
G37*
G36*
X216333361Y-102461230D02*
G01*
X215654902Y-103329618D01*
X214471309Y-102404894D01*
X215149768Y-101536506D01*
X216333361Y-102461230D01*
G37*
G36*
X125195200Y-102378255D02*
G01*
X125195200Y-102378256D01*
X123980057Y-103261109D01*
X123332318Y-102369573D01*
X123332318Y-102369572D01*
X124547461Y-101486719D01*
X125195200Y-102378255D01*
G37*
G36*
X179551000Y-103036000D02*
G01*
X177449000Y-103036000D01*
X177449000Y-102034000D01*
X179551000Y-102034000D01*
X179551000Y-103036000D01*
G37*
G36*
X162551000Y-103036000D02*
G01*
X160449000Y-103036000D01*
X160449000Y-102034000D01*
X162551000Y-102034000D01*
X162551000Y-103036000D01*
G37*
G36*
X217379985Y-101121612D02*
G01*
X216701526Y-101990000D01*
X215517933Y-101065276D01*
X216196392Y-100196888D01*
X217379985Y-101121612D01*
G37*
G36*
X124195965Y-101002926D02*
G01*
X124195965Y-101002927D01*
X122980822Y-101885780D01*
X122333083Y-100994244D01*
X122333083Y-100994243D01*
X123548226Y-100111390D01*
X124195965Y-101002926D01*
G37*
G36*
X179551000Y-101766000D02*
G01*
X177449000Y-101766000D01*
X177449000Y-100764000D01*
X179551000Y-100764000D01*
X179551000Y-101766000D01*
G37*
G36*
X162551000Y-101766000D02*
G01*
X160449000Y-101766000D01*
X160449000Y-100764000D01*
X162551000Y-100764000D01*
X162551000Y-101766000D01*
G37*
G36*
X126895673Y-100618053D02*
G01*
X126977748Y-100652050D01*
X126977750Y-100652051D01*
X127010747Y-100674099D01*
X127051616Y-100701407D01*
X127114436Y-100764227D01*
X127163793Y-100838095D01*
X127197790Y-100920170D01*
X127215121Y-101007301D01*
X127215121Y-101096143D01*
X127197790Y-101183274D01*
X127163793Y-101265349D01*
X127163792Y-101265351D01*
X127114435Y-101339218D01*
X127051617Y-101402036D01*
X126977750Y-101451393D01*
X126977749Y-101451394D01*
X126977748Y-101451394D01*
X126895673Y-101485391D01*
X126808542Y-101502722D01*
X126719700Y-101502722D01*
X126632569Y-101485391D01*
X126550494Y-101451394D01*
X126550493Y-101451394D01*
X126550492Y-101451393D01*
X126476625Y-101402036D01*
X126413807Y-101339218D01*
X126364450Y-101265351D01*
X126364449Y-101265349D01*
X126330452Y-101183274D01*
X126313121Y-101096143D01*
X126313121Y-101007301D01*
X126330452Y-100920170D01*
X126364449Y-100838095D01*
X126413806Y-100764227D01*
X126476626Y-100701407D01*
X126517495Y-100674099D01*
X126550492Y-100652051D01*
X126550494Y-100652050D01*
X126632569Y-100618053D01*
X126719700Y-100600722D01*
X126808542Y-100600722D01*
X126895673Y-100618053D01*
G37*
G36*
X213081192Y-100590745D02*
G01*
X213163267Y-100624742D01*
X213163269Y-100624743D01*
X213200453Y-100649589D01*
X213237135Y-100674099D01*
X213299955Y-100736919D01*
X213349312Y-100810787D01*
X213383309Y-100892862D01*
X213400640Y-100979993D01*
X213400640Y-101068835D01*
X213383309Y-101155966D01*
X213349312Y-101238041D01*
X213349311Y-101238043D01*
X213299954Y-101311910D01*
X213237136Y-101374728D01*
X213163269Y-101424085D01*
X213163268Y-101424086D01*
X213163267Y-101424086D01*
X213081192Y-101458083D01*
X212994061Y-101475414D01*
X212905219Y-101475414D01*
X212818088Y-101458083D01*
X212736013Y-101424086D01*
X212736012Y-101424086D01*
X212736011Y-101424085D01*
X212662144Y-101374728D01*
X212599326Y-101311910D01*
X212549969Y-101238043D01*
X212549968Y-101238041D01*
X212515971Y-101155966D01*
X212498640Y-101068835D01*
X212498640Y-100979993D01*
X212515971Y-100892862D01*
X212549968Y-100810787D01*
X212599325Y-100736919D01*
X212662145Y-100674099D01*
X212698827Y-100649589D01*
X212736011Y-100624743D01*
X212736013Y-100624742D01*
X212818088Y-100590745D01*
X212905219Y-100573414D01*
X212994061Y-100573414D01*
X213081192Y-100590745D01*
G37*
G36*
X179551000Y-100496000D02*
G01*
X177449000Y-100496000D01*
X177449000Y-99494000D01*
X179551000Y-99494000D01*
X179551000Y-100496000D01*
G37*
G36*
X162551000Y-100496000D02*
G01*
X160449000Y-100496000D01*
X160449000Y-99494000D01*
X162551000Y-99494000D01*
X162551000Y-100496000D01*
G37*
G36*
X174946000Y-100046000D02*
G01*
X173944000Y-100046000D01*
X173944000Y-97944000D01*
X174946000Y-97944000D01*
X174946000Y-100046000D01*
G37*
G36*
X171136000Y-100046000D02*
G01*
X170134000Y-100046000D01*
X170134000Y-97944000D01*
X171136000Y-97944000D01*
X171136000Y-100046000D01*
G37*
G36*
X173676000Y-100046000D02*
G01*
X172674000Y-100046000D01*
X172674000Y-97944000D01*
X173676000Y-97944000D01*
X173676000Y-100046000D01*
G37*
G36*
X176216000Y-100046000D02*
G01*
X175214000Y-100046000D01*
X175214000Y-97944000D01*
X176216000Y-97944000D01*
X176216000Y-100046000D01*
G37*
G36*
X172406000Y-100046000D02*
G01*
X171404000Y-100046000D01*
X171404000Y-97944000D01*
X172406000Y-97944000D01*
X172406000Y-100046000D01*
G37*
G36*
X168596000Y-100046000D02*
G01*
X167594000Y-100046000D01*
X167594000Y-97944000D01*
X168596000Y-97944000D01*
X168596000Y-100046000D01*
G37*
G36*
X167326000Y-100046000D02*
G01*
X166324000Y-100046000D01*
X166324000Y-97944000D01*
X167326000Y-97944000D01*
X167326000Y-100046000D01*
G37*
G36*
X169866000Y-100046000D02*
G01*
X168864000Y-100046000D01*
X168864000Y-97944000D01*
X169866000Y-97944000D01*
X169866000Y-100046000D01*
G37*
G36*
X164786000Y-100046000D02*
G01*
X163784000Y-100046000D01*
X163784000Y-97944000D01*
X164786000Y-97944000D01*
X164786000Y-100046000D01*
G37*
G36*
X166056000Y-100046000D02*
G01*
X165054000Y-100046000D01*
X165054000Y-97944000D01*
X166056000Y-97944000D01*
X166056000Y-100046000D01*
G37*
G36*
X129725695Y-99086658D02*
G01*
X129725695Y-99086659D01*
X128510552Y-99969512D01*
X127862813Y-99077976D01*
X127862813Y-99077975D01*
X129077956Y-98195122D01*
X129725695Y-99086658D01*
G37*
G36*
X211920501Y-99013526D02*
G01*
X211242042Y-99881914D01*
X210058449Y-98957190D01*
X210736908Y-98088802D01*
X211920501Y-99013526D01*
G37*
G36*
X150351000Y-99651000D02*
G01*
X146849000Y-99651000D01*
X146849000Y-98249000D01*
X150351000Y-98249000D01*
X150351000Y-99651000D01*
G37*
G36*
X214681912Y-98541917D02*
G01*
X214763987Y-98575914D01*
X214763989Y-98575915D01*
X214791329Y-98594183D01*
X214837855Y-98625271D01*
X214900675Y-98688091D01*
X214950032Y-98761959D01*
X214984029Y-98844034D01*
X215001360Y-98931165D01*
X215001360Y-99020007D01*
X214984029Y-99107138D01*
X214950032Y-99189213D01*
X214950031Y-99189215D01*
X214900674Y-99263082D01*
X214837856Y-99325900D01*
X214763989Y-99375257D01*
X214763988Y-99375258D01*
X214763987Y-99375258D01*
X214681912Y-99409255D01*
X214594781Y-99426586D01*
X214505939Y-99426586D01*
X214418808Y-99409255D01*
X214336733Y-99375258D01*
X214336732Y-99375258D01*
X214336731Y-99375257D01*
X214262864Y-99325900D01*
X214200046Y-99263082D01*
X214150689Y-99189215D01*
X214150688Y-99189213D01*
X214116691Y-99107138D01*
X214099360Y-99020007D01*
X214099360Y-98931165D01*
X214116691Y-98844034D01*
X214150688Y-98761959D01*
X214200045Y-98688091D01*
X214262865Y-98625271D01*
X214309391Y-98594183D01*
X214336731Y-98575915D01*
X214336733Y-98575914D01*
X214418808Y-98541917D01*
X214505939Y-98524586D01*
X214594781Y-98524586D01*
X214681912Y-98541917D01*
G37*
G36*
X125367431Y-98514609D02*
G01*
X125449506Y-98548606D01*
X125449508Y-98548607D01*
X125486692Y-98573453D01*
X125523374Y-98597963D01*
X125586194Y-98660783D01*
X125635551Y-98734651D01*
X125669548Y-98816726D01*
X125686879Y-98903857D01*
X125686879Y-98992699D01*
X125669548Y-99079830D01*
X125635551Y-99161905D01*
X125635550Y-99161907D01*
X125586193Y-99235774D01*
X125523375Y-99298592D01*
X125449508Y-99347949D01*
X125449507Y-99347950D01*
X125449506Y-99347950D01*
X125367431Y-99381947D01*
X125280300Y-99399278D01*
X125191458Y-99399278D01*
X125104327Y-99381947D01*
X125022252Y-99347950D01*
X125022251Y-99347950D01*
X125022250Y-99347949D01*
X124948383Y-99298592D01*
X124885565Y-99235774D01*
X124836208Y-99161907D01*
X124836207Y-99161905D01*
X124802210Y-99079830D01*
X124784879Y-98992699D01*
X124784879Y-98903857D01*
X124802210Y-98816726D01*
X124836207Y-98734651D01*
X124885564Y-98660783D01*
X124948384Y-98597963D01*
X124985066Y-98573453D01*
X125022250Y-98548607D01*
X125022252Y-98548606D01*
X125104327Y-98514609D01*
X125191458Y-98497278D01*
X125280300Y-98497278D01*
X125367431Y-98514609D01*
G37*
G36*
X128726460Y-97711329D02*
G01*
X128726460Y-97711330D01*
X127511317Y-98594183D01*
X126863578Y-97702647D01*
X126863578Y-97702646D01*
X128078721Y-96819793D01*
X128726460Y-97711329D01*
G37*
G36*
X212967125Y-97673907D02*
G01*
X212288666Y-98542295D01*
X211105073Y-97617571D01*
X211783532Y-96749183D01*
X212967125Y-97673907D01*
G37*
G36*
X136209673Y-97421915D02*
G01*
X136292361Y-97587763D01*
X135064511Y-98199946D01*
X134816566Y-97702646D01*
X133600089Y-95262772D01*
X133600089Y-95262771D01*
X134827939Y-94650588D01*
X136209673Y-97421915D01*
G37*
G36*
X206132542Y-95155568D02*
G01*
X204642545Y-98079851D01*
X203420084Y-97456976D01*
X204910081Y-94532693D01*
X206132542Y-95155568D01*
G37*
G36*
X181129591Y-96378085D02*
G01*
X181163569Y-96388393D01*
X181194890Y-96405134D01*
X181222339Y-96427661D01*
X181244866Y-96455110D01*
X181261607Y-96486431D01*
X181271915Y-96520409D01*
X181276000Y-96561890D01*
X181276000Y-97238110D01*
X181271915Y-97279591D01*
X181261607Y-97313569D01*
X181244866Y-97344890D01*
X181222339Y-97372339D01*
X181194890Y-97394866D01*
X181163569Y-97411607D01*
X181129591Y-97421915D01*
X181088110Y-97426000D01*
X180486890Y-97426000D01*
X180445409Y-97421915D01*
X180411431Y-97411607D01*
X180380110Y-97394866D01*
X180352661Y-97372339D01*
X180330134Y-97344890D01*
X180313393Y-97313569D01*
X180303085Y-97279591D01*
X180299000Y-97238110D01*
X180299000Y-96561890D01*
X180303085Y-96520409D01*
X180313393Y-96486431D01*
X180330134Y-96455110D01*
X180352661Y-96427661D01*
X180380110Y-96405134D01*
X180411431Y-96388393D01*
X180445409Y-96378085D01*
X180486890Y-96374000D01*
X181088110Y-96374000D01*
X181129591Y-96378085D01*
G37*
G36*
X179554591Y-96378085D02*
G01*
X179588569Y-96388393D01*
X179619890Y-96405134D01*
X179647339Y-96427661D01*
X179669866Y-96455110D01*
X179686607Y-96486431D01*
X179696915Y-96520409D01*
X179701000Y-96561890D01*
X179701000Y-97238110D01*
X179696915Y-97279591D01*
X179686607Y-97313569D01*
X179669866Y-97344890D01*
X179647339Y-97372339D01*
X179619890Y-97394866D01*
X179588569Y-97411607D01*
X179554591Y-97421915D01*
X179513110Y-97426000D01*
X178911890Y-97426000D01*
X178870409Y-97421915D01*
X178836431Y-97411607D01*
X178805110Y-97394866D01*
X178777661Y-97372339D01*
X178755134Y-97344890D01*
X178738393Y-97313569D01*
X178728085Y-97279591D01*
X178724000Y-97238110D01*
X178724000Y-96561890D01*
X178728085Y-96520409D01*
X178738393Y-96486431D01*
X178755134Y-96455110D01*
X178777661Y-96427661D01*
X178805110Y-96405134D01*
X178836431Y-96388393D01*
X178870409Y-96378085D01*
X178911890Y-96374000D01*
X179513110Y-96374000D01*
X179554591Y-96378085D01*
G37*
G36*
X141704591Y-96228085D02*
G01*
X141738569Y-96238393D01*
X141769890Y-96255134D01*
X141797339Y-96277661D01*
X141819866Y-96305110D01*
X141836607Y-96336431D01*
X141846915Y-96370409D01*
X141851000Y-96411890D01*
X141851000Y-97088110D01*
X141846915Y-97129591D01*
X141836607Y-97163569D01*
X141819866Y-97194890D01*
X141797339Y-97222339D01*
X141769890Y-97244866D01*
X141738569Y-97261607D01*
X141704591Y-97271915D01*
X141663110Y-97276000D01*
X141061890Y-97276000D01*
X141020409Y-97271915D01*
X140986431Y-97261607D01*
X140955110Y-97244866D01*
X140927661Y-97222339D01*
X140905134Y-97194890D01*
X140888393Y-97163569D01*
X140878085Y-97129591D01*
X140874000Y-97088110D01*
X140874000Y-96411890D01*
X140878085Y-96370409D01*
X140888393Y-96336431D01*
X140905134Y-96305110D01*
X140927661Y-96277661D01*
X140955110Y-96255134D01*
X140986431Y-96238393D01*
X141020409Y-96228085D01*
X141061890Y-96224000D01*
X141663110Y-96224000D01*
X141704591Y-96228085D01*
G37*
G36*
X143279591Y-96228085D02*
G01*
X143313569Y-96238393D01*
X143344890Y-96255134D01*
X143372339Y-96277661D01*
X143394866Y-96305110D01*
X143411607Y-96336431D01*
X143421915Y-96370409D01*
X143426000Y-96411890D01*
X143426000Y-97088110D01*
X143421915Y-97129591D01*
X143411607Y-97163569D01*
X143394866Y-97194890D01*
X143372339Y-97222339D01*
X143344890Y-97244866D01*
X143313569Y-97261607D01*
X143279591Y-97271915D01*
X143238110Y-97276000D01*
X142636890Y-97276000D01*
X142595409Y-97271915D01*
X142561431Y-97261607D01*
X142530110Y-97244866D01*
X142502661Y-97222339D01*
X142480134Y-97194890D01*
X142463393Y-97163569D01*
X142453085Y-97129591D01*
X142449000Y-97088110D01*
X142449000Y-96411890D01*
X142453085Y-96370409D01*
X142463393Y-96336431D01*
X142480134Y-96305110D01*
X142502661Y-96277661D01*
X142530110Y-96255134D01*
X142561431Y-96238393D01*
X142595409Y-96228085D01*
X142636890Y-96224000D01*
X143238110Y-96224000D01*
X143279591Y-96228085D01*
G37*
G36*
X138545922Y-96415164D02*
G01*
X138565494Y-96454421D01*
X137337644Y-97066604D01*
X137267898Y-96926715D01*
X135873222Y-94129430D01*
X135873222Y-94129429D01*
X137101072Y-93517246D01*
X138545922Y-96415164D01*
G37*
G36*
X203869385Y-94002432D02*
G01*
X202379388Y-96926715D01*
X201156927Y-96303840D01*
X202646924Y-93379557D01*
X203869385Y-94002432D01*
G37*
G36*
X140809557Y-95262771D02*
G01*
X140838627Y-95321078D01*
X139610777Y-95933261D01*
X138146355Y-92996087D01*
X138146355Y-92996086D01*
X139374205Y-92383903D01*
X140809557Y-95262771D01*
G37*
G36*
X201606229Y-92849296D02*
G01*
X200116232Y-95773579D01*
X198893771Y-95150704D01*
X200383768Y-92226421D01*
X201606229Y-92849296D01*
G37*
G36*
X161279591Y-94578085D02*
G01*
X161313569Y-94588393D01*
X161344890Y-94605134D01*
X161372339Y-94627661D01*
X161394866Y-94655110D01*
X161411607Y-94686431D01*
X161421915Y-94720409D01*
X161426000Y-94761890D01*
X161426000Y-95438110D01*
X161421915Y-95479591D01*
X161411607Y-95513569D01*
X161394866Y-95544890D01*
X161372339Y-95572339D01*
X161344890Y-95594866D01*
X161313569Y-95611607D01*
X161279591Y-95621915D01*
X161238110Y-95626000D01*
X160636890Y-95626000D01*
X160595409Y-95621915D01*
X160561431Y-95611607D01*
X160530110Y-95594866D01*
X160502661Y-95572339D01*
X160480134Y-95544890D01*
X160463393Y-95513569D01*
X160453085Y-95479591D01*
X160449000Y-95438110D01*
X160449000Y-94761890D01*
X160453085Y-94720409D01*
X160463393Y-94686431D01*
X160480134Y-94655110D01*
X160502661Y-94627661D01*
X160530110Y-94605134D01*
X160561431Y-94588393D01*
X160595409Y-94578085D01*
X160636890Y-94574000D01*
X161238110Y-94574000D01*
X161279591Y-94578085D01*
G37*
G36*
X159704591Y-94578085D02*
G01*
X159738569Y-94588393D01*
X159769890Y-94605134D01*
X159797339Y-94627661D01*
X159819866Y-94655110D01*
X159836607Y-94686431D01*
X159846915Y-94720409D01*
X159851000Y-94761890D01*
X159851000Y-95438110D01*
X159846915Y-95479591D01*
X159836607Y-95513569D01*
X159819866Y-95544890D01*
X159797339Y-95572339D01*
X159769890Y-95594866D01*
X159738569Y-95611607D01*
X159704591Y-95621915D01*
X159663110Y-95626000D01*
X159061890Y-95626000D01*
X159020409Y-95621915D01*
X158986431Y-95611607D01*
X158955110Y-95594866D01*
X158927661Y-95572339D01*
X158905134Y-95544890D01*
X158888393Y-95513569D01*
X158878085Y-95479591D01*
X158874000Y-95438110D01*
X158874000Y-94761890D01*
X158878085Y-94720409D01*
X158888393Y-94686431D01*
X158905134Y-94655110D01*
X158927661Y-94627661D01*
X158955110Y-94605134D01*
X158986431Y-94588393D01*
X159020409Y-94578085D01*
X159061890Y-94574000D01*
X159663110Y-94574000D01*
X159704591Y-94578085D01*
G37*
G36*
X187054591Y-94478085D02*
G01*
X187088569Y-94488393D01*
X187119890Y-94505134D01*
X187147339Y-94527661D01*
X187169866Y-94555110D01*
X187186607Y-94586431D01*
X187196915Y-94620409D01*
X187201000Y-94661890D01*
X187201000Y-95338110D01*
X187196915Y-95379591D01*
X187186607Y-95413569D01*
X187169866Y-95444890D01*
X187147339Y-95472339D01*
X187119890Y-95494866D01*
X187088569Y-95511607D01*
X187054591Y-95521915D01*
X187013110Y-95526000D01*
X186411890Y-95526000D01*
X186370409Y-95521915D01*
X186336431Y-95511607D01*
X186305110Y-95494866D01*
X186277661Y-95472339D01*
X186255134Y-95444890D01*
X186238393Y-95413569D01*
X186228085Y-95379591D01*
X186224000Y-95338110D01*
X186224000Y-94661890D01*
X186228085Y-94620409D01*
X186238393Y-94586431D01*
X186255134Y-94555110D01*
X186277661Y-94527661D01*
X186305110Y-94505134D01*
X186336431Y-94488393D01*
X186370409Y-94478085D01*
X186411890Y-94474000D01*
X187013110Y-94474000D01*
X187054591Y-94478085D01*
G37*
G36*
X154554591Y-94478085D02*
G01*
X154588569Y-94488393D01*
X154619890Y-94505134D01*
X154647339Y-94527661D01*
X154669866Y-94555110D01*
X154686607Y-94586431D01*
X154696915Y-94620409D01*
X154701000Y-94661890D01*
X154701000Y-95338110D01*
X154696915Y-95379591D01*
X154686607Y-95413569D01*
X154669866Y-95444890D01*
X154647339Y-95472339D01*
X154619890Y-95494866D01*
X154588569Y-95511607D01*
X154554591Y-95521915D01*
X154513110Y-95526000D01*
X153911890Y-95526000D01*
X153870409Y-95521915D01*
X153836431Y-95511607D01*
X153805110Y-95494866D01*
X153777661Y-95472339D01*
X153755134Y-95444890D01*
X153738393Y-95413569D01*
X153728085Y-95379591D01*
X153724000Y-95338110D01*
X153724000Y-94661890D01*
X153728085Y-94620409D01*
X153738393Y-94586431D01*
X153755134Y-94555110D01*
X153777661Y-94527661D01*
X153805110Y-94505134D01*
X153836431Y-94488393D01*
X153870409Y-94478085D01*
X153911890Y-94474000D01*
X154513110Y-94474000D01*
X154554591Y-94478085D01*
G37*
G36*
X156129591Y-94478085D02*
G01*
X156163569Y-94488393D01*
X156194890Y-94505134D01*
X156222339Y-94527661D01*
X156244866Y-94555110D01*
X156261607Y-94586431D01*
X156271915Y-94620409D01*
X156276000Y-94661890D01*
X156276000Y-95338110D01*
X156271915Y-95379591D01*
X156261607Y-95413569D01*
X156244866Y-95444890D01*
X156222339Y-95472339D01*
X156194890Y-95494866D01*
X156163569Y-95511607D01*
X156129591Y-95521915D01*
X156088110Y-95526000D01*
X155486890Y-95526000D01*
X155445409Y-95521915D01*
X155411431Y-95511607D01*
X155380110Y-95494866D01*
X155352661Y-95472339D01*
X155330134Y-95444890D01*
X155313393Y-95413569D01*
X155303085Y-95379591D01*
X155299000Y-95338110D01*
X155299000Y-94661890D01*
X155303085Y-94620409D01*
X155313393Y-94586431D01*
X155330134Y-94555110D01*
X155352661Y-94527661D01*
X155380110Y-94505134D01*
X155411431Y-94488393D01*
X155445409Y-94478085D01*
X155486890Y-94474000D01*
X156088110Y-94474000D01*
X156129591Y-94478085D01*
G37*
G36*
X188629591Y-94478085D02*
G01*
X188663569Y-94488393D01*
X188694890Y-94505134D01*
X188722339Y-94527661D01*
X188744866Y-94555110D01*
X188761607Y-94586431D01*
X188771915Y-94620409D01*
X188776000Y-94661890D01*
X188776000Y-95338110D01*
X188771915Y-95379591D01*
X188761607Y-95413569D01*
X188744866Y-95444890D01*
X188722339Y-95472339D01*
X188694890Y-95494866D01*
X188663569Y-95511607D01*
X188629591Y-95521915D01*
X188588110Y-95526000D01*
X187986890Y-95526000D01*
X187945409Y-95521915D01*
X187911431Y-95511607D01*
X187880110Y-95494866D01*
X187852661Y-95472339D01*
X187830134Y-95444890D01*
X187813393Y-95413569D01*
X187803085Y-95379591D01*
X187799000Y-95338110D01*
X187799000Y-94661890D01*
X187803085Y-94620409D01*
X187813393Y-94586431D01*
X187830134Y-94555110D01*
X187852661Y-94527661D01*
X187880110Y-94505134D01*
X187911431Y-94488393D01*
X187945409Y-94478085D01*
X187986890Y-94474000D01*
X188588110Y-94474000D01*
X188629591Y-94478085D01*
G37*
G36*
X143082690Y-94129429D02*
G01*
X143111760Y-94187736D01*
X141883910Y-94799919D01*
X141794410Y-94620409D01*
X140419488Y-91862745D01*
X140419488Y-91862744D01*
X141647338Y-91250561D01*
X143082690Y-94129429D01*
G37*
G36*
X199343072Y-91696160D02*
G01*
X197853075Y-94620443D01*
X196630614Y-93997568D01*
X198120611Y-91073285D01*
X199343072Y-91696160D01*
G37*
G36*
X176829591Y-93478085D02*
G01*
X176863569Y-93488393D01*
X176894890Y-93505134D01*
X176922339Y-93527661D01*
X176944866Y-93555110D01*
X176961607Y-93586431D01*
X176971915Y-93620409D01*
X176976000Y-93661890D01*
X176976000Y-94338110D01*
X176971915Y-94379591D01*
X176961607Y-94413569D01*
X176944866Y-94444890D01*
X176922339Y-94472339D01*
X176894890Y-94494866D01*
X176863569Y-94511607D01*
X176829591Y-94521915D01*
X176788110Y-94526000D01*
X176186890Y-94526000D01*
X176145409Y-94521915D01*
X176111431Y-94511607D01*
X176080110Y-94494866D01*
X176052661Y-94472339D01*
X176030134Y-94444890D01*
X176013393Y-94413569D01*
X176003085Y-94379591D01*
X175999000Y-94338110D01*
X175999000Y-93661890D01*
X176003085Y-93620409D01*
X176013393Y-93586431D01*
X176030134Y-93555110D01*
X176052661Y-93527661D01*
X176080110Y-93505134D01*
X176111431Y-93488393D01*
X176145409Y-93478085D01*
X176186890Y-93474000D01*
X176788110Y-93474000D01*
X176829591Y-93478085D01*
G37*
G36*
X175254591Y-93478085D02*
G01*
X175288569Y-93488393D01*
X175319890Y-93505134D01*
X175347339Y-93527661D01*
X175369866Y-93555110D01*
X175386607Y-93586431D01*
X175396915Y-93620409D01*
X175401000Y-93661890D01*
X175401000Y-94338110D01*
X175396915Y-94379591D01*
X175386607Y-94413569D01*
X175369866Y-94444890D01*
X175347339Y-94472339D01*
X175319890Y-94494866D01*
X175288569Y-94511607D01*
X175254591Y-94521915D01*
X175213110Y-94526000D01*
X174611890Y-94526000D01*
X174570409Y-94521915D01*
X174536431Y-94511607D01*
X174505110Y-94494866D01*
X174477661Y-94472339D01*
X174455134Y-94444890D01*
X174438393Y-94413569D01*
X174428085Y-94379591D01*
X174424000Y-94338110D01*
X174424000Y-93661890D01*
X174428085Y-93620409D01*
X174438393Y-93586431D01*
X174455134Y-93555110D01*
X174477661Y-93527661D01*
X174505110Y-93505134D01*
X174536431Y-93488393D01*
X174570409Y-93478085D01*
X174611890Y-93474000D01*
X175213110Y-93474000D01*
X175254591Y-93478085D01*
G37*
G36*
X197079915Y-90543024D02*
G01*
X195589918Y-93467307D01*
X194367457Y-92844432D01*
X195857454Y-89920149D01*
X197079915Y-90543024D01*
G37*
G36*
X144654591Y-91978085D02*
G01*
X144688569Y-91988393D01*
X144719890Y-92005134D01*
X144747339Y-92027661D01*
X144769866Y-92055110D01*
X144786607Y-92086431D01*
X144796915Y-92120409D01*
X144801000Y-92161890D01*
X144801000Y-92838110D01*
X144796915Y-92879591D01*
X144786607Y-92913569D01*
X144769866Y-92944890D01*
X144747339Y-92972339D01*
X144719890Y-92994866D01*
X144688569Y-93011607D01*
X144654591Y-93021915D01*
X144613110Y-93026000D01*
X144011890Y-93026000D01*
X143970409Y-93021915D01*
X143936431Y-93011607D01*
X143905110Y-92994866D01*
X143877661Y-92972339D01*
X143855134Y-92944890D01*
X143838393Y-92913569D01*
X143828085Y-92879591D01*
X143824000Y-92838110D01*
X143824000Y-92161890D01*
X143828085Y-92120409D01*
X143838393Y-92086431D01*
X143855134Y-92055110D01*
X143877661Y-92027661D01*
X143905110Y-92005134D01*
X143936431Y-91988393D01*
X143970409Y-91978085D01*
X144011890Y-91974000D01*
X144613110Y-91974000D01*
X144654591Y-91978085D01*
G37*
G36*
X146229591Y-91978085D02*
G01*
X146263569Y-91988393D01*
X146294890Y-92005134D01*
X146322339Y-92027661D01*
X146344866Y-92055110D01*
X146361607Y-92086431D01*
X146371915Y-92120409D01*
X146376000Y-92161890D01*
X146376000Y-92838110D01*
X146371915Y-92879591D01*
X146361607Y-92913569D01*
X146344866Y-92944890D01*
X146322339Y-92972339D01*
X146294890Y-92994866D01*
X146263569Y-93011607D01*
X146229591Y-93021915D01*
X146188110Y-93026000D01*
X145586890Y-93026000D01*
X145545409Y-93021915D01*
X145511431Y-93011607D01*
X145480110Y-92994866D01*
X145452661Y-92972339D01*
X145430134Y-92944890D01*
X145413393Y-92913569D01*
X145403085Y-92879591D01*
X145399000Y-92838110D01*
X145399000Y-92161890D01*
X145403085Y-92120409D01*
X145413393Y-92086431D01*
X145430134Y-92055110D01*
X145452661Y-92027661D01*
X145480110Y-92005134D01*
X145511431Y-91988393D01*
X145545409Y-91978085D01*
X145586890Y-91974000D01*
X146188110Y-91974000D01*
X146229591Y-91978085D01*
G37*
G36*
X170929591Y-91278085D02*
G01*
X170963569Y-91288393D01*
X170994890Y-91305134D01*
X171022339Y-91327661D01*
X171044866Y-91355110D01*
X171061607Y-91386431D01*
X171071915Y-91420409D01*
X171076000Y-91461890D01*
X171076000Y-92138110D01*
X171071915Y-92179591D01*
X171061607Y-92213569D01*
X171044866Y-92244890D01*
X171022339Y-92272339D01*
X170994890Y-92294866D01*
X170963569Y-92311607D01*
X170929591Y-92321915D01*
X170888110Y-92326000D01*
X170286890Y-92326000D01*
X170245409Y-92321915D01*
X170211431Y-92311607D01*
X170180110Y-92294866D01*
X170152661Y-92272339D01*
X170130134Y-92244890D01*
X170113393Y-92213569D01*
X170103085Y-92179591D01*
X170099000Y-92138110D01*
X170099000Y-91461890D01*
X170103085Y-91420409D01*
X170113393Y-91386431D01*
X170130134Y-91355110D01*
X170152661Y-91327661D01*
X170180110Y-91305134D01*
X170211431Y-91288393D01*
X170245409Y-91278085D01*
X170286890Y-91274000D01*
X170888110Y-91274000D01*
X170929591Y-91278085D01*
G37*
G36*
X169354591Y-91278085D02*
G01*
X169388569Y-91288393D01*
X169419890Y-91305134D01*
X169447339Y-91327661D01*
X169469866Y-91355110D01*
X169486607Y-91386431D01*
X169496915Y-91420409D01*
X169501000Y-91461890D01*
X169501000Y-92138110D01*
X169496915Y-92179591D01*
X169486607Y-92213569D01*
X169469866Y-92244890D01*
X169447339Y-92272339D01*
X169419890Y-92294866D01*
X169388569Y-92311607D01*
X169354591Y-92321915D01*
X169313110Y-92326000D01*
X168711890Y-92326000D01*
X168670409Y-92321915D01*
X168636431Y-92311607D01*
X168605110Y-92294866D01*
X168577661Y-92272339D01*
X168555134Y-92244890D01*
X168538393Y-92213569D01*
X168528085Y-92179591D01*
X168524000Y-92138110D01*
X168524000Y-91461890D01*
X168528085Y-91420409D01*
X168538393Y-91386431D01*
X168555134Y-91355110D01*
X168577661Y-91327661D01*
X168605110Y-91305134D01*
X168636431Y-91288393D01*
X168670409Y-91278085D01*
X168711890Y-91274000D01*
X169313110Y-91274000D01*
X169354591Y-91278085D01*
G37*
G36*
X194816759Y-89389889D02*
G01*
X193326762Y-92314172D01*
X192104301Y-91691297D01*
X193594298Y-88767014D01*
X194816759Y-89389889D01*
G37*
G36*
X192553602Y-88236753D02*
G01*
X191063605Y-91161036D01*
X189841144Y-90538161D01*
X191331141Y-87613878D01*
X192553602Y-88236753D01*
G37*
G36*
X159029591Y-89678085D02*
G01*
X159063569Y-89688393D01*
X159094890Y-89705134D01*
X159122339Y-89727661D01*
X159144866Y-89755110D01*
X159161607Y-89786431D01*
X159171915Y-89820409D01*
X159176000Y-89861890D01*
X159176000Y-90538110D01*
X159171915Y-90579591D01*
X159161607Y-90613569D01*
X159144866Y-90644890D01*
X159122339Y-90672339D01*
X159094890Y-90694866D01*
X159063569Y-90711607D01*
X159029591Y-90721915D01*
X158988110Y-90726000D01*
X158386890Y-90726000D01*
X158345409Y-90721915D01*
X158311431Y-90711607D01*
X158280110Y-90694866D01*
X158252661Y-90672339D01*
X158230134Y-90644890D01*
X158213393Y-90613569D01*
X158203085Y-90579591D01*
X158199000Y-90538110D01*
X158199000Y-89861890D01*
X158203085Y-89820409D01*
X158213393Y-89786431D01*
X158230134Y-89755110D01*
X158252661Y-89727661D01*
X158280110Y-89705134D01*
X158311431Y-89688393D01*
X158345409Y-89678085D01*
X158386890Y-89674000D01*
X158988110Y-89674000D01*
X159029591Y-89678085D01*
G37*
G36*
X157454591Y-89678085D02*
G01*
X157488569Y-89688393D01*
X157519890Y-89705134D01*
X157547339Y-89727661D01*
X157569866Y-89755110D01*
X157586607Y-89786431D01*
X157596915Y-89820409D01*
X157601000Y-89861890D01*
X157601000Y-90538110D01*
X157596915Y-90579591D01*
X157586607Y-90613569D01*
X157569866Y-90644890D01*
X157547339Y-90672339D01*
X157519890Y-90694866D01*
X157488569Y-90711607D01*
X157454591Y-90721915D01*
X157413110Y-90726000D01*
X156811890Y-90726000D01*
X156770409Y-90721915D01*
X156736431Y-90711607D01*
X156705110Y-90694866D01*
X156677661Y-90672339D01*
X156655134Y-90644890D01*
X156638393Y-90613569D01*
X156628085Y-90579591D01*
X156624000Y-90538110D01*
X156624000Y-89861890D01*
X156628085Y-89820409D01*
X156638393Y-89786431D01*
X156655134Y-89755110D01*
X156677661Y-89727661D01*
X156705110Y-89705134D01*
X156736431Y-89688393D01*
X156770409Y-89678085D01*
X156811890Y-89674000D01*
X157413110Y-89674000D01*
X157454591Y-89678085D01*
G37*
G36*
X176879591Y-87478085D02*
G01*
X176913569Y-87488393D01*
X176944890Y-87505134D01*
X176972339Y-87527661D01*
X176994866Y-87555110D01*
X177011607Y-87586431D01*
X177021915Y-87620409D01*
X177026000Y-87661890D01*
X177026000Y-88338110D01*
X177021915Y-88379591D01*
X177011607Y-88413569D01*
X176994866Y-88444890D01*
X176972339Y-88472339D01*
X176944890Y-88494866D01*
X176913569Y-88511607D01*
X176879591Y-88521915D01*
X176838110Y-88526000D01*
X176236890Y-88526000D01*
X176195409Y-88521915D01*
X176161431Y-88511607D01*
X176130110Y-88494866D01*
X176102661Y-88472339D01*
X176080134Y-88444890D01*
X176063393Y-88413569D01*
X176053085Y-88379591D01*
X176049000Y-88338110D01*
X176049000Y-87661890D01*
X176053085Y-87620409D01*
X176063393Y-87586431D01*
X176080134Y-87555110D01*
X176102661Y-87527661D01*
X176130110Y-87505134D01*
X176161431Y-87488393D01*
X176195409Y-87478085D01*
X176236890Y-87474000D01*
X176838110Y-87474000D01*
X176879591Y-87478085D01*
G37*
G36*
X175304591Y-87478085D02*
G01*
X175338569Y-87488393D01*
X175369890Y-87505134D01*
X175397339Y-87527661D01*
X175419866Y-87555110D01*
X175436607Y-87586431D01*
X175446915Y-87620409D01*
X175451000Y-87661890D01*
X175451000Y-88338110D01*
X175446915Y-88379591D01*
X175436607Y-88413569D01*
X175419866Y-88444890D01*
X175397339Y-88472339D01*
X175369890Y-88494866D01*
X175338569Y-88511607D01*
X175304591Y-88521915D01*
X175263110Y-88526000D01*
X174661890Y-88526000D01*
X174620409Y-88521915D01*
X174586431Y-88511607D01*
X174555110Y-88494866D01*
X174527661Y-88472339D01*
X174505134Y-88444890D01*
X174488393Y-88413569D01*
X174478085Y-88379591D01*
X174474000Y-88338110D01*
X174474000Y-87661890D01*
X174478085Y-87620409D01*
X174488393Y-87586431D01*
X174505134Y-87555110D01*
X174527661Y-87527661D01*
X174555110Y-87505134D01*
X174586431Y-87488393D01*
X174620409Y-87478085D01*
X174661890Y-87474000D01*
X175263110Y-87474000D01*
X175304591Y-87478085D01*
G37*
G36*
X149554591Y-86978085D02*
G01*
X149588569Y-86988393D01*
X149619890Y-87005134D01*
X149647339Y-87027661D01*
X149669866Y-87055110D01*
X149686607Y-87086431D01*
X149696915Y-87120409D01*
X149701000Y-87161890D01*
X149701000Y-87838110D01*
X149696915Y-87879591D01*
X149686607Y-87913569D01*
X149669866Y-87944890D01*
X149647339Y-87972339D01*
X149619890Y-87994866D01*
X149588569Y-88011607D01*
X149554591Y-88021915D01*
X149513110Y-88026000D01*
X148911890Y-88026000D01*
X148870409Y-88021915D01*
X148836431Y-88011607D01*
X148805110Y-87994866D01*
X148777661Y-87972339D01*
X148755134Y-87944890D01*
X148738393Y-87913569D01*
X148728085Y-87879591D01*
X148724000Y-87838110D01*
X148724000Y-87161890D01*
X148728085Y-87120409D01*
X148738393Y-87086431D01*
X148755134Y-87055110D01*
X148777661Y-87027661D01*
X148805110Y-87005134D01*
X148836431Y-86988393D01*
X148870409Y-86978085D01*
X148911890Y-86974000D01*
X149513110Y-86974000D01*
X149554591Y-86978085D01*
G37*
G36*
X151129591Y-86978085D02*
G01*
X151163569Y-86988393D01*
X151194890Y-87005134D01*
X151222339Y-87027661D01*
X151244866Y-87055110D01*
X151261607Y-87086431D01*
X151271915Y-87120409D01*
X151276000Y-87161890D01*
X151276000Y-87838110D01*
X151271915Y-87879591D01*
X151261607Y-87913569D01*
X151244866Y-87944890D01*
X151222339Y-87972339D01*
X151194890Y-87994866D01*
X151163569Y-88011607D01*
X151129591Y-88021915D01*
X151088110Y-88026000D01*
X150486890Y-88026000D01*
X150445409Y-88021915D01*
X150411431Y-88011607D01*
X150380110Y-87994866D01*
X150352661Y-87972339D01*
X150330134Y-87944890D01*
X150313393Y-87913569D01*
X150303085Y-87879591D01*
X150299000Y-87838110D01*
X150299000Y-87161890D01*
X150303085Y-87120409D01*
X150313393Y-87086431D01*
X150330134Y-87055110D01*
X150352661Y-87027661D01*
X150380110Y-87005134D01*
X150411431Y-86988393D01*
X150445409Y-86978085D01*
X150486890Y-86974000D01*
X151088110Y-86974000D01*
X151129591Y-86978085D01*
G37*
G36*
X188809591Y-86863085D02*
G01*
X188843569Y-86873393D01*
X188874890Y-86890134D01*
X188902339Y-86912661D01*
X188924866Y-86940110D01*
X188941607Y-86971431D01*
X188951915Y-87005409D01*
X188956000Y-87046890D01*
X188956000Y-87648110D01*
X188951915Y-87689591D01*
X188941607Y-87723569D01*
X188924866Y-87754890D01*
X188902339Y-87782339D01*
X188874890Y-87804866D01*
X188843569Y-87821607D01*
X188809591Y-87831915D01*
X188768110Y-87836000D01*
X188091890Y-87836000D01*
X188050409Y-87831915D01*
X188016431Y-87821607D01*
X187985110Y-87804866D01*
X187957661Y-87782339D01*
X187935134Y-87754890D01*
X187918393Y-87723569D01*
X187908085Y-87689591D01*
X187904000Y-87648110D01*
X187904000Y-87046890D01*
X187908085Y-87005409D01*
X187918393Y-86971431D01*
X187935134Y-86940110D01*
X187957661Y-86912661D01*
X187985110Y-86890134D01*
X188016431Y-86873393D01*
X188050409Y-86863085D01*
X188091890Y-86859000D01*
X188768110Y-86859000D01*
X188809591Y-86863085D01*
G37*
G36*
X169554591Y-86228085D02*
G01*
X169588569Y-86238393D01*
X169619890Y-86255134D01*
X169647339Y-86277661D01*
X169669866Y-86305110D01*
X169686607Y-86336431D01*
X169696915Y-86370409D01*
X169701000Y-86411890D01*
X169701000Y-87088110D01*
X169696915Y-87129591D01*
X169686607Y-87163569D01*
X169669866Y-87194890D01*
X169647339Y-87222339D01*
X169619890Y-87244866D01*
X169588569Y-87261607D01*
X169554591Y-87271915D01*
X169513110Y-87276000D01*
X168911890Y-87276000D01*
X168870409Y-87271915D01*
X168836431Y-87261607D01*
X168805110Y-87244866D01*
X168777661Y-87222339D01*
X168755134Y-87194890D01*
X168738393Y-87163569D01*
X168728085Y-87129591D01*
X168724000Y-87088110D01*
X168724000Y-86411890D01*
X168728085Y-86370409D01*
X168738393Y-86336431D01*
X168755134Y-86305110D01*
X168777661Y-86277661D01*
X168805110Y-86255134D01*
X168836431Y-86238393D01*
X168870409Y-86228085D01*
X168911890Y-86224000D01*
X169513110Y-86224000D01*
X169554591Y-86228085D01*
G37*
G36*
X171129591Y-86228085D02*
G01*
X171163569Y-86238393D01*
X171194890Y-86255134D01*
X171222339Y-86277661D01*
X171244866Y-86305110D01*
X171261607Y-86336431D01*
X171271915Y-86370409D01*
X171276000Y-86411890D01*
X171276000Y-87088110D01*
X171271915Y-87129591D01*
X171261607Y-87163569D01*
X171244866Y-87194890D01*
X171222339Y-87222339D01*
X171194890Y-87244866D01*
X171163569Y-87261607D01*
X171129591Y-87271915D01*
X171088110Y-87276000D01*
X170486890Y-87276000D01*
X170445409Y-87271915D01*
X170411431Y-87261607D01*
X170380110Y-87244866D01*
X170352661Y-87222339D01*
X170330134Y-87194890D01*
X170313393Y-87163569D01*
X170303085Y-87129591D01*
X170299000Y-87088110D01*
X170299000Y-86411890D01*
X170303085Y-86370409D01*
X170313393Y-86336431D01*
X170330134Y-86305110D01*
X170352661Y-86277661D01*
X170380110Y-86255134D01*
X170411431Y-86238393D01*
X170445409Y-86228085D01*
X170486890Y-86224000D01*
X171088110Y-86224000D01*
X171129591Y-86228085D01*
G37*
G36*
X188809591Y-85288085D02*
G01*
X188843569Y-85298393D01*
X188874890Y-85315134D01*
X188902339Y-85337661D01*
X188924866Y-85365110D01*
X188941607Y-85396431D01*
X188951915Y-85430409D01*
X188956000Y-85471890D01*
X188956000Y-86073110D01*
X188951915Y-86114591D01*
X188941607Y-86148569D01*
X188924866Y-86179890D01*
X188902339Y-86207339D01*
X188874890Y-86229866D01*
X188843569Y-86246607D01*
X188809591Y-86256915D01*
X188768110Y-86261000D01*
X188091890Y-86261000D01*
X188050409Y-86256915D01*
X188016431Y-86246607D01*
X187985110Y-86229866D01*
X187957661Y-86207339D01*
X187935134Y-86179890D01*
X187918393Y-86148569D01*
X187908085Y-86114591D01*
X187904000Y-86073110D01*
X187904000Y-85471890D01*
X187908085Y-85430409D01*
X187918393Y-85396431D01*
X187935134Y-85365110D01*
X187957661Y-85337661D01*
X187985110Y-85315134D01*
X188016431Y-85298393D01*
X188050409Y-85288085D01*
X188091890Y-85284000D01*
X188768110Y-85284000D01*
X188809591Y-85288085D01*
G37*
G36*
X169554591Y-84728085D02*
G01*
X169588569Y-84738393D01*
X169619890Y-84755134D01*
X169647339Y-84777661D01*
X169669866Y-84805110D01*
X169686607Y-84836431D01*
X169696915Y-84870409D01*
X169701000Y-84911890D01*
X169701000Y-85588110D01*
X169696915Y-85629591D01*
X169686607Y-85663569D01*
X169669866Y-85694890D01*
X169647339Y-85722339D01*
X169619890Y-85744866D01*
X169588569Y-85761607D01*
X169554591Y-85771915D01*
X169513110Y-85776000D01*
X168911890Y-85776000D01*
X168870409Y-85771915D01*
X168836431Y-85761607D01*
X168805110Y-85744866D01*
X168777661Y-85722339D01*
X168755134Y-85694890D01*
X168738393Y-85663569D01*
X168728085Y-85629591D01*
X168724000Y-85588110D01*
X168724000Y-84911890D01*
X168728085Y-84870409D01*
X168738393Y-84836431D01*
X168755134Y-84805110D01*
X168777661Y-84777661D01*
X168805110Y-84755134D01*
X168836431Y-84738393D01*
X168870409Y-84728085D01*
X168911890Y-84724000D01*
X169513110Y-84724000D01*
X169554591Y-84728085D01*
G37*
G36*
X171129591Y-84728085D02*
G01*
X171163569Y-84738393D01*
X171194890Y-84755134D01*
X171222339Y-84777661D01*
X171244866Y-84805110D01*
X171261607Y-84836431D01*
X171271915Y-84870409D01*
X171276000Y-84911890D01*
X171276000Y-85588110D01*
X171271915Y-85629591D01*
X171261607Y-85663569D01*
X171244866Y-85694890D01*
X171222339Y-85722339D01*
X171194890Y-85744866D01*
X171163569Y-85761607D01*
X171129591Y-85771915D01*
X171088110Y-85776000D01*
X170486890Y-85776000D01*
X170445409Y-85771915D01*
X170411431Y-85761607D01*
X170380110Y-85744866D01*
X170352661Y-85722339D01*
X170330134Y-85694890D01*
X170313393Y-85663569D01*
X170303085Y-85629591D01*
X170299000Y-85588110D01*
X170299000Y-84911890D01*
X170303085Y-84870409D01*
X170313393Y-84836431D01*
X170330134Y-84805110D01*
X170352661Y-84777661D01*
X170380110Y-84755134D01*
X170411431Y-84738393D01*
X170445409Y-84728085D01*
X170486890Y-84724000D01*
X171088110Y-84724000D01*
X171129591Y-84728085D01*
G37*
G36*
X157054591Y-84478085D02*
G01*
X157088569Y-84488393D01*
X157119890Y-84505134D01*
X157147339Y-84527661D01*
X157169866Y-84555110D01*
X157186607Y-84586431D01*
X157196915Y-84620409D01*
X157201000Y-84661890D01*
X157201000Y-85338110D01*
X157196915Y-85379591D01*
X157186607Y-85413569D01*
X157169866Y-85444890D01*
X157147339Y-85472339D01*
X157119890Y-85494866D01*
X157088569Y-85511607D01*
X157054591Y-85521915D01*
X157013110Y-85526000D01*
X156411890Y-85526000D01*
X156370409Y-85521915D01*
X156336431Y-85511607D01*
X156305110Y-85494866D01*
X156277661Y-85472339D01*
X156255134Y-85444890D01*
X156238393Y-85413569D01*
X156228085Y-85379591D01*
X156224000Y-85338110D01*
X156224000Y-84661890D01*
X156228085Y-84620409D01*
X156238393Y-84586431D01*
X156255134Y-84555110D01*
X156277661Y-84527661D01*
X156305110Y-84505134D01*
X156336431Y-84488393D01*
X156370409Y-84478085D01*
X156411890Y-84474000D01*
X157013110Y-84474000D01*
X157054591Y-84478085D01*
G37*
G36*
X158629591Y-84478085D02*
G01*
X158663569Y-84488393D01*
X158694890Y-84505134D01*
X158722339Y-84527661D01*
X158744866Y-84555110D01*
X158761607Y-84586431D01*
X158771915Y-84620409D01*
X158776000Y-84661890D01*
X158776000Y-85338110D01*
X158771915Y-85379591D01*
X158761607Y-85413569D01*
X158744866Y-85444890D01*
X158722339Y-85472339D01*
X158694890Y-85494866D01*
X158663569Y-85511607D01*
X158629591Y-85521915D01*
X158588110Y-85526000D01*
X157986890Y-85526000D01*
X157945409Y-85521915D01*
X157911431Y-85511607D01*
X157880110Y-85494866D01*
X157852661Y-85472339D01*
X157830134Y-85444890D01*
X157813393Y-85413569D01*
X157803085Y-85379591D01*
X157799000Y-85338110D01*
X157799000Y-84661890D01*
X157803085Y-84620409D01*
X157813393Y-84586431D01*
X157830134Y-84555110D01*
X157852661Y-84527661D01*
X157880110Y-84505134D01*
X157911431Y-84488393D01*
X157945409Y-84478085D01*
X157986890Y-84474000D01*
X158588110Y-84474000D01*
X158629591Y-84478085D01*
G37*
G36*
X191074181Y-82997721D02*
G01*
X191113005Y-83012917D01*
X191163214Y-83038499D01*
X191163215Y-83038500D01*
X191369295Y-83143503D01*
X191715515Y-83319910D01*
X191750619Y-83342382D01*
X191776217Y-83366993D01*
X191796521Y-83396126D01*
X191810753Y-83428662D01*
X191818363Y-83463346D01*
X191819059Y-83498852D01*
X191812817Y-83533807D01*
X191797627Y-83572619D01*
X191698654Y-83766863D01*
X191550264Y-84058095D01*
X191550259Y-84058102D01*
X191524674Y-84108316D01*
X191502205Y-84143416D01*
X191477595Y-84169013D01*
X191448458Y-84189320D01*
X191415927Y-84203549D01*
X191381240Y-84211160D01*
X191345734Y-84211856D01*
X191310783Y-84205615D01*
X191271959Y-84190419D01*
X190669449Y-83883426D01*
X190634345Y-83860954D01*
X190608747Y-83836343D01*
X190588443Y-83807210D01*
X190574211Y-83774674D01*
X190566601Y-83739990D01*
X190565905Y-83704484D01*
X190572147Y-83669529D01*
X190587337Y-83630717D01*
X190745702Y-83319910D01*
X190834700Y-83145241D01*
X190834705Y-83145234D01*
X190860290Y-83095020D01*
X190882759Y-83059920D01*
X190907369Y-83034323D01*
X190936506Y-83014016D01*
X190969037Y-82999787D01*
X191003724Y-82992176D01*
X191039230Y-82991480D01*
X191074181Y-82997721D01*
G37*
G36*
X141529591Y-82378085D02*
G01*
X141563569Y-82388393D01*
X141594890Y-82405134D01*
X141622339Y-82427661D01*
X141644866Y-82455110D01*
X141661607Y-82486431D01*
X141671915Y-82520409D01*
X141676000Y-82561890D01*
X141676000Y-83238110D01*
X141671915Y-83279591D01*
X141661607Y-83313569D01*
X141644866Y-83344890D01*
X141622339Y-83372339D01*
X141594890Y-83394866D01*
X141563569Y-83411607D01*
X141529591Y-83421915D01*
X141488110Y-83426000D01*
X140886890Y-83426000D01*
X140845409Y-83421915D01*
X140811431Y-83411607D01*
X140780110Y-83394866D01*
X140752661Y-83372339D01*
X140730134Y-83344890D01*
X140713393Y-83313569D01*
X140703085Y-83279591D01*
X140699000Y-83238110D01*
X140699000Y-82561890D01*
X140703085Y-82520409D01*
X140713393Y-82486431D01*
X140730134Y-82455110D01*
X140752661Y-82427661D01*
X140780110Y-82405134D01*
X140811431Y-82388393D01*
X140845409Y-82378085D01*
X140886890Y-82374000D01*
X141488110Y-82374000D01*
X141529591Y-82378085D01*
G37*
G36*
X139954591Y-82378085D02*
G01*
X139988569Y-82388393D01*
X140019890Y-82405134D01*
X140047339Y-82427661D01*
X140069866Y-82455110D01*
X140086607Y-82486431D01*
X140096915Y-82520409D01*
X140101000Y-82561890D01*
X140101000Y-83238110D01*
X140096915Y-83279591D01*
X140086607Y-83313569D01*
X140069866Y-83344890D01*
X140047339Y-83372339D01*
X140019890Y-83394866D01*
X139988569Y-83411607D01*
X139954591Y-83421915D01*
X139913110Y-83426000D01*
X139311890Y-83426000D01*
X139270409Y-83421915D01*
X139236431Y-83411607D01*
X139205110Y-83394866D01*
X139177661Y-83372339D01*
X139155134Y-83344890D01*
X139138393Y-83313569D01*
X139128085Y-83279591D01*
X139124000Y-83238110D01*
X139124000Y-82561890D01*
X139128085Y-82520409D01*
X139138393Y-82486431D01*
X139155134Y-82455110D01*
X139177661Y-82427661D01*
X139205110Y-82405134D01*
X139236431Y-82388393D01*
X139270409Y-82378085D01*
X139311890Y-82374000D01*
X139913110Y-82374000D01*
X139954591Y-82378085D01*
G37*
G36*
X171326000Y-83351000D02*
G01*
X170574000Y-83351000D01*
X170574000Y-81549000D01*
X171326000Y-81549000D01*
X171326000Y-83351000D01*
G37*
G36*
X169426000Y-83351000D02*
G01*
X168674000Y-83351000D01*
X168674000Y-81549000D01*
X169426000Y-81549000D01*
X169426000Y-83351000D01*
G37*
G36*
X167379591Y-82303085D02*
G01*
X167413569Y-82313393D01*
X167444890Y-82330134D01*
X167472339Y-82352661D01*
X167494866Y-82380110D01*
X167511607Y-82411431D01*
X167521915Y-82445409D01*
X167526000Y-82486890D01*
X167526000Y-83088110D01*
X167521915Y-83129591D01*
X167511607Y-83163569D01*
X167494866Y-83194890D01*
X167472339Y-83222339D01*
X167444890Y-83244866D01*
X167413569Y-83261607D01*
X167379591Y-83271915D01*
X167338110Y-83276000D01*
X166661890Y-83276000D01*
X166620409Y-83271915D01*
X166586431Y-83261607D01*
X166555110Y-83244866D01*
X166527661Y-83222339D01*
X166505134Y-83194890D01*
X166488393Y-83163569D01*
X166478085Y-83129591D01*
X166474000Y-83088110D01*
X166474000Y-82486890D01*
X166478085Y-82445409D01*
X166488393Y-82411431D01*
X166505134Y-82380110D01*
X166527661Y-82352661D01*
X166555110Y-82330134D01*
X166586431Y-82313393D01*
X166620409Y-82303085D01*
X166661890Y-82299000D01*
X167338110Y-82299000D01*
X167379591Y-82303085D01*
G37*
G36*
X182054591Y-81978085D02*
G01*
X182088569Y-81988393D01*
X182119890Y-82005134D01*
X182147339Y-82027661D01*
X182169866Y-82055110D01*
X182186607Y-82086431D01*
X182196915Y-82120409D01*
X182201000Y-82161890D01*
X182201000Y-82838110D01*
X182196915Y-82879591D01*
X182186607Y-82913569D01*
X182169866Y-82944890D01*
X182147339Y-82972339D01*
X182119890Y-82994866D01*
X182088569Y-83011607D01*
X182054591Y-83021915D01*
X182013110Y-83026000D01*
X181411890Y-83026000D01*
X181370409Y-83021915D01*
X181336431Y-83011607D01*
X181305110Y-82994866D01*
X181277661Y-82972339D01*
X181255134Y-82944890D01*
X181238393Y-82913569D01*
X181228085Y-82879591D01*
X181224000Y-82838110D01*
X181224000Y-82161890D01*
X181228085Y-82120409D01*
X181238393Y-82086431D01*
X181255134Y-82055110D01*
X181277661Y-82027661D01*
X181305110Y-82005134D01*
X181336431Y-81988393D01*
X181370409Y-81978085D01*
X181411890Y-81974000D01*
X182013110Y-81974000D01*
X182054591Y-81978085D01*
G37*
G36*
X183629591Y-81978085D02*
G01*
X183663569Y-81988393D01*
X183694890Y-82005134D01*
X183722339Y-82027661D01*
X183744866Y-82055110D01*
X183761607Y-82086431D01*
X183771915Y-82120409D01*
X183776000Y-82161890D01*
X183776000Y-82838110D01*
X183771915Y-82879591D01*
X183761607Y-82913569D01*
X183744866Y-82944890D01*
X183722339Y-82972339D01*
X183694890Y-82994866D01*
X183663569Y-83011607D01*
X183629591Y-83021915D01*
X183588110Y-83026000D01*
X182986890Y-83026000D01*
X182945409Y-83021915D01*
X182911431Y-83011607D01*
X182880110Y-82994866D01*
X182852661Y-82972339D01*
X182830134Y-82944890D01*
X182813393Y-82913569D01*
X182803085Y-82879591D01*
X182799000Y-82838110D01*
X182799000Y-82161890D01*
X182803085Y-82120409D01*
X182813393Y-82086431D01*
X182830134Y-82055110D01*
X182852661Y-82027661D01*
X182880110Y-82005134D01*
X182911431Y-81988393D01*
X182945409Y-81978085D01*
X182986890Y-81974000D01*
X183588110Y-81974000D01*
X183629591Y-81978085D01*
G37*
G36*
X191789217Y-81594385D02*
G01*
X191828041Y-81609581D01*
X191878250Y-81635163D01*
X191878251Y-81635164D01*
X191970973Y-81682408D01*
X192430551Y-81916574D01*
X192465655Y-81939046D01*
X192491253Y-81963657D01*
X192511557Y-81992790D01*
X192525789Y-82025326D01*
X192533399Y-82060010D01*
X192534095Y-82095516D01*
X192527853Y-82130471D01*
X192512663Y-82169283D01*
X192381012Y-82427661D01*
X192265300Y-82654759D01*
X192265295Y-82654766D01*
X192239710Y-82704980D01*
X192217241Y-82740080D01*
X192192631Y-82765677D01*
X192163494Y-82785984D01*
X192130963Y-82800213D01*
X192096276Y-82807824D01*
X192060770Y-82808520D01*
X192025819Y-82802279D01*
X191986995Y-82787083D01*
X191384485Y-82480090D01*
X191349381Y-82457618D01*
X191323783Y-82433007D01*
X191303479Y-82403874D01*
X191289247Y-82371338D01*
X191281637Y-82336654D01*
X191280941Y-82301148D01*
X191287183Y-82266193D01*
X191302373Y-82227381D01*
X191449288Y-81939046D01*
X191549736Y-81741905D01*
X191549741Y-81741898D01*
X191575326Y-81691684D01*
X191597795Y-81656584D01*
X191622405Y-81630987D01*
X191651542Y-81610680D01*
X191684073Y-81596451D01*
X191718760Y-81588840D01*
X191754266Y-81588144D01*
X191789217Y-81594385D01*
G37*
G36*
X150779591Y-81278085D02*
G01*
X150813569Y-81288393D01*
X150844890Y-81305134D01*
X150872339Y-81327661D01*
X150894866Y-81355110D01*
X150911607Y-81386431D01*
X150921915Y-81420409D01*
X150926000Y-81461890D01*
X150926000Y-82138110D01*
X150921915Y-82179591D01*
X150911607Y-82213569D01*
X150894866Y-82244890D01*
X150872339Y-82272339D01*
X150844890Y-82294866D01*
X150813569Y-82311607D01*
X150779591Y-82321915D01*
X150738110Y-82326000D01*
X150136890Y-82326000D01*
X150095409Y-82321915D01*
X150061431Y-82311607D01*
X150030110Y-82294866D01*
X150002661Y-82272339D01*
X149980134Y-82244890D01*
X149963393Y-82213569D01*
X149953085Y-82179591D01*
X149949000Y-82138110D01*
X149949000Y-81461890D01*
X149953085Y-81420409D01*
X149963393Y-81386431D01*
X149980134Y-81355110D01*
X150002661Y-81327661D01*
X150030110Y-81305134D01*
X150061431Y-81288393D01*
X150095409Y-81278085D01*
X150136890Y-81274000D01*
X150738110Y-81274000D01*
X150779591Y-81278085D01*
G37*
G36*
X149204591Y-81278085D02*
G01*
X149238569Y-81288393D01*
X149269890Y-81305134D01*
X149297339Y-81327661D01*
X149319866Y-81355110D01*
X149336607Y-81386431D01*
X149346915Y-81420409D01*
X149351000Y-81461890D01*
X149351000Y-82138110D01*
X149346915Y-82179591D01*
X149336607Y-82213569D01*
X149319866Y-82244890D01*
X149297339Y-82272339D01*
X149269890Y-82294866D01*
X149238569Y-82311607D01*
X149204591Y-82321915D01*
X149163110Y-82326000D01*
X148561890Y-82326000D01*
X148520409Y-82321915D01*
X148486431Y-82311607D01*
X148455110Y-82294866D01*
X148427661Y-82272339D01*
X148405134Y-82244890D01*
X148388393Y-82213569D01*
X148378085Y-82179591D01*
X148374000Y-82138110D01*
X148374000Y-81461890D01*
X148378085Y-81420409D01*
X148388393Y-81386431D01*
X148405134Y-81355110D01*
X148427661Y-81327661D01*
X148455110Y-81305134D01*
X148486431Y-81288393D01*
X148520409Y-81278085D01*
X148561890Y-81274000D01*
X149163110Y-81274000D01*
X149204591Y-81278085D01*
G37*
G36*
X165209468Y-80603565D02*
G01*
X165248138Y-80615296D01*
X165283777Y-80634346D01*
X165315017Y-80659983D01*
X165340654Y-80691223D01*
X165359704Y-80726862D01*
X165371435Y-80765532D01*
X165376000Y-80811888D01*
X165376000Y-81888112D01*
X165371435Y-81934468D01*
X165359704Y-81973138D01*
X165340654Y-82008777D01*
X165315017Y-82040017D01*
X165283777Y-82065654D01*
X165248138Y-82084704D01*
X165209468Y-82096435D01*
X165163112Y-82101000D01*
X164511888Y-82101000D01*
X164465532Y-82096435D01*
X164426862Y-82084704D01*
X164391223Y-82065654D01*
X164359983Y-82040017D01*
X164334346Y-82008777D01*
X164315296Y-81973138D01*
X164303565Y-81934468D01*
X164299000Y-81888112D01*
X164299000Y-80811888D01*
X164303565Y-80765532D01*
X164315296Y-80726862D01*
X164334346Y-80691223D01*
X164359983Y-80659983D01*
X164391223Y-80634346D01*
X164426862Y-80615296D01*
X164465532Y-80603565D01*
X164511888Y-80599000D01*
X165163112Y-80599000D01*
X165209468Y-80603565D01*
G37*
G36*
X163334468Y-80603565D02*
G01*
X163373138Y-80615296D01*
X163408777Y-80634346D01*
X163440017Y-80659983D01*
X163465654Y-80691223D01*
X163484704Y-80726862D01*
X163496435Y-80765532D01*
X163501000Y-80811888D01*
X163501000Y-81888112D01*
X163496435Y-81934468D01*
X163484704Y-81973138D01*
X163465654Y-82008777D01*
X163440017Y-82040017D01*
X163408777Y-82065654D01*
X163373138Y-82084704D01*
X163334468Y-82096435D01*
X163288112Y-82101000D01*
X162636888Y-82101000D01*
X162590532Y-82096435D01*
X162551862Y-82084704D01*
X162516223Y-82065654D01*
X162484983Y-82040017D01*
X162459346Y-82008777D01*
X162440296Y-81973138D01*
X162428565Y-81934468D01*
X162424000Y-81888112D01*
X162424000Y-80811888D01*
X162428565Y-80765532D01*
X162440296Y-80726862D01*
X162459346Y-80691223D01*
X162484983Y-80659983D01*
X162516223Y-80634346D01*
X162551862Y-80615296D01*
X162590532Y-80603565D01*
X162636888Y-80599000D01*
X163288112Y-80599000D01*
X163334468Y-80603565D01*
G37*
G36*
X161226000Y-81781000D02*
G01*
X158574000Y-81781000D01*
X158574000Y-80619000D01*
X161226000Y-80619000D01*
X161226000Y-81781000D01*
G37*
G36*
X167379591Y-80728085D02*
G01*
X167413569Y-80738393D01*
X167444890Y-80755134D01*
X167472339Y-80777661D01*
X167494866Y-80805110D01*
X167511607Y-80836431D01*
X167521915Y-80870409D01*
X167526000Y-80911890D01*
X167526000Y-81513110D01*
X167521915Y-81554591D01*
X167511607Y-81588569D01*
X167494866Y-81619890D01*
X167472339Y-81647339D01*
X167444890Y-81669866D01*
X167413569Y-81686607D01*
X167379591Y-81696915D01*
X167338110Y-81701000D01*
X166661890Y-81701000D01*
X166620409Y-81696915D01*
X166586431Y-81686607D01*
X166555110Y-81669866D01*
X166527661Y-81647339D01*
X166505134Y-81619890D01*
X166488393Y-81588569D01*
X166478085Y-81554591D01*
X166474000Y-81513110D01*
X166474000Y-80911890D01*
X166478085Y-80870409D01*
X166488393Y-80836431D01*
X166505134Y-80805110D01*
X166527661Y-80777661D01*
X166555110Y-80755134D01*
X166586431Y-80738393D01*
X166620409Y-80728085D01*
X166661890Y-80724000D01*
X167338110Y-80724000D01*
X167379591Y-80728085D01*
G37*
G36*
X157529591Y-80403085D02*
G01*
X157563569Y-80413393D01*
X157594890Y-80430134D01*
X157622339Y-80452661D01*
X157644866Y-80480110D01*
X157661607Y-80511431D01*
X157671915Y-80545409D01*
X157676000Y-80586890D01*
X157676000Y-81188110D01*
X157671915Y-81229591D01*
X157661607Y-81263569D01*
X157644866Y-81294890D01*
X157622339Y-81322339D01*
X157594890Y-81344866D01*
X157563569Y-81361607D01*
X157529591Y-81371915D01*
X157488110Y-81376000D01*
X156811890Y-81376000D01*
X156770409Y-81371915D01*
X156736431Y-81361607D01*
X156705110Y-81344866D01*
X156677661Y-81322339D01*
X156655134Y-81294890D01*
X156638393Y-81263569D01*
X156628085Y-81229591D01*
X156624000Y-81188110D01*
X156624000Y-80586890D01*
X156628085Y-80545409D01*
X156638393Y-80511431D01*
X156655134Y-80480110D01*
X156677661Y-80452661D01*
X156705110Y-80430134D01*
X156736431Y-80413393D01*
X156770409Y-80403085D01*
X156811890Y-80399000D01*
X157488110Y-80399000D01*
X157529591Y-80403085D01*
G37*
G36*
X188829591Y-79678085D02*
G01*
X188863569Y-79688393D01*
X188894890Y-79705134D01*
X188922339Y-79727661D01*
X188944866Y-79755110D01*
X188961607Y-79786431D01*
X188971915Y-79820409D01*
X188976000Y-79861890D01*
X188976000Y-80538110D01*
X188971915Y-80579591D01*
X188961607Y-80613569D01*
X188944866Y-80644890D01*
X188922339Y-80672339D01*
X188894890Y-80694866D01*
X188863569Y-80711607D01*
X188829591Y-80721915D01*
X188788110Y-80726000D01*
X188186890Y-80726000D01*
X188145409Y-80721915D01*
X188111431Y-80711607D01*
X188080110Y-80694866D01*
X188052661Y-80672339D01*
X188030134Y-80644890D01*
X188013393Y-80613569D01*
X188003085Y-80579591D01*
X187999000Y-80538110D01*
X187999000Y-79861890D01*
X188003085Y-79820409D01*
X188013393Y-79786431D01*
X188030134Y-79755110D01*
X188052661Y-79727661D01*
X188080110Y-79705134D01*
X188111431Y-79688393D01*
X188145409Y-79678085D01*
X188186890Y-79674000D01*
X188788110Y-79674000D01*
X188829591Y-79678085D01*
G37*
G36*
X187254591Y-79678085D02*
G01*
X187288569Y-79688393D01*
X187319890Y-79705134D01*
X187347339Y-79727661D01*
X187369866Y-79755110D01*
X187386607Y-79786431D01*
X187396915Y-79820409D01*
X187401000Y-79861890D01*
X187401000Y-80538110D01*
X187396915Y-80579591D01*
X187386607Y-80613569D01*
X187369866Y-80644890D01*
X187347339Y-80672339D01*
X187319890Y-80694866D01*
X187288569Y-80711607D01*
X187254591Y-80721915D01*
X187213110Y-80726000D01*
X186611890Y-80726000D01*
X186570409Y-80721915D01*
X186536431Y-80711607D01*
X186505110Y-80694866D01*
X186477661Y-80672339D01*
X186455134Y-80644890D01*
X186438393Y-80613569D01*
X186428085Y-80579591D01*
X186424000Y-80538110D01*
X186424000Y-79861890D01*
X186428085Y-79820409D01*
X186438393Y-79786431D01*
X186455134Y-79755110D01*
X186477661Y-79727661D01*
X186505110Y-79705134D01*
X186536431Y-79688393D01*
X186570409Y-79678085D01*
X186611890Y-79674000D01*
X187213110Y-79674000D01*
X187254591Y-79678085D01*
G37*
G36*
X157529591Y-78828085D02*
G01*
X157563569Y-78838393D01*
X157594890Y-78855134D01*
X157622339Y-78877661D01*
X157644866Y-78905110D01*
X157661607Y-78936431D01*
X157671915Y-78970409D01*
X157676000Y-79011890D01*
X157676000Y-79613110D01*
X157671915Y-79654591D01*
X157661607Y-79688569D01*
X157644866Y-79719890D01*
X157622339Y-79747339D01*
X157594890Y-79769866D01*
X157563569Y-79786607D01*
X157529591Y-79796915D01*
X157488110Y-79801000D01*
X156811890Y-79801000D01*
X156770409Y-79796915D01*
X156736431Y-79786607D01*
X156705110Y-79769866D01*
X156677661Y-79747339D01*
X156655134Y-79719890D01*
X156638393Y-79688569D01*
X156628085Y-79654591D01*
X156624000Y-79613110D01*
X156624000Y-79011890D01*
X156628085Y-78970409D01*
X156638393Y-78936431D01*
X156655134Y-78905110D01*
X156677661Y-78877661D01*
X156705110Y-78855134D01*
X156736431Y-78838393D01*
X156770409Y-78828085D01*
X156811890Y-78824000D01*
X157488110Y-78824000D01*
X157529591Y-78828085D01*
G37*
G36*
X161226000Y-79581000D02*
G01*
X158574000Y-79581000D01*
X158574000Y-78419000D01*
X161226000Y-78419000D01*
X161226000Y-79581000D01*
G37*
G36*
X168905355Y-74600083D02*
G01*
X168910029Y-74601501D01*
X168914330Y-74603800D01*
X168920702Y-74609029D01*
X168941076Y-74622643D01*
X168963715Y-74632020D01*
X168987749Y-74636800D01*
X169012253Y-74636800D01*
X169036286Y-74632019D01*
X169058925Y-74622642D01*
X169079298Y-74609029D01*
X169085670Y-74603800D01*
X169089971Y-74601501D01*
X169094645Y-74600083D01*
X169105641Y-74599000D01*
X169394359Y-74599000D01*
X169405355Y-74600083D01*
X169410029Y-74601501D01*
X169414330Y-74603800D01*
X169420702Y-74609029D01*
X169441076Y-74622643D01*
X169463715Y-74632020D01*
X169487749Y-74636800D01*
X169512253Y-74636800D01*
X169536286Y-74632019D01*
X169558925Y-74622642D01*
X169579298Y-74609029D01*
X169585670Y-74603800D01*
X169589971Y-74601501D01*
X169594645Y-74600083D01*
X169605641Y-74599000D01*
X169894359Y-74599000D01*
X169905355Y-74600083D01*
X169910029Y-74601501D01*
X169914330Y-74603800D01*
X169920702Y-74609029D01*
X169941076Y-74622643D01*
X169963715Y-74632020D01*
X169987749Y-74636800D01*
X170012253Y-74636800D01*
X170036286Y-74632019D01*
X170058925Y-74622642D01*
X170079298Y-74609029D01*
X170085670Y-74603800D01*
X170089971Y-74601501D01*
X170094645Y-74600083D01*
X170105641Y-74599000D01*
X170394359Y-74599000D01*
X170405355Y-74600083D01*
X170410029Y-74601501D01*
X170414330Y-74603800D01*
X170420702Y-74609029D01*
X170441076Y-74622643D01*
X170463715Y-74632020D01*
X170487749Y-74636800D01*
X170512253Y-74636800D01*
X170536286Y-74632019D01*
X170558925Y-74622642D01*
X170579298Y-74609029D01*
X170585670Y-74603800D01*
X170589971Y-74601501D01*
X170594645Y-74600083D01*
X170605641Y-74599000D01*
X170894359Y-74599000D01*
X170905355Y-74600083D01*
X170910029Y-74601501D01*
X170914330Y-74603800D01*
X170920702Y-74609029D01*
X170941076Y-74622643D01*
X170963715Y-74632020D01*
X170987749Y-74636800D01*
X171012253Y-74636800D01*
X171036286Y-74632019D01*
X171058925Y-74622642D01*
X171079298Y-74609029D01*
X171085670Y-74603800D01*
X171089971Y-74601501D01*
X171094645Y-74600083D01*
X171105641Y-74599000D01*
X171394359Y-74599000D01*
X171405355Y-74600083D01*
X171410029Y-74601501D01*
X171414331Y-74603800D01*
X171418104Y-74606896D01*
X171421200Y-74610669D01*
X171423499Y-74614971D01*
X171424917Y-74619645D01*
X171426000Y-74630641D01*
X171426000Y-75449001D01*
X171428402Y-75473387D01*
X171435515Y-75496836D01*
X171447066Y-75518447D01*
X171462611Y-75537389D01*
X171481553Y-75552934D01*
X171503164Y-75564485D01*
X171526613Y-75571598D01*
X171550999Y-75574000D01*
X172369359Y-75574000D01*
X172380355Y-75575083D01*
X172385029Y-75576501D01*
X172389331Y-75578800D01*
X172393104Y-75581896D01*
X172396200Y-75585669D01*
X172398499Y-75589971D01*
X172399917Y-75594645D01*
X172401000Y-75605641D01*
X172401000Y-75894359D01*
X172399917Y-75905355D01*
X172398499Y-75910029D01*
X172396200Y-75914330D01*
X172390971Y-75920702D01*
X172377357Y-75941076D01*
X172367980Y-75963715D01*
X172363200Y-75987749D01*
X172363200Y-76012253D01*
X172367981Y-76036286D01*
X172377358Y-76058925D01*
X172390971Y-76079298D01*
X172396200Y-76085670D01*
X172398499Y-76089971D01*
X172399917Y-76094645D01*
X172401000Y-76105641D01*
X172401000Y-76394359D01*
X172399917Y-76405355D01*
X172398499Y-76410029D01*
X172396200Y-76414330D01*
X172390971Y-76420702D01*
X172377357Y-76441076D01*
X172367980Y-76463715D01*
X172363200Y-76487749D01*
X172363200Y-76512253D01*
X172367981Y-76536286D01*
X172377358Y-76558925D01*
X172390971Y-76579298D01*
X172396200Y-76585670D01*
X172398499Y-76589971D01*
X172399917Y-76594645D01*
X172401000Y-76605641D01*
X172401000Y-76894359D01*
X172399917Y-76905355D01*
X172398499Y-76910029D01*
X172396200Y-76914330D01*
X172390971Y-76920702D01*
X172377357Y-76941076D01*
X172367980Y-76963715D01*
X172363200Y-76987749D01*
X172363200Y-77012253D01*
X172367981Y-77036286D01*
X172377358Y-77058925D01*
X172390971Y-77079298D01*
X172396200Y-77085670D01*
X172398499Y-77089971D01*
X172399917Y-77094645D01*
X172401000Y-77105641D01*
X172401000Y-77394359D01*
X172399917Y-77405355D01*
X172398499Y-77410029D01*
X172396200Y-77414330D01*
X172390971Y-77420702D01*
X172377357Y-77441076D01*
X172367980Y-77463715D01*
X172363200Y-77487749D01*
X172363200Y-77512253D01*
X172367981Y-77536286D01*
X172377358Y-77558925D01*
X172390971Y-77579298D01*
X172396200Y-77585670D01*
X172398499Y-77589971D01*
X172399917Y-77594645D01*
X172401000Y-77605641D01*
X172401000Y-77894359D01*
X172399917Y-77905355D01*
X172398499Y-77910029D01*
X172396200Y-77914330D01*
X172390971Y-77920702D01*
X172377357Y-77941076D01*
X172367980Y-77963715D01*
X172363200Y-77987749D01*
X172363200Y-78012253D01*
X172367981Y-78036286D01*
X172377358Y-78058925D01*
X172390971Y-78079298D01*
X172396200Y-78085670D01*
X172398499Y-78089971D01*
X172399917Y-78094645D01*
X172401000Y-78105641D01*
X172401000Y-78394359D01*
X172399917Y-78405355D01*
X172398499Y-78410029D01*
X172396200Y-78414331D01*
X172393104Y-78418104D01*
X172389331Y-78421200D01*
X172385029Y-78423499D01*
X172380355Y-78424917D01*
X172369359Y-78426000D01*
X171550999Y-78426000D01*
X171526613Y-78428402D01*
X171503164Y-78435515D01*
X171481553Y-78447066D01*
X171462611Y-78462611D01*
X171447066Y-78481553D01*
X171435515Y-78503164D01*
X171428402Y-78526613D01*
X171426000Y-78550999D01*
X171426000Y-79369359D01*
X171424917Y-79380355D01*
X171423499Y-79385029D01*
X171421200Y-79389331D01*
X171418104Y-79393104D01*
X171414331Y-79396200D01*
X171410029Y-79398499D01*
X171405355Y-79399917D01*
X171394359Y-79401000D01*
X171105641Y-79401000D01*
X171094645Y-79399917D01*
X171089971Y-79398499D01*
X171085670Y-79396200D01*
X171079298Y-79390971D01*
X171058924Y-79377357D01*
X171036285Y-79367980D01*
X171012251Y-79363200D01*
X170987747Y-79363200D01*
X170963714Y-79367981D01*
X170941075Y-79377358D01*
X170920702Y-79390971D01*
X170914330Y-79396200D01*
X170910029Y-79398499D01*
X170905355Y-79399917D01*
X170894359Y-79401000D01*
X170605641Y-79401000D01*
X170594645Y-79399917D01*
X170589971Y-79398499D01*
X170585670Y-79396200D01*
X170579298Y-79390971D01*
X170558924Y-79377357D01*
X170536285Y-79367980D01*
X170512251Y-79363200D01*
X170487747Y-79363200D01*
X170463714Y-79367981D01*
X170441075Y-79377358D01*
X170420702Y-79390971D01*
X170414330Y-79396200D01*
X170410029Y-79398499D01*
X170405355Y-79399917D01*
X170394359Y-79401000D01*
X170105641Y-79401000D01*
X170094645Y-79399917D01*
X170089971Y-79398499D01*
X170085670Y-79396200D01*
X170079298Y-79390971D01*
X170058924Y-79377357D01*
X170036285Y-79367980D01*
X170012251Y-79363200D01*
X169987747Y-79363200D01*
X169963714Y-79367981D01*
X169941075Y-79377358D01*
X169920702Y-79390971D01*
X169914330Y-79396200D01*
X169910029Y-79398499D01*
X169905355Y-79399917D01*
X169894359Y-79401000D01*
X169605641Y-79401000D01*
X169594645Y-79399917D01*
X169589971Y-79398499D01*
X169585670Y-79396200D01*
X169579298Y-79390971D01*
X169558924Y-79377357D01*
X169536285Y-79367980D01*
X169512251Y-79363200D01*
X169487747Y-79363200D01*
X169463714Y-79367981D01*
X169441075Y-79377358D01*
X169420702Y-79390971D01*
X169414330Y-79396200D01*
X169410029Y-79398499D01*
X169405355Y-79399917D01*
X169394359Y-79401000D01*
X169105641Y-79401000D01*
X169094645Y-79399917D01*
X169089971Y-79398499D01*
X169085670Y-79396200D01*
X169079298Y-79390971D01*
X169058924Y-79377357D01*
X169036285Y-79367980D01*
X169012251Y-79363200D01*
X168987747Y-79363200D01*
X168963714Y-79367981D01*
X168941075Y-79377358D01*
X168920702Y-79390971D01*
X168914330Y-79396200D01*
X168910029Y-79398499D01*
X168905355Y-79399917D01*
X168894359Y-79401000D01*
X168605641Y-79401000D01*
X168594645Y-79399917D01*
X168589971Y-79398499D01*
X168585669Y-79396200D01*
X168581896Y-79393104D01*
X168578800Y-79389331D01*
X168576501Y-79385029D01*
X168575083Y-79380355D01*
X168574000Y-79369359D01*
X168574000Y-78550999D01*
X168571598Y-78526613D01*
X168564485Y-78503164D01*
X168552934Y-78481553D01*
X168537389Y-78462611D01*
X168518447Y-78447066D01*
X168496836Y-78435515D01*
X168473387Y-78428402D01*
X168449001Y-78426000D01*
X167630641Y-78426000D01*
X167619645Y-78424917D01*
X167614971Y-78423499D01*
X167610669Y-78421200D01*
X167606896Y-78418104D01*
X167603800Y-78414331D01*
X167601501Y-78410029D01*
X167600083Y-78405355D01*
X167599000Y-78394359D01*
X167599000Y-78105641D01*
X167600083Y-78094645D01*
X167601501Y-78089971D01*
X167603800Y-78085670D01*
X167609029Y-78079298D01*
X167622643Y-78058924D01*
X167632020Y-78036285D01*
X167636800Y-78012251D01*
X167636800Y-77987747D01*
X167632019Y-77963714D01*
X167622642Y-77941075D01*
X167609029Y-77920702D01*
X167603800Y-77914330D01*
X167601501Y-77910029D01*
X167600083Y-77905355D01*
X167599000Y-77894359D01*
X167599000Y-77605641D01*
X167600083Y-77594645D01*
X167601501Y-77589971D01*
X167603800Y-77585670D01*
X167609029Y-77579298D01*
X167622643Y-77558924D01*
X167632020Y-77536285D01*
X167636800Y-77512251D01*
X167636800Y-77487747D01*
X167632019Y-77463714D01*
X167622642Y-77441075D01*
X167609029Y-77420702D01*
X167603800Y-77414330D01*
X167601501Y-77410029D01*
X167600083Y-77405355D01*
X167599000Y-77394359D01*
X167599000Y-77105641D01*
X167600083Y-77094645D01*
X167601501Y-77089971D01*
X167603800Y-77085670D01*
X167609029Y-77079298D01*
X167622643Y-77058924D01*
X167632020Y-77036285D01*
X167636800Y-77012251D01*
X167636800Y-76987747D01*
X167632019Y-76963714D01*
X167622642Y-76941075D01*
X167609029Y-76920702D01*
X167603800Y-76914330D01*
X167601501Y-76910029D01*
X167600083Y-76905355D01*
X167599000Y-76894359D01*
X167599000Y-76605641D01*
X167600083Y-76594645D01*
X167601501Y-76589971D01*
X167603800Y-76585670D01*
X167609029Y-76579298D01*
X167622643Y-76558924D01*
X167632020Y-76536285D01*
X167636800Y-76512251D01*
X167636800Y-76487747D01*
X167632019Y-76463714D01*
X167622642Y-76441075D01*
X167609029Y-76420702D01*
X167603800Y-76414330D01*
X167601501Y-76410029D01*
X167600083Y-76405355D01*
X167599000Y-76394359D01*
X167599000Y-76105641D01*
X167600083Y-76094645D01*
X167601501Y-76089971D01*
X167603800Y-76085670D01*
X167609029Y-76079298D01*
X167622643Y-76058924D01*
X167632020Y-76036285D01*
X167636800Y-76012251D01*
X167636800Y-75987747D01*
X167632019Y-75963714D01*
X167622642Y-75941075D01*
X167609029Y-75920702D01*
X167603800Y-75914330D01*
X167601501Y-75910029D01*
X167600083Y-75905355D01*
X167599000Y-75894359D01*
X167599000Y-75605641D01*
X167600083Y-75594645D01*
X167601501Y-75589971D01*
X167603800Y-75585669D01*
X167606896Y-75581896D01*
X167610669Y-75578800D01*
X167614971Y-75576501D01*
X167619645Y-75575083D01*
X167630641Y-75574000D01*
X168449001Y-75574000D01*
X168473387Y-75571598D01*
X168496836Y-75564485D01*
X168518447Y-75552934D01*
X168537389Y-75537389D01*
X168552934Y-75518447D01*
X168564485Y-75496836D01*
X168571598Y-75473387D01*
X168574000Y-75449001D01*
X168574000Y-74630641D01*
X168575083Y-74619645D01*
X168576501Y-74614971D01*
X168578800Y-74610669D01*
X168581896Y-74606896D01*
X168585669Y-74603800D01*
X168589971Y-74601501D01*
X168594645Y-74600083D01*
X168605641Y-74599000D01*
X168894359Y-74599000D01*
X168905355Y-74600083D01*
G37*
G36*
X165029591Y-77828085D02*
G01*
X165063569Y-77838393D01*
X165094890Y-77855134D01*
X165122339Y-77877661D01*
X165144866Y-77905110D01*
X165161607Y-77936431D01*
X165171915Y-77970409D01*
X165176000Y-78011890D01*
X165176000Y-78688110D01*
X165171915Y-78729591D01*
X165161607Y-78763569D01*
X165144866Y-78794890D01*
X165122339Y-78822339D01*
X165094890Y-78844866D01*
X165063569Y-78861607D01*
X165029591Y-78871915D01*
X164988110Y-78876000D01*
X164386890Y-78876000D01*
X164345409Y-78871915D01*
X164311431Y-78861607D01*
X164280110Y-78844866D01*
X164252661Y-78822339D01*
X164230134Y-78794890D01*
X164213393Y-78763569D01*
X164203085Y-78729591D01*
X164199000Y-78688110D01*
X164199000Y-78011890D01*
X164203085Y-77970409D01*
X164213393Y-77936431D01*
X164230134Y-77905110D01*
X164252661Y-77877661D01*
X164280110Y-77855134D01*
X164311431Y-77838393D01*
X164345409Y-77828085D01*
X164386890Y-77824000D01*
X164988110Y-77824000D01*
X165029591Y-77828085D01*
G37*
G36*
X163454591Y-77828085D02*
G01*
X163488569Y-77838393D01*
X163519890Y-77855134D01*
X163547339Y-77877661D01*
X163569866Y-77905110D01*
X163586607Y-77936431D01*
X163596915Y-77970409D01*
X163601000Y-78011890D01*
X163601000Y-78688110D01*
X163596915Y-78729591D01*
X163586607Y-78763569D01*
X163569866Y-78794890D01*
X163547339Y-78822339D01*
X163519890Y-78844866D01*
X163488569Y-78861607D01*
X163454591Y-78871915D01*
X163413110Y-78876000D01*
X162811890Y-78876000D01*
X162770409Y-78871915D01*
X162736431Y-78861607D01*
X162705110Y-78844866D01*
X162677661Y-78822339D01*
X162655134Y-78794890D01*
X162638393Y-78763569D01*
X162628085Y-78729591D01*
X162624000Y-78688110D01*
X162624000Y-78011890D01*
X162628085Y-77970409D01*
X162638393Y-77936431D01*
X162655134Y-77905110D01*
X162677661Y-77877661D01*
X162705110Y-77855134D01*
X162736431Y-77838393D01*
X162770409Y-77828085D01*
X162811890Y-77824000D01*
X163413110Y-77824000D01*
X163454591Y-77828085D01*
G37*
G36*
X152229591Y-77778085D02*
G01*
X152263569Y-77788393D01*
X152294890Y-77805134D01*
X152322339Y-77827661D01*
X152344866Y-77855110D01*
X152361607Y-77886431D01*
X152371915Y-77920409D01*
X152376000Y-77961890D01*
X152376000Y-78638110D01*
X152371915Y-78679591D01*
X152361607Y-78713569D01*
X152344866Y-78744890D01*
X152322339Y-78772339D01*
X152294890Y-78794866D01*
X152263569Y-78811607D01*
X152229591Y-78821915D01*
X152188110Y-78826000D01*
X151586890Y-78826000D01*
X151545409Y-78821915D01*
X151511431Y-78811607D01*
X151480110Y-78794866D01*
X151452661Y-78772339D01*
X151430134Y-78744890D01*
X151413393Y-78713569D01*
X151403085Y-78679591D01*
X151399000Y-78638110D01*
X151399000Y-77961890D01*
X151403085Y-77920409D01*
X151413393Y-77886431D01*
X151430134Y-77855110D01*
X151452661Y-77827661D01*
X151480110Y-77805134D01*
X151511431Y-77788393D01*
X151545409Y-77778085D01*
X151586890Y-77774000D01*
X152188110Y-77774000D01*
X152229591Y-77778085D01*
G37*
G36*
X150654591Y-77778085D02*
G01*
X150688569Y-77788393D01*
X150719890Y-77805134D01*
X150747339Y-77827661D01*
X150769866Y-77855110D01*
X150786607Y-77886431D01*
X150796915Y-77920409D01*
X150801000Y-77961890D01*
X150801000Y-78638110D01*
X150796915Y-78679591D01*
X150786607Y-78713569D01*
X150769866Y-78744890D01*
X150747339Y-78772339D01*
X150719890Y-78794866D01*
X150688569Y-78811607D01*
X150654591Y-78821915D01*
X150613110Y-78826000D01*
X150011890Y-78826000D01*
X149970409Y-78821915D01*
X149936431Y-78811607D01*
X149905110Y-78794866D01*
X149877661Y-78772339D01*
X149855134Y-78744890D01*
X149838393Y-78713569D01*
X149828085Y-78679591D01*
X149824000Y-78638110D01*
X149824000Y-77961890D01*
X149828085Y-77920409D01*
X149838393Y-77886431D01*
X149855134Y-77855110D01*
X149877661Y-77827661D01*
X149905110Y-77805134D01*
X149936431Y-77788393D01*
X149970409Y-77778085D01*
X150011890Y-77774000D01*
X150613110Y-77774000D01*
X150654591Y-77778085D01*
G37*
G36*
X147379487Y-75148996D02*
G01*
X147616253Y-75247068D01*
X147616255Y-75247069D01*
X147829339Y-75389447D01*
X148010553Y-75570661D01*
X148023456Y-75589971D01*
X148152932Y-75783747D01*
X148251004Y-76020513D01*
X148301000Y-76271861D01*
X148301000Y-76528139D01*
X148251004Y-76779487D01*
X148164739Y-76987749D01*
X148152931Y-77016255D01*
X148010553Y-77229339D01*
X147829339Y-77410553D01*
X147616255Y-77552931D01*
X147616254Y-77552932D01*
X147616253Y-77552932D01*
X147379487Y-77651004D01*
X147128139Y-77701000D01*
X146871861Y-77701000D01*
X146620513Y-77651004D01*
X146383747Y-77552932D01*
X146383746Y-77552932D01*
X146383745Y-77552931D01*
X146170661Y-77410553D01*
X145989447Y-77229339D01*
X145847069Y-77016255D01*
X145835261Y-76987749D01*
X145748996Y-76779487D01*
X145699000Y-76528139D01*
X145699000Y-76271861D01*
X145748996Y-76020513D01*
X145847068Y-75783747D01*
X145976545Y-75589971D01*
X145989447Y-75570661D01*
X146170661Y-75389447D01*
X146383745Y-75247069D01*
X146383747Y-75247068D01*
X146620513Y-75148996D01*
X146871861Y-75099000D01*
X147128139Y-75099000D01*
X147379487Y-75148996D01*
G37*
G36*
X193379487Y-75148996D02*
G01*
X193616253Y-75247068D01*
X193616255Y-75247069D01*
X193829339Y-75389447D01*
X194010553Y-75570661D01*
X194023456Y-75589971D01*
X194152932Y-75783747D01*
X194251004Y-76020513D01*
X194301000Y-76271861D01*
X194301000Y-76528139D01*
X194251004Y-76779487D01*
X194164739Y-76987749D01*
X194152931Y-77016255D01*
X194010553Y-77229339D01*
X193829339Y-77410553D01*
X193616255Y-77552931D01*
X193616254Y-77552932D01*
X193616253Y-77552932D01*
X193379487Y-77651004D01*
X193128139Y-77701000D01*
X192871861Y-77701000D01*
X192620513Y-77651004D01*
X192383747Y-77552932D01*
X192383746Y-77552932D01*
X192383745Y-77552931D01*
X192170661Y-77410553D01*
X191989447Y-77229339D01*
X191847069Y-77016255D01*
X191835261Y-76987749D01*
X191748996Y-76779487D01*
X191699000Y-76528139D01*
X191699000Y-76271861D01*
X191748996Y-76020513D01*
X191847068Y-75783747D01*
X191976545Y-75589971D01*
X191989447Y-75570661D01*
X192170661Y-75389447D01*
X192383745Y-75247069D01*
X192383747Y-75247068D01*
X192620513Y-75148996D01*
X192871861Y-75099000D01*
X193128139Y-75099000D01*
X193379487Y-75148996D01*
G37*
G36*
X165029591Y-76078085D02*
G01*
X165063569Y-76088393D01*
X165094890Y-76105134D01*
X165122339Y-76127661D01*
X165144866Y-76155110D01*
X165161607Y-76186431D01*
X165171915Y-76220409D01*
X165176000Y-76261890D01*
X165176000Y-76938110D01*
X165171915Y-76979591D01*
X165161607Y-77013569D01*
X165144866Y-77044890D01*
X165122339Y-77072339D01*
X165094890Y-77094866D01*
X165063569Y-77111607D01*
X165029591Y-77121915D01*
X164988110Y-77126000D01*
X164386890Y-77126000D01*
X164345409Y-77121915D01*
X164311431Y-77111607D01*
X164280110Y-77094866D01*
X164252661Y-77072339D01*
X164230134Y-77044890D01*
X164213393Y-77013569D01*
X164203085Y-76979591D01*
X164199000Y-76938110D01*
X164199000Y-76261890D01*
X164203085Y-76220409D01*
X164213393Y-76186431D01*
X164230134Y-76155110D01*
X164252661Y-76127661D01*
X164280110Y-76105134D01*
X164311431Y-76088393D01*
X164345409Y-76078085D01*
X164386890Y-76074000D01*
X164988110Y-76074000D01*
X165029591Y-76078085D01*
G37*
G36*
X156529591Y-76153085D02*
G01*
X156563569Y-76163393D01*
X156594890Y-76180134D01*
X156622339Y-76202661D01*
X156644866Y-76230110D01*
X156661607Y-76261431D01*
X156671915Y-76295409D01*
X156676000Y-76336890D01*
X156676000Y-76938110D01*
X156671915Y-76979591D01*
X156661607Y-77013569D01*
X156644866Y-77044890D01*
X156622339Y-77072339D01*
X156594890Y-77094866D01*
X156563569Y-77111607D01*
X156529591Y-77121915D01*
X156488110Y-77126000D01*
X155811890Y-77126000D01*
X155770409Y-77121915D01*
X155736431Y-77111607D01*
X155705110Y-77094866D01*
X155677661Y-77072339D01*
X155655134Y-77044890D01*
X155638393Y-77013569D01*
X155628085Y-76979591D01*
X155624000Y-76938110D01*
X155624000Y-76336890D01*
X155628085Y-76295409D01*
X155638393Y-76261431D01*
X155655134Y-76230110D01*
X155677661Y-76202661D01*
X155705110Y-76180134D01*
X155736431Y-76163393D01*
X155770409Y-76153085D01*
X155811890Y-76149000D01*
X156488110Y-76149000D01*
X156529591Y-76153085D01*
G37*
G36*
X163454591Y-76078085D02*
G01*
X163488569Y-76088393D01*
X163519890Y-76105134D01*
X163547339Y-76127661D01*
X163569866Y-76155110D01*
X163586607Y-76186431D01*
X163596915Y-76220409D01*
X163601000Y-76261890D01*
X163601000Y-76938110D01*
X163596915Y-76979591D01*
X163586607Y-77013569D01*
X163569866Y-77044890D01*
X163547339Y-77072339D01*
X163519890Y-77094866D01*
X163488569Y-77111607D01*
X163454591Y-77121915D01*
X163413110Y-77126000D01*
X162811890Y-77126000D01*
X162770409Y-77121915D01*
X162736431Y-77111607D01*
X162705110Y-77094866D01*
X162677661Y-77072339D01*
X162655134Y-77044890D01*
X162638393Y-77013569D01*
X162628085Y-76979591D01*
X162624000Y-76938110D01*
X162624000Y-76261890D01*
X162628085Y-76220409D01*
X162638393Y-76186431D01*
X162655134Y-76155110D01*
X162677661Y-76127661D01*
X162705110Y-76105134D01*
X162736431Y-76088393D01*
X162770409Y-76078085D01*
X162811890Y-76074000D01*
X163413110Y-76074000D01*
X163454591Y-76078085D01*
G37*
G36*
X160204591Y-76078085D02*
G01*
X160238569Y-76088393D01*
X160269890Y-76105134D01*
X160297339Y-76127661D01*
X160319866Y-76155110D01*
X160336607Y-76186431D01*
X160346915Y-76220409D01*
X160351000Y-76261890D01*
X160351000Y-76938110D01*
X160346915Y-76979591D01*
X160336607Y-77013569D01*
X160319866Y-77044890D01*
X160297339Y-77072339D01*
X160269890Y-77094866D01*
X160238569Y-77111607D01*
X160204591Y-77121915D01*
X160163110Y-77126000D01*
X159561890Y-77126000D01*
X159520409Y-77121915D01*
X159486431Y-77111607D01*
X159455110Y-77094866D01*
X159427661Y-77072339D01*
X159405134Y-77044890D01*
X159388393Y-77013569D01*
X159378085Y-76979591D01*
X159374000Y-76938110D01*
X159374000Y-76261890D01*
X159378085Y-76220409D01*
X159388393Y-76186431D01*
X159405134Y-76155110D01*
X159427661Y-76127661D01*
X159455110Y-76105134D01*
X159486431Y-76088393D01*
X159520409Y-76078085D01*
X159561890Y-76074000D01*
X160163110Y-76074000D01*
X160204591Y-76078085D01*
G37*
G36*
X161779591Y-76078085D02*
G01*
X161813569Y-76088393D01*
X161844890Y-76105134D01*
X161872339Y-76127661D01*
X161894866Y-76155110D01*
X161911607Y-76186431D01*
X161921915Y-76220409D01*
X161926000Y-76261890D01*
X161926000Y-76938110D01*
X161921915Y-76979591D01*
X161911607Y-77013569D01*
X161894866Y-77044890D01*
X161872339Y-77072339D01*
X161844890Y-77094866D01*
X161813569Y-77111607D01*
X161779591Y-77121915D01*
X161738110Y-77126000D01*
X161136890Y-77126000D01*
X161095409Y-77121915D01*
X161061431Y-77111607D01*
X161030110Y-77094866D01*
X161002661Y-77072339D01*
X160980134Y-77044890D01*
X160963393Y-77013569D01*
X160953085Y-76979591D01*
X160949000Y-76938110D01*
X160949000Y-76261890D01*
X160953085Y-76220409D01*
X160963393Y-76186431D01*
X160980134Y-76155110D01*
X161002661Y-76127661D01*
X161030110Y-76105134D01*
X161061431Y-76088393D01*
X161095409Y-76078085D01*
X161136890Y-76074000D01*
X161738110Y-76074000D01*
X161779591Y-76078085D01*
G37*
G36*
X155029591Y-76153085D02*
G01*
X155063569Y-76163393D01*
X155094890Y-76180134D01*
X155122339Y-76202661D01*
X155144866Y-76230110D01*
X155161607Y-76261431D01*
X155171915Y-76295409D01*
X155176000Y-76336890D01*
X155176000Y-76938110D01*
X155171915Y-76979591D01*
X155161607Y-77013569D01*
X155144866Y-77044890D01*
X155122339Y-77072339D01*
X155094890Y-77094866D01*
X155063569Y-77111607D01*
X155029591Y-77121915D01*
X154988110Y-77126000D01*
X154311890Y-77126000D01*
X154270409Y-77121915D01*
X154236431Y-77111607D01*
X154205110Y-77094866D01*
X154177661Y-77072339D01*
X154155134Y-77044890D01*
X154138393Y-77013569D01*
X154128085Y-76979591D01*
X154124000Y-76938110D01*
X154124000Y-76336890D01*
X154128085Y-76295409D01*
X154138393Y-76261431D01*
X154155134Y-76230110D01*
X154177661Y-76202661D01*
X154205110Y-76180134D01*
X154236431Y-76163393D01*
X154270409Y-76153085D01*
X154311890Y-76149000D01*
X154988110Y-76149000D01*
X155029591Y-76153085D01*
G37*
G36*
X173879591Y-75003085D02*
G01*
X173913569Y-75013393D01*
X173944890Y-75030134D01*
X173972339Y-75052661D01*
X173994866Y-75080110D01*
X174011607Y-75111431D01*
X174021915Y-75145409D01*
X174026000Y-75186890D01*
X174026000Y-75788110D01*
X174021915Y-75829591D01*
X174011607Y-75863569D01*
X173994866Y-75894890D01*
X173972339Y-75922339D01*
X173944890Y-75944866D01*
X173913569Y-75961607D01*
X173879591Y-75971915D01*
X173838110Y-75976000D01*
X173161890Y-75976000D01*
X173120409Y-75971915D01*
X173086431Y-75961607D01*
X173055110Y-75944866D01*
X173027661Y-75922339D01*
X173005134Y-75894890D01*
X172988393Y-75863569D01*
X172978085Y-75829591D01*
X172974000Y-75788110D01*
X172974000Y-75186890D01*
X172978085Y-75145409D01*
X172988393Y-75111431D01*
X173005134Y-75080110D01*
X173027661Y-75052661D01*
X173055110Y-75030134D01*
X173086431Y-75013393D01*
X173120409Y-75003085D01*
X173161890Y-74999000D01*
X173838110Y-74999000D01*
X173879591Y-75003085D01*
G37*
G36*
X155029591Y-74578085D02*
G01*
X155063569Y-74588393D01*
X155094890Y-74605134D01*
X155122339Y-74627661D01*
X155144866Y-74655110D01*
X155161607Y-74686431D01*
X155171915Y-74720409D01*
X155176000Y-74761890D01*
X155176000Y-75363110D01*
X155171915Y-75404591D01*
X155161607Y-75438569D01*
X155144866Y-75469890D01*
X155122339Y-75497339D01*
X155094890Y-75519866D01*
X155063569Y-75536607D01*
X155029591Y-75546915D01*
X154988110Y-75551000D01*
X154311890Y-75551000D01*
X154270409Y-75546915D01*
X154236431Y-75536607D01*
X154205110Y-75519866D01*
X154177661Y-75497339D01*
X154155134Y-75469890D01*
X154138393Y-75438569D01*
X154128085Y-75404591D01*
X154124000Y-75363110D01*
X154124000Y-74761890D01*
X154128085Y-74720409D01*
X154138393Y-74686431D01*
X154155134Y-74655110D01*
X154177661Y-74627661D01*
X154205110Y-74605134D01*
X154236431Y-74588393D01*
X154270409Y-74578085D01*
X154311890Y-74574000D01*
X154988110Y-74574000D01*
X155029591Y-74578085D01*
G37*
G36*
X156529591Y-74578085D02*
G01*
X156563569Y-74588393D01*
X156594890Y-74605134D01*
X156622339Y-74627661D01*
X156644866Y-74655110D01*
X156661607Y-74686431D01*
X156671915Y-74720409D01*
X156676000Y-74761890D01*
X156676000Y-75363110D01*
X156671915Y-75404591D01*
X156661607Y-75438569D01*
X156644866Y-75469890D01*
X156622339Y-75497339D01*
X156594890Y-75519866D01*
X156563569Y-75536607D01*
X156529591Y-75546915D01*
X156488110Y-75551000D01*
X155811890Y-75551000D01*
X155770409Y-75546915D01*
X155736431Y-75536607D01*
X155705110Y-75519866D01*
X155677661Y-75497339D01*
X155655134Y-75469890D01*
X155638393Y-75438569D01*
X155628085Y-75404591D01*
X155624000Y-75363110D01*
X155624000Y-74761890D01*
X155628085Y-74720409D01*
X155638393Y-74686431D01*
X155655134Y-74655110D01*
X155677661Y-74627661D01*
X155705110Y-74605134D01*
X155736431Y-74588393D01*
X155770409Y-74578085D01*
X155811890Y-74574000D01*
X156488110Y-74574000D01*
X156529591Y-74578085D01*
G37*
G36*
X160204591Y-74328085D02*
G01*
X160238569Y-74338393D01*
X160269890Y-74355134D01*
X160297339Y-74377661D01*
X160319866Y-74405110D01*
X160336607Y-74436431D01*
X160346915Y-74470409D01*
X160351000Y-74511890D01*
X160351000Y-75188110D01*
X160346915Y-75229591D01*
X160336607Y-75263569D01*
X160319866Y-75294890D01*
X160297339Y-75322339D01*
X160269890Y-75344866D01*
X160238569Y-75361607D01*
X160204591Y-75371915D01*
X160163110Y-75376000D01*
X159561890Y-75376000D01*
X159520409Y-75371915D01*
X159486431Y-75361607D01*
X159455110Y-75344866D01*
X159427661Y-75322339D01*
X159405134Y-75294890D01*
X159388393Y-75263569D01*
X159378085Y-75229591D01*
X159374000Y-75188110D01*
X159374000Y-74511890D01*
X159378085Y-74470409D01*
X159388393Y-74436431D01*
X159405134Y-74405110D01*
X159427661Y-74377661D01*
X159455110Y-74355134D01*
X159486431Y-74338393D01*
X159520409Y-74328085D01*
X159561890Y-74324000D01*
X160163110Y-74324000D01*
X160204591Y-74328085D01*
G37*
G36*
X161779591Y-74328085D02*
G01*
X161813569Y-74338393D01*
X161844890Y-74355134D01*
X161872339Y-74377661D01*
X161894866Y-74405110D01*
X161911607Y-74436431D01*
X161921915Y-74470409D01*
X161926000Y-74511890D01*
X161926000Y-75188110D01*
X161921915Y-75229591D01*
X161911607Y-75263569D01*
X161894866Y-75294890D01*
X161872339Y-75322339D01*
X161844890Y-75344866D01*
X161813569Y-75361607D01*
X161779591Y-75371915D01*
X161738110Y-75376000D01*
X161136890Y-75376000D01*
X161095409Y-75371915D01*
X161061431Y-75361607D01*
X161030110Y-75344866D01*
X161002661Y-75322339D01*
X160980134Y-75294890D01*
X160963393Y-75263569D01*
X160953085Y-75229591D01*
X160949000Y-75188110D01*
X160949000Y-74511890D01*
X160953085Y-74470409D01*
X160963393Y-74436431D01*
X160980134Y-74405110D01*
X161002661Y-74377661D01*
X161030110Y-74355134D01*
X161061431Y-74338393D01*
X161095409Y-74328085D01*
X161136890Y-74324000D01*
X161738110Y-74324000D01*
X161779591Y-74328085D01*
G37*
G36*
X173879591Y-73428085D02*
G01*
X173913569Y-73438393D01*
X173944890Y-73455134D01*
X173972339Y-73477661D01*
X173994866Y-73505110D01*
X174011607Y-73536431D01*
X174021915Y-73570409D01*
X174026000Y-73611890D01*
X174026000Y-74213110D01*
X174021915Y-74254591D01*
X174011607Y-74288569D01*
X173994866Y-74319890D01*
X173972339Y-74347339D01*
X173944890Y-74369866D01*
X173913569Y-74386607D01*
X173879591Y-74396915D01*
X173838110Y-74401000D01*
X173161890Y-74401000D01*
X173120409Y-74396915D01*
X173086431Y-74386607D01*
X173055110Y-74369866D01*
X173027661Y-74347339D01*
X173005134Y-74319890D01*
X172988393Y-74288569D01*
X172978085Y-74254591D01*
X172974000Y-74213110D01*
X172974000Y-73611890D01*
X172978085Y-73570409D01*
X172988393Y-73536431D01*
X173005134Y-73505110D01*
X173027661Y-73477661D01*
X173055110Y-73455134D01*
X173086431Y-73438393D01*
X173120409Y-73428085D01*
X173161890Y-73424000D01*
X173838110Y-73424000D01*
X173879591Y-73428085D01*
G37*
G36*
X167054591Y-72778085D02*
G01*
X167088569Y-72788393D01*
X167119890Y-72805134D01*
X167147339Y-72827661D01*
X167169866Y-72855110D01*
X167186607Y-72886431D01*
X167196915Y-72920409D01*
X167201000Y-72961890D01*
X167201000Y-73638110D01*
X167196915Y-73679591D01*
X167186607Y-73713569D01*
X167169866Y-73744890D01*
X167147339Y-73772339D01*
X167119890Y-73794866D01*
X167088569Y-73811607D01*
X167054591Y-73821915D01*
X167013110Y-73826000D01*
X166411890Y-73826000D01*
X166370409Y-73821915D01*
X166336431Y-73811607D01*
X166305110Y-73794866D01*
X166277661Y-73772339D01*
X166255134Y-73744890D01*
X166238393Y-73713569D01*
X166228085Y-73679591D01*
X166224000Y-73638110D01*
X166224000Y-72961890D01*
X166228085Y-72920409D01*
X166238393Y-72886431D01*
X166255134Y-72855110D01*
X166277661Y-72827661D01*
X166305110Y-72805134D01*
X166336431Y-72788393D01*
X166370409Y-72778085D01*
X166411890Y-72774000D01*
X167013110Y-72774000D01*
X167054591Y-72778085D01*
G37*
G36*
X168629591Y-72778085D02*
G01*
X168663569Y-72788393D01*
X168694890Y-72805134D01*
X168722339Y-72827661D01*
X168744866Y-72855110D01*
X168761607Y-72886431D01*
X168771915Y-72920409D01*
X168776000Y-72961890D01*
X168776000Y-73638110D01*
X168771915Y-73679591D01*
X168761607Y-73713569D01*
X168744866Y-73744890D01*
X168722339Y-73772339D01*
X168694890Y-73794866D01*
X168663569Y-73811607D01*
X168629591Y-73821915D01*
X168588110Y-73826000D01*
X167986890Y-73826000D01*
X167945409Y-73821915D01*
X167911431Y-73811607D01*
X167880110Y-73794866D01*
X167852661Y-73772339D01*
X167830134Y-73744890D01*
X167813393Y-73713569D01*
X167803085Y-73679591D01*
X167799000Y-73638110D01*
X167799000Y-72961890D01*
X167803085Y-72920409D01*
X167813393Y-72886431D01*
X167830134Y-72855110D01*
X167852661Y-72827661D01*
X167880110Y-72805134D01*
X167911431Y-72788393D01*
X167945409Y-72778085D01*
X167986890Y-72774000D01*
X168588110Y-72774000D01*
X168629591Y-72778085D01*
G37*
G36*
X181129591Y-71978085D02*
G01*
X181163569Y-71988393D01*
X181194890Y-72005134D01*
X181222339Y-72027661D01*
X181244866Y-72055110D01*
X181261607Y-72086431D01*
X181271915Y-72120409D01*
X181276000Y-72161890D01*
X181276000Y-72838110D01*
X181271915Y-72879591D01*
X181261607Y-72913569D01*
X181244866Y-72944890D01*
X181222339Y-72972339D01*
X181194890Y-72994866D01*
X181163569Y-73011607D01*
X181129591Y-73021915D01*
X181088110Y-73026000D01*
X180486890Y-73026000D01*
X180445409Y-73021915D01*
X180411431Y-73011607D01*
X180380110Y-72994866D01*
X180352661Y-72972339D01*
X180330134Y-72944890D01*
X180313393Y-72913569D01*
X180303085Y-72879591D01*
X180299000Y-72838110D01*
X180299000Y-72161890D01*
X180303085Y-72120409D01*
X180313393Y-72086431D01*
X180330134Y-72055110D01*
X180352661Y-72027661D01*
X180380110Y-72005134D01*
X180411431Y-71988393D01*
X180445409Y-71978085D01*
X180486890Y-71974000D01*
X181088110Y-71974000D01*
X181129591Y-71978085D01*
G37*
G36*
X179554591Y-71978085D02*
G01*
X179588569Y-71988393D01*
X179619890Y-72005134D01*
X179647339Y-72027661D01*
X179669866Y-72055110D01*
X179686607Y-72086431D01*
X179696915Y-72120409D01*
X179701000Y-72161890D01*
X179701000Y-72838110D01*
X179696915Y-72879591D01*
X179686607Y-72913569D01*
X179669866Y-72944890D01*
X179647339Y-72972339D01*
X179619890Y-72994866D01*
X179588569Y-73011607D01*
X179554591Y-73021915D01*
X179513110Y-73026000D01*
X178911890Y-73026000D01*
X178870409Y-73021915D01*
X178836431Y-73011607D01*
X178805110Y-72994866D01*
X178777661Y-72972339D01*
X178755134Y-72944890D01*
X178738393Y-72913569D01*
X178728085Y-72879591D01*
X178724000Y-72838110D01*
X178724000Y-72161890D01*
X178728085Y-72120409D01*
X178738393Y-72086431D01*
X178755134Y-72055110D01*
X178777661Y-72027661D01*
X178805110Y-72005134D01*
X178836431Y-71988393D01*
X178870409Y-71978085D01*
X178911890Y-71974000D01*
X179513110Y-71974000D01*
X179554591Y-71978085D01*
G37*
G36*
X161684468Y-70753565D02*
G01*
X161723138Y-70765296D01*
X161758777Y-70784346D01*
X161790017Y-70809983D01*
X161815654Y-70841223D01*
X161834704Y-70876862D01*
X161846435Y-70915532D01*
X161851000Y-70961888D01*
X161851000Y-72038112D01*
X161846435Y-72084468D01*
X161834704Y-72123138D01*
X161815654Y-72158777D01*
X161790017Y-72190017D01*
X161758777Y-72215654D01*
X161723138Y-72234704D01*
X161684468Y-72246435D01*
X161638112Y-72251000D01*
X160986888Y-72251000D01*
X160940532Y-72246435D01*
X160901862Y-72234704D01*
X160866223Y-72215654D01*
X160834983Y-72190017D01*
X160809346Y-72158777D01*
X160790296Y-72123138D01*
X160778565Y-72084468D01*
X160774000Y-72038112D01*
X160774000Y-70961888D01*
X160778565Y-70915532D01*
X160790296Y-70876862D01*
X160809346Y-70841223D01*
X160834983Y-70809983D01*
X160866223Y-70784346D01*
X160901862Y-70765296D01*
X160940532Y-70753565D01*
X160986888Y-70749000D01*
X161638112Y-70749000D01*
X161684468Y-70753565D01*
G37*
G36*
X163559468Y-70753565D02*
G01*
X163598138Y-70765296D01*
X163633777Y-70784346D01*
X163665017Y-70809983D01*
X163690654Y-70841223D01*
X163709704Y-70876862D01*
X163721435Y-70915532D01*
X163726000Y-70961888D01*
X163726000Y-72038112D01*
X163721435Y-72084468D01*
X163709704Y-72123138D01*
X163690654Y-72158777D01*
X163665017Y-72190017D01*
X163633777Y-72215654D01*
X163598138Y-72234704D01*
X163559468Y-72246435D01*
X163513112Y-72251000D01*
X162861888Y-72251000D01*
X162815532Y-72246435D01*
X162776862Y-72234704D01*
X162741223Y-72215654D01*
X162709983Y-72190017D01*
X162684346Y-72158777D01*
X162665296Y-72123138D01*
X162653565Y-72084468D01*
X162649000Y-72038112D01*
X162649000Y-70961888D01*
X162653565Y-70915532D01*
X162665296Y-70876862D01*
X162684346Y-70841223D01*
X162709983Y-70809983D01*
X162741223Y-70784346D01*
X162776862Y-70765296D01*
X162815532Y-70753565D01*
X162861888Y-70749000D01*
X163513112Y-70749000D01*
X163559468Y-70753565D01*
G37*
G36*
X181290737Y-67830378D02*
G01*
X179800740Y-70754661D01*
X178578279Y-70131786D01*
X180068276Y-67207503D01*
X181290737Y-67830378D01*
G37*
G36*
X167212383Y-68112489D02*
G01*
X167212386Y-68112490D01*
X167212385Y-68112490D01*
X167276258Y-68138946D01*
X167333748Y-68177360D01*
X167382640Y-68226252D01*
X167421054Y-68283742D01*
X167442624Y-68335818D01*
X167447511Y-68347617D01*
X167461000Y-68415430D01*
X167461000Y-68484570D01*
X167447511Y-68552383D01*
X167447510Y-68552385D01*
X167421054Y-68616258D01*
X167376246Y-68683317D01*
X167375230Y-68684555D01*
X167363679Y-68706166D01*
X167356566Y-68729615D01*
X167354164Y-68754001D01*
X167356566Y-68778387D01*
X167363679Y-68801836D01*
X167375230Y-68823447D01*
X167390775Y-68842389D01*
X167409717Y-68857934D01*
X167431328Y-68869485D01*
X167454777Y-68876598D01*
X167479163Y-68879000D01*
X172520837Y-68879000D01*
X172545223Y-68876598D01*
X172568672Y-68869485D01*
X172590283Y-68857934D01*
X172609225Y-68842389D01*
X172624770Y-68823447D01*
X172636321Y-68801836D01*
X172643434Y-68778387D01*
X172645836Y-68754001D01*
X172643434Y-68729615D01*
X172636321Y-68706166D01*
X172624770Y-68684555D01*
X172623754Y-68683317D01*
X172578946Y-68616258D01*
X172552490Y-68552385D01*
X172552489Y-68552383D01*
X172539000Y-68484570D01*
X172539000Y-68415430D01*
X172552489Y-68347617D01*
X172557376Y-68335818D01*
X172578946Y-68283742D01*
X172617360Y-68226252D01*
X172666252Y-68177360D01*
X172723742Y-68138946D01*
X172787615Y-68112490D01*
X172787614Y-68112490D01*
X172787617Y-68112489D01*
X172855430Y-68099000D01*
X172924570Y-68099000D01*
X172992383Y-68112489D01*
X172992386Y-68112490D01*
X172992385Y-68112490D01*
X173056258Y-68138946D01*
X173113748Y-68177360D01*
X173162640Y-68226252D01*
X173201054Y-68283742D01*
X173222624Y-68335818D01*
X173227511Y-68347617D01*
X173241000Y-68415430D01*
X173241000Y-68484570D01*
X173227511Y-68552383D01*
X173227510Y-68552385D01*
X173201054Y-68616258D01*
X173156246Y-68683317D01*
X173155230Y-68684555D01*
X173143679Y-68706166D01*
X173136566Y-68729615D01*
X173134164Y-68754001D01*
X173136566Y-68778387D01*
X173143679Y-68801836D01*
X173155230Y-68823447D01*
X173170775Y-68842389D01*
X173189717Y-68857934D01*
X173211328Y-68869485D01*
X173234777Y-68876598D01*
X173259163Y-68879000D01*
X173551000Y-68879000D01*
X173551000Y-70141000D01*
X166449000Y-70141000D01*
X166449000Y-68879000D01*
X166740837Y-68879000D01*
X166765223Y-68876598D01*
X166788672Y-68869485D01*
X166810283Y-68857934D01*
X166829225Y-68842389D01*
X166844770Y-68823447D01*
X166856321Y-68801836D01*
X166863434Y-68778387D01*
X166865836Y-68754001D01*
X166863434Y-68729615D01*
X166856321Y-68706166D01*
X166844770Y-68684555D01*
X166843754Y-68683317D01*
X166798946Y-68616258D01*
X166772490Y-68552385D01*
X166772489Y-68552383D01*
X166759000Y-68484570D01*
X166759000Y-68415430D01*
X166772489Y-68347617D01*
X166777376Y-68335818D01*
X166798946Y-68283742D01*
X166837360Y-68226252D01*
X166886252Y-68177360D01*
X166943742Y-68138946D01*
X167007615Y-68112490D01*
X167007614Y-68112490D01*
X167007617Y-68112489D01*
X167075430Y-68099000D01*
X167144570Y-68099000D01*
X167212383Y-68112489D01*
G37*
G36*
X165778213Y-67886249D02*
G01*
X165872652Y-67914897D01*
X165959687Y-67961418D01*
X166035975Y-68024025D01*
X166098582Y-68100313D01*
X166145103Y-68187348D01*
X166173751Y-68281787D01*
X166181000Y-68355388D01*
X166181000Y-69504612D01*
X166173751Y-69578213D01*
X166145103Y-69672652D01*
X166098582Y-69759687D01*
X166035975Y-69835975D01*
X165959687Y-69898582D01*
X165872651Y-69945103D01*
X165778212Y-69973751D01*
X165680000Y-69983424D01*
X165581787Y-69973751D01*
X165487348Y-69945103D01*
X165400313Y-69898582D01*
X165324025Y-69835975D01*
X165261418Y-69759687D01*
X165214897Y-69672651D01*
X165186249Y-69578212D01*
X165179000Y-69504611D01*
X165179001Y-68355388D01*
X165186250Y-68281787D01*
X165214898Y-68187348D01*
X165261419Y-68100313D01*
X165324026Y-68024025D01*
X165400314Y-67961418D01*
X165487349Y-67914897D01*
X165581788Y-67886249D01*
X165680000Y-67876576D01*
X165778213Y-67886249D01*
G37*
G36*
X174418213Y-67886249D02*
G01*
X174512652Y-67914897D01*
X174599687Y-67961418D01*
X174675975Y-68024025D01*
X174738582Y-68100313D01*
X174785103Y-68187348D01*
X174813751Y-68281787D01*
X174821000Y-68355388D01*
X174821000Y-69504612D01*
X174813751Y-69578213D01*
X174785103Y-69672652D01*
X174738582Y-69759687D01*
X174675975Y-69835975D01*
X174599687Y-69898582D01*
X174512651Y-69945103D01*
X174418212Y-69973751D01*
X174320000Y-69983424D01*
X174221787Y-69973751D01*
X174127348Y-69945103D01*
X174040313Y-69898582D01*
X173964025Y-69835975D01*
X173901418Y-69759687D01*
X173854897Y-69672651D01*
X173826249Y-69578212D01*
X173819000Y-69504611D01*
X173819001Y-68355388D01*
X173826250Y-68281787D01*
X173854898Y-68187348D01*
X173901419Y-68100313D01*
X173964026Y-68024025D01*
X174040314Y-67961418D01*
X174127349Y-67914897D01*
X174221788Y-67886249D01*
X174320000Y-67876576D01*
X174418213Y-67886249D01*
G37*
G36*
X179027581Y-66677243D02*
G01*
X177537584Y-69601526D01*
X176315123Y-68978651D01*
X177805120Y-66054368D01*
X179027581Y-66677243D01*
G37*
G36*
X174418213Y-63866249D02*
G01*
X174512652Y-63894897D01*
X174599687Y-63941418D01*
X174675975Y-64004025D01*
X174738582Y-64080313D01*
X174785103Y-64167348D01*
X174813751Y-64261787D01*
X174821000Y-64335388D01*
X174821000Y-65184612D01*
X174813751Y-65258213D01*
X174785103Y-65352652D01*
X174738582Y-65439687D01*
X174675975Y-65515975D01*
X174599687Y-65578582D01*
X174512651Y-65625103D01*
X174418212Y-65653751D01*
X174320000Y-65663424D01*
X174221787Y-65653751D01*
X174127348Y-65625103D01*
X174040313Y-65578582D01*
X173964025Y-65515975D01*
X173901418Y-65439687D01*
X173854897Y-65352651D01*
X173826249Y-65258212D01*
X173819000Y-65184611D01*
X173819000Y-64335398D01*
X173826250Y-64261786D01*
X173836846Y-64226856D01*
X173854898Y-64167348D01*
X173901419Y-64080313D01*
X173964026Y-64004025D01*
X174040314Y-63941418D01*
X174127349Y-63894897D01*
X174221788Y-63866249D01*
X174320000Y-63856576D01*
X174418213Y-63866249D01*
G37*
G36*
X165778213Y-63866249D02*
G01*
X165872652Y-63894897D01*
X165959687Y-63941418D01*
X166035975Y-64004025D01*
X166098582Y-64080313D01*
X166145103Y-64167348D01*
X166173751Y-64261787D01*
X166181000Y-64335388D01*
X166181000Y-65184612D01*
X166173751Y-65258213D01*
X166145103Y-65352652D01*
X166098582Y-65439687D01*
X166035975Y-65515975D01*
X165959687Y-65578582D01*
X165872651Y-65625103D01*
X165778212Y-65653751D01*
X165680000Y-65663424D01*
X165581787Y-65653751D01*
X165487348Y-65625103D01*
X165400313Y-65578582D01*
X165324025Y-65515975D01*
X165261418Y-65439687D01*
X165214897Y-65352651D01*
X165186249Y-65258212D01*
X165179000Y-65184611D01*
X165179000Y-64335398D01*
X165186250Y-64261786D01*
X165196846Y-64226856D01*
X165214898Y-64167348D01*
X165261419Y-64080313D01*
X165324026Y-64004025D01*
X165400314Y-63941418D01*
X165487349Y-63894897D01*
X165581788Y-63866249D01*
X165680000Y-63856576D01*
X165778213Y-63866249D01*
G37*
M02*
