M48
; DRILL file {KiCad 5.1.5+dfsg1-2build2} date Mo 21 Jun 2021 20:14:44 CEST
; FORMAT={-:-/ absolute / metric / decimal}
; #@! TF.CreationDate,2021-06-21T20:14:44+02:00
; #@! TF.GenerationSoftware,Kicad,Pcbnew,5.1.5+dfsg1-2build2
; #@! TF.FileFunction,Plated,1,4,PTH
FMAT,2
METRIC
T1C0.400
T2C0.600
%
G90
G05
T1
X129.25Y-97.5
X133.0Y-86.0
X134.0Y-97.25
X137.0Y-87.0
X138.0Y-83.25
X138.0Y-88.5
X142.0Y-84.5
X142.0Y-89.5
X143.0Y-80.75
X143.0Y-86.0
X143.0Y-91.0
X147.0Y-82.0
X147.0Y-87.0
X147.03Y-92.0
X148.0Y-83.5
X148.0Y-88.5
X148.0Y-93.75
X148.325Y-78.7
X149.0Y-109.3
X151.5Y-99.0
X151.51Y-94.348
X152.0Y-79.5
X152.0Y-84.5
X152.0Y-89.5
X152.75Y-81.25
X152.96Y-94.525
X153.0Y-86.0
X153.0Y-91.0
X153.5Y-75.05
X155.25Y-101.0
X157.0Y-87.0
X157.0Y-92.0
X157.0Y-97.0
X157.25Y-82.25
X157.629Y-77.051
X158.0Y-73.25
X158.0Y-83.75
X158.0Y-88.5
X158.0Y-93.5
X158.0Y-98.5
X158.0Y-78.501
X158.6Y-70.926
X158.626Y-75.95
X159.0Y-113.75
X159.1Y-115.25
X159.1Y-116.5
X159.25Y-101.25
X159.35Y-106.725
X159.755Y-72.505
X159.9Y-82.4
X160.0Y-69.9
X161.4Y-69.8
X161.9Y-72.8
X161.9Y-77.85
X162.0Y-79.5
X162.0Y-84.5
X162.0Y-89.5
X162.0Y-98.75
X162.0Y-94.1
X162.747Y-94.863
X162.75Y-74.35
X162.75Y-75.35
X162.763Y-96.313
X162.91Y-90.777
X163.0Y-70.0
X163.0Y-83.0
X163.0Y-86.0
X163.1Y-101.25
X163.25Y-110.5
X163.35Y-107.225
X163.5Y-112.75
X163.75Y-93.5
X164.075Y-103.325
X164.9Y-74.5
X165.0Y-104.25
X166.817Y-80.165
X166.934Y-86.801
X166.987Y-76.865
X167.0Y-72.0
X167.0Y-84.0
X167.0Y-92.0
X167.0Y-97.0
X167.0Y-102.0
X167.5Y-87.75
X167.75Y-74.5
X167.987Y-103.487
X168.0Y-79.0
X168.0Y-93.5
X168.25Y-67.5
X168.25Y-86.0
X168.748Y-88.6
X168.75Y-97.25
X169.0Y-71.0
X169.0Y-72.0
X169.2Y-77.0
X169.2Y-77.0
X170.0Y-67.5
X170.446Y-71.448
X171.17Y-72.139
X171.5Y-101.0
X171.862Y-83.863
X171.9Y-73.6
X172.0Y-79.5
X172.0Y-89.5
X172.0Y-94.5
X172.263Y-104.513
X172.339Y-74.499
X173.0Y-71.0
X173.0Y-81.5
X173.0Y-86.0
X173.0Y-91.0
X173.0Y-96.0
X173.0Y-101.0
X174.5Y-109.0
X174.9Y-75.5
X175.75Y-103.25
X176.626Y-82.724
X176.75Y-113.5
X177.0Y-72.0
X177.0Y-77.0
X177.1Y-70.1
X177.487Y-86.775
X177.5Y-81.5
X177.5Y-92.0
X177.5Y-97.0
X178.0Y-73.5
X178.0Y-78.5
X178.0Y-88.725
X178.0Y-98.75
X178.039Y-93.551
X178.1Y-70.6
X178.225Y-83.574
X179.432Y-80.959
X180.555Y-107.307
X181.05Y-116.5
X182.0Y-74.5
X182.0Y-79.5
X182.0Y-84.5
X182.0Y-89.5
X182.0Y-94.5
X182.0Y-100.25
X182.1Y-108.2
X182.45Y-110.7
X183.0Y-76.0
X183.0Y-81.0
X183.0Y-86.0
X183.0Y-91.0
X183.0Y-96.0
X184.95Y-101.25
X185.0Y-99.0
X186.0Y-102.225
X186.8Y-104.2
X186.862Y-77.138
X187.0Y-82.0
X187.0Y-87.0
X187.0Y-97.0
X187.25Y-92.0
X187.75Y-88.5
X187.85Y-102.95
X188.0Y-78.5
X188.0Y-83.5
X188.0Y-93.5
X188.6Y-115.1
X192.0Y-79.5
X192.0Y-84.5
X192.0Y-94.5
X192.685Y-87.4
X193.0Y-81.0
X193.036Y-85.751
X195.15Y-88.75
X196.6Y-110.6
X197.0Y-82.0
X197.0Y-87.0
X197.793Y-90.541
X198.0Y-83.5
X198.0Y-88.5
X202.0Y-84.5
X202.0Y-89.75
X203.0Y-86.0
X203.6Y-107.1
X207.0Y-87.0
X217.0Y-102.8
T2
G00X165.68Y-64.36
M15
G01X165.68Y-65.16
M16
G05
G00X165.68Y-68.38
M15
G01X165.68Y-69.48
M16
G05
G00X174.32Y-64.36
M15
G01X174.32Y-65.16
M16
G05
G00X174.32Y-68.38
M15
G01X174.32Y-69.48
M16
G05
T0
M30
